G75*
%MOIN*%
%OFA0B0*%
%FSLAX25Y25*%
%IPPOS*%
%LPD*%
%AMOC8*
5,1,8,0,0,1.08239X$1,22.5*
%
%ADD10C,0.06000*%
%ADD11C,0.02400*%
%ADD12C,0.05000*%
%ADD13C,0.01600*%
D10*
X0161674Y0024674D02*
X0167674Y0024674D01*
X0167674Y0034674D02*
X0161674Y0034674D01*
X0161674Y0044674D02*
X0167674Y0044674D01*
X0167674Y0054674D02*
X0161674Y0054674D01*
X0161674Y0064674D02*
X0167674Y0064674D01*
X0167674Y0074674D02*
X0161674Y0074674D01*
X0161674Y0084674D02*
X0167674Y0084674D01*
X0167674Y0094674D02*
X0161674Y0094674D01*
X0161674Y0104674D02*
X0167674Y0104674D01*
X0167674Y0114674D02*
X0161674Y0114674D01*
X0161674Y0124674D02*
X0167674Y0124674D01*
X0167674Y0134674D02*
X0161674Y0134674D01*
X0161674Y0144674D02*
X0167674Y0144674D01*
X0167674Y0154674D02*
X0161674Y0154674D01*
X0161674Y0164674D02*
X0167674Y0164674D01*
X0137174Y0152674D02*
X0137174Y0146674D01*
X0127174Y0146674D02*
X0127174Y0152674D01*
X0117174Y0152674D02*
X0117174Y0146674D01*
X0107174Y0146674D02*
X0107174Y0152674D01*
X0097174Y0152674D02*
X0097174Y0146674D01*
X0087174Y0146674D02*
X0087174Y0152674D01*
X0069674Y0152674D02*
X0069674Y0146674D01*
X0059674Y0146674D02*
X0059674Y0152674D01*
X0049674Y0152674D02*
X0049674Y0146674D01*
X0039674Y0146674D02*
X0039674Y0152674D01*
X0029674Y0152674D02*
X0029674Y0146674D01*
X0019674Y0146674D02*
X0019674Y0152674D01*
X0039674Y0164174D02*
X0039674Y0170174D01*
X0049674Y0170174D02*
X0049674Y0164174D01*
X0067174Y0164174D02*
X0067174Y0170174D01*
X0077174Y0170174D02*
X0077174Y0164174D01*
X0087174Y0164174D02*
X0087174Y0170174D01*
X0097174Y0170174D02*
X0097174Y0164174D01*
X0107174Y0164174D02*
X0107174Y0170174D01*
X0117174Y0170174D02*
X0117174Y0164174D01*
X0221674Y0164674D02*
X0227674Y0164674D01*
X0227674Y0154674D02*
X0221674Y0154674D01*
X0221674Y0144674D02*
X0227674Y0144674D01*
X0227674Y0134674D02*
X0221674Y0134674D01*
X0221674Y0124674D02*
X0227674Y0124674D01*
X0227674Y0114674D02*
X0221674Y0114674D01*
X0221674Y0104674D02*
X0227674Y0104674D01*
X0227674Y0094674D02*
X0221674Y0094674D01*
X0221674Y0084674D02*
X0227674Y0084674D01*
X0227674Y0074674D02*
X0221674Y0074674D01*
X0221674Y0064674D02*
X0227674Y0064674D01*
X0227674Y0054674D02*
X0221674Y0054674D01*
X0221674Y0044674D02*
X0227674Y0044674D01*
X0227674Y0034674D02*
X0221674Y0034674D01*
X0221674Y0024674D02*
X0227674Y0024674D01*
X0246674Y0032174D02*
X0252674Y0032174D01*
X0252674Y0042174D02*
X0246674Y0042174D01*
X0246674Y0052174D02*
X0252674Y0052174D01*
X0252674Y0062174D02*
X0246674Y0062174D01*
X0249174Y0082174D02*
X0255174Y0082174D01*
X0255174Y0092174D02*
X0249174Y0092174D01*
X0249174Y0102174D02*
X0255174Y0102174D01*
X0255174Y0112174D02*
X0249174Y0112174D01*
X0246674Y0132174D02*
X0252674Y0132174D01*
X0252674Y0142174D02*
X0246674Y0142174D01*
X0246674Y0152174D02*
X0252674Y0152174D01*
X0252674Y0162174D02*
X0246674Y0162174D01*
D11*
X0249674Y0162174D02*
X0237174Y0162174D01*
X0229674Y0154674D01*
X0224674Y0154674D01*
X0229674Y0144674D02*
X0237174Y0152174D01*
X0249674Y0152174D01*
X0249674Y0142174D02*
X0237174Y0142174D01*
X0229674Y0134674D01*
X0224674Y0134674D01*
X0229674Y0124674D02*
X0237174Y0132174D01*
X0249674Y0132174D01*
X0229674Y0124674D02*
X0224674Y0124674D01*
X0224674Y0144674D02*
X0229674Y0144674D01*
X0179674Y0132174D02*
X0179674Y0167174D01*
X0172174Y0174674D01*
X0132174Y0174674D01*
X0127174Y0169674D01*
X0127174Y0149674D01*
X0137174Y0149674D02*
X0137174Y0147174D01*
X0142174Y0142174D01*
X0149674Y0142174D01*
X0157174Y0134674D01*
X0164674Y0134674D01*
X0164674Y0124674D02*
X0172174Y0124674D01*
X0179674Y0132174D01*
X0164674Y0114674D02*
X0157174Y0114674D01*
X0154674Y0112174D01*
X0134674Y0112174D01*
X0117174Y0129674D01*
X0117174Y0149674D01*
X0107174Y0149674D02*
X0107174Y0129674D01*
X0132174Y0104674D01*
X0164674Y0104674D01*
X0164674Y0094674D02*
X0132174Y0094674D01*
X0097174Y0129674D01*
X0097174Y0149674D01*
X0087174Y0149674D02*
X0087174Y0129674D01*
X0132174Y0084674D01*
X0164674Y0084674D01*
X0234674Y0047174D02*
X0234674Y0039674D01*
X0229674Y0034674D01*
X0224674Y0034674D01*
X0224674Y0024674D02*
X0229674Y0024674D01*
X0247174Y0042174D01*
X0249674Y0042174D01*
X0259674Y0042174D01*
X0264674Y0047174D01*
X0264674Y0097174D01*
X0259674Y0102174D01*
X0252174Y0102174D01*
X0252174Y0092174D02*
X0242174Y0092174D01*
X0237174Y0087174D01*
X0237174Y0054674D01*
X0239674Y0052174D01*
X0249674Y0052174D01*
X0239674Y0052174D02*
X0234674Y0047174D01*
X0249674Y0042174D02*
X0254674Y0042174D01*
X0069674Y0149674D02*
X0059674Y0149674D01*
X0049674Y0149674D01*
X0039674Y0149674D01*
X0029674Y0149674D01*
X0019674Y0149674D01*
D12*
X0049674Y0149674D02*
X0049674Y0124674D01*
X0119674Y0054674D01*
X0164674Y0054674D01*
X0179674Y0054674D01*
X0184674Y0049674D01*
X0184674Y0022174D01*
X0192174Y0014674D01*
X0242174Y0014674D01*
X0249674Y0022174D01*
X0249674Y0032174D01*
X0259674Y0032174D01*
X0272174Y0044674D01*
X0272174Y0104674D01*
X0264674Y0112174D01*
X0252174Y0112174D01*
X0049674Y0149674D02*
X0049674Y0167174D01*
D13*
X0014474Y0017293D02*
X0014474Y0014474D01*
X0186576Y0014474D01*
X0181198Y0019852D01*
X0180574Y0021358D01*
X0180574Y0047976D01*
X0177976Y0050574D01*
X0169796Y0050574D01*
X0168589Y0050074D01*
X0160759Y0050074D01*
X0159552Y0050574D01*
X0118858Y0050574D01*
X0117352Y0051198D01*
X0116198Y0052352D01*
X0046198Y0122352D01*
X0045574Y0123858D01*
X0045574Y0144552D01*
X0045074Y0145759D01*
X0045074Y0146874D01*
X0044274Y0146874D01*
X0044274Y0145759D01*
X0043574Y0144068D01*
X0042280Y0142774D01*
X0040589Y0142074D01*
X0038759Y0142074D01*
X0037068Y0142774D01*
X0035774Y0144068D01*
X0035074Y0145759D01*
X0035074Y0146874D01*
X0034274Y0146874D01*
X0034274Y0145759D01*
X0033574Y0144068D01*
X0032280Y0142774D01*
X0030589Y0142074D01*
X0028759Y0142074D01*
X0027068Y0142774D01*
X0025774Y0144068D01*
X0025074Y0145759D01*
X0025074Y0146874D01*
X0024274Y0146874D01*
X0024274Y0145759D01*
X0023574Y0144068D01*
X0022280Y0142774D01*
X0020589Y0142074D01*
X0018759Y0142074D01*
X0017068Y0142774D01*
X0015774Y0144068D01*
X0015074Y0145759D01*
X0015074Y0153589D01*
X0015774Y0155280D01*
X0017068Y0156574D01*
X0018759Y0157274D01*
X0020589Y0157274D01*
X0022280Y0156574D01*
X0023574Y0155280D01*
X0024274Y0153589D01*
X0024274Y0152474D01*
X0025074Y0152474D01*
X0025074Y0153589D01*
X0025774Y0155280D01*
X0027068Y0156574D01*
X0028759Y0157274D01*
X0030589Y0157274D01*
X0032280Y0156574D01*
X0033574Y0155280D01*
X0034274Y0153589D01*
X0034274Y0152474D01*
X0035074Y0152474D01*
X0035074Y0153589D01*
X0035774Y0155280D01*
X0037068Y0156574D01*
X0038759Y0157274D01*
X0040589Y0157274D01*
X0042280Y0156574D01*
X0043574Y0155280D01*
X0044274Y0153589D01*
X0044274Y0152474D01*
X0045074Y0152474D01*
X0045074Y0153589D01*
X0045574Y0154796D01*
X0045574Y0162052D01*
X0045074Y0163259D01*
X0045074Y0171089D01*
X0045774Y0172780D01*
X0047068Y0174074D01*
X0048759Y0174774D01*
X0050589Y0174774D01*
X0052280Y0174074D01*
X0053574Y0172780D01*
X0054274Y0171089D01*
X0054274Y0163259D01*
X0053774Y0162052D01*
X0053774Y0154796D01*
X0054274Y0153589D01*
X0054274Y0152474D01*
X0055074Y0152474D01*
X0055074Y0153589D01*
X0055774Y0155280D01*
X0057068Y0156574D01*
X0058759Y0157274D01*
X0060589Y0157274D01*
X0062280Y0156574D01*
X0063574Y0155280D01*
X0064274Y0153589D01*
X0064274Y0152474D01*
X0065074Y0152474D01*
X0065074Y0153589D01*
X0065774Y0155280D01*
X0067068Y0156574D01*
X0068759Y0157274D01*
X0070589Y0157274D01*
X0072280Y0156574D01*
X0073574Y0155280D01*
X0074274Y0153589D01*
X0074274Y0145759D01*
X0073574Y0144068D01*
X0072280Y0142774D01*
X0070589Y0142074D01*
X0068759Y0142074D01*
X0067068Y0142774D01*
X0065774Y0144068D01*
X0065074Y0145759D01*
X0065074Y0146874D01*
X0064274Y0146874D01*
X0064274Y0145759D01*
X0063574Y0144068D01*
X0062280Y0142774D01*
X0060589Y0142074D01*
X0058759Y0142074D01*
X0057068Y0142774D01*
X0055774Y0144068D01*
X0055074Y0145759D01*
X0055074Y0146874D01*
X0054274Y0146874D01*
X0054274Y0145759D01*
X0053774Y0144552D01*
X0053774Y0126372D01*
X0121372Y0058774D01*
X0159552Y0058774D01*
X0160759Y0059274D01*
X0168589Y0059274D01*
X0169796Y0058774D01*
X0180490Y0058774D01*
X0181996Y0058150D01*
X0186996Y0053150D01*
X0188150Y0051996D01*
X0188774Y0050490D01*
X0188774Y0023872D01*
X0193872Y0018774D01*
X0240476Y0018774D01*
X0245574Y0023872D01*
X0245574Y0027651D01*
X0244068Y0028274D01*
X0242774Y0029568D01*
X0242074Y0031259D01*
X0242074Y0033089D01*
X0242092Y0033132D01*
X0231959Y0023000D01*
X0231574Y0022068D01*
X0230280Y0020774D01*
X0228589Y0020074D01*
X0220759Y0020074D01*
X0219068Y0020774D01*
X0217774Y0022068D01*
X0217074Y0023759D01*
X0217074Y0025589D01*
X0217774Y0027280D01*
X0219068Y0028574D01*
X0220759Y0029274D01*
X0228589Y0029274D01*
X0229809Y0028769D01*
X0242140Y0041100D01*
X0242074Y0041259D01*
X0242074Y0043089D01*
X0242774Y0044780D01*
X0244068Y0046074D01*
X0245759Y0046774D01*
X0253589Y0046774D01*
X0255280Y0046074D01*
X0256379Y0044974D01*
X0258514Y0044974D01*
X0261874Y0048334D01*
X0261874Y0096014D01*
X0258697Y0099191D01*
X0257780Y0098274D01*
X0256089Y0097574D01*
X0248259Y0097574D01*
X0246568Y0098274D01*
X0245274Y0099568D01*
X0244574Y0101259D01*
X0244574Y0103089D01*
X0245274Y0104780D01*
X0246568Y0106074D01*
X0248259Y0106774D01*
X0256089Y0106774D01*
X0257780Y0106074D01*
X0258879Y0104974D01*
X0260231Y0104974D01*
X0261260Y0104548D01*
X0262048Y0103760D01*
X0267048Y0098760D01*
X0267474Y0097731D01*
X0267474Y0046617D01*
X0267048Y0045588D01*
X0266260Y0044800D01*
X0262048Y0040588D01*
X0261260Y0039800D01*
X0260231Y0039374D01*
X0256379Y0039374D01*
X0255280Y0038274D01*
X0253589Y0037574D01*
X0246534Y0037574D01*
X0245716Y0036756D01*
X0245759Y0036774D01*
X0253589Y0036774D01*
X0254796Y0036274D01*
X0257976Y0036274D01*
X0268074Y0046372D01*
X0268074Y0102976D01*
X0262976Y0108074D01*
X0257296Y0108074D01*
X0256089Y0107574D01*
X0248259Y0107574D01*
X0246568Y0108274D01*
X0245274Y0109568D01*
X0244574Y0111259D01*
X0244574Y0113089D01*
X0245274Y0114780D01*
X0246568Y0116074D01*
X0248259Y0116774D01*
X0256089Y0116774D01*
X0257296Y0116274D01*
X0265490Y0116274D01*
X0266996Y0115650D01*
X0268150Y0114496D01*
X0275650Y0106996D01*
X0276274Y0105490D01*
X0276274Y0043858D01*
X0275650Y0042352D01*
X0274496Y0041198D01*
X0274496Y0041198D01*
X0263905Y0030607D01*
X0265384Y0031461D01*
X0268107Y0032191D01*
X0270926Y0032191D01*
X0273649Y0031461D01*
X0276090Y0030052D01*
X0276528Y0029614D01*
X0276528Y0164931D01*
X0276090Y0164493D01*
X0273649Y0163084D01*
X0270926Y0162354D01*
X0268107Y0162354D01*
X0265384Y0163084D01*
X0262943Y0164493D01*
X0260950Y0166487D01*
X0259541Y0168928D01*
X0258811Y0171650D01*
X0258811Y0174469D01*
X0259541Y0177192D01*
X0260950Y0179633D01*
X0261388Y0180071D01*
X0029614Y0180071D01*
X0030052Y0179633D01*
X0031461Y0177192D01*
X0032191Y0174469D01*
X0032191Y0171650D01*
X0031461Y0168928D01*
X0030052Y0166487D01*
X0028058Y0164493D01*
X0025617Y0163084D01*
X0022894Y0162354D01*
X0020076Y0162354D01*
X0017353Y0163084D01*
X0014912Y0164493D01*
X0014474Y0164931D01*
X0014474Y0135913D01*
X0014912Y0136351D01*
X0017353Y0137760D01*
X0020076Y0138490D01*
X0022894Y0138490D01*
X0025617Y0137760D01*
X0028058Y0136351D01*
X0030052Y0134358D01*
X0031461Y0131916D01*
X0032191Y0129194D01*
X0032191Y0126375D01*
X0031461Y0123652D01*
X0030052Y0121211D01*
X0028058Y0119218D01*
X0025617Y0117808D01*
X0022894Y0117079D01*
X0020076Y0117079D01*
X0017353Y0117808D01*
X0014912Y0119218D01*
X0014474Y0119655D01*
X0014474Y0033551D01*
X0014912Y0033989D01*
X0017353Y0035398D01*
X0020076Y0036128D01*
X0022894Y0036128D01*
X0025617Y0035398D01*
X0028058Y0033989D01*
X0030052Y0031995D01*
X0031461Y0029554D01*
X0032191Y0026831D01*
X0032191Y0024013D01*
X0031461Y0021290D01*
X0030052Y0018849D01*
X0028058Y0016855D01*
X0025617Y0015446D01*
X0022894Y0014717D01*
X0020076Y0014717D01*
X0017353Y0015446D01*
X0014912Y0016855D01*
X0014474Y0017293D01*
X0014474Y0016068D02*
X0016276Y0016068D01*
X0026694Y0016068D02*
X0138323Y0016068D01*
X0139400Y0015446D02*
X0142123Y0014717D01*
X0144942Y0014717D01*
X0147664Y0015446D01*
X0150106Y0016855D01*
X0152099Y0018849D01*
X0153508Y0021290D01*
X0154238Y0024013D01*
X0154238Y0026831D01*
X0153508Y0029554D01*
X0152099Y0031995D01*
X0150106Y0033989D01*
X0147664Y0035398D01*
X0144942Y0036128D01*
X0142123Y0036128D01*
X0139400Y0035398D01*
X0136959Y0033989D01*
X0134966Y0031995D01*
X0133556Y0029554D01*
X0132827Y0026831D01*
X0132827Y0024013D01*
X0133556Y0021290D01*
X0134966Y0018849D01*
X0136959Y0016855D01*
X0139400Y0015446D01*
X0136148Y0017667D02*
X0028869Y0017667D01*
X0030292Y0019265D02*
X0134725Y0019265D01*
X0133802Y0020864D02*
X0031215Y0020864D01*
X0031775Y0022462D02*
X0133242Y0022462D01*
X0132827Y0024061D02*
X0032191Y0024061D01*
X0032191Y0025659D02*
X0132827Y0025659D01*
X0132941Y0027258D02*
X0032076Y0027258D01*
X0031648Y0028856D02*
X0133369Y0028856D01*
X0134076Y0030455D02*
X0030941Y0030455D01*
X0029994Y0032053D02*
X0135024Y0032053D01*
X0136622Y0033652D02*
X0028395Y0033652D01*
X0025873Y0035250D02*
X0139144Y0035250D01*
X0147920Y0035250D02*
X0156905Y0035250D01*
X0156874Y0035052D02*
X0156874Y0034874D01*
X0164474Y0034874D01*
X0164474Y0034474D01*
X0164874Y0034474D01*
X0164874Y0029874D01*
X0168052Y0029874D01*
X0168798Y0029992D01*
X0169517Y0030226D01*
X0170190Y0030569D01*
X0170801Y0031013D01*
X0171335Y0031547D01*
X0171779Y0032158D01*
X0172122Y0032831D01*
X0172356Y0033550D01*
X0172474Y0034296D01*
X0172474Y0034474D01*
X0164874Y0034474D01*
X0164874Y0034874D01*
X0164474Y0034874D01*
X0164474Y0039474D01*
X0161296Y0039474D01*
X0160550Y0039356D01*
X0159831Y0039122D01*
X0159158Y0038779D01*
X0158547Y0038335D01*
X0158013Y0037801D01*
X0157569Y0037190D01*
X0157226Y0036517D01*
X0156992Y0035798D01*
X0156874Y0035052D01*
X0156874Y0034474D02*
X0156874Y0034296D01*
X0156992Y0033550D01*
X0157226Y0032831D01*
X0157569Y0032158D01*
X0158013Y0031547D01*
X0158547Y0031013D01*
X0159158Y0030569D01*
X0159831Y0030226D01*
X0160550Y0029992D01*
X0161296Y0029874D01*
X0164474Y0029874D01*
X0164474Y0034474D01*
X0156874Y0034474D01*
X0156976Y0033652D02*
X0150443Y0033652D01*
X0152041Y0032053D02*
X0157645Y0032053D01*
X0159382Y0030455D02*
X0152988Y0030455D01*
X0153695Y0028856D02*
X0159750Y0028856D01*
X0159068Y0028574D02*
X0157774Y0027280D01*
X0157074Y0025589D01*
X0157074Y0023759D01*
X0157774Y0022068D01*
X0159068Y0020774D01*
X0160759Y0020074D01*
X0168589Y0020074D01*
X0170280Y0020774D01*
X0171574Y0022068D01*
X0172274Y0023759D01*
X0172274Y0025589D01*
X0171574Y0027280D01*
X0170280Y0028574D01*
X0168589Y0029274D01*
X0160759Y0029274D01*
X0159068Y0028574D01*
X0157765Y0027258D02*
X0154124Y0027258D01*
X0154238Y0025659D02*
X0157103Y0025659D01*
X0157074Y0024061D02*
X0154238Y0024061D01*
X0153822Y0022462D02*
X0157611Y0022462D01*
X0158979Y0020864D02*
X0153262Y0020864D01*
X0152339Y0019265D02*
X0181785Y0019265D01*
X0180779Y0020864D02*
X0170369Y0020864D01*
X0171737Y0022462D02*
X0180574Y0022462D01*
X0180574Y0024061D02*
X0172274Y0024061D01*
X0172245Y0025659D02*
X0180574Y0025659D01*
X0180574Y0027258D02*
X0171583Y0027258D01*
X0169598Y0028856D02*
X0180574Y0028856D01*
X0180574Y0030455D02*
X0169966Y0030455D01*
X0171703Y0032053D02*
X0180574Y0032053D01*
X0180574Y0033652D02*
X0172372Y0033652D01*
X0172474Y0034874D02*
X0172474Y0035052D01*
X0172356Y0035798D01*
X0172122Y0036517D01*
X0171779Y0037190D01*
X0171335Y0037801D01*
X0170801Y0038335D01*
X0170190Y0038779D01*
X0169517Y0039122D01*
X0168798Y0039356D01*
X0168052Y0039474D01*
X0164874Y0039474D01*
X0164874Y0034874D01*
X0172474Y0034874D01*
X0172443Y0035250D02*
X0180574Y0035250D01*
X0180574Y0036849D02*
X0171953Y0036849D01*
X0170647Y0038447D02*
X0180574Y0038447D01*
X0180574Y0040046D02*
X0014474Y0040046D01*
X0014474Y0041644D02*
X0158198Y0041644D01*
X0157774Y0042068D02*
X0157074Y0043759D01*
X0157074Y0045589D01*
X0157774Y0047280D01*
X0159068Y0048574D01*
X0160759Y0049274D01*
X0168589Y0049274D01*
X0170280Y0048574D01*
X0171574Y0047280D01*
X0172274Y0045589D01*
X0172274Y0043759D01*
X0171574Y0042068D01*
X0170280Y0040774D01*
X0168589Y0040074D01*
X0160759Y0040074D01*
X0159068Y0040774D01*
X0157774Y0042068D01*
X0157288Y0043243D02*
X0014474Y0043243D01*
X0014474Y0044841D02*
X0157074Y0044841D01*
X0157426Y0046440D02*
X0014474Y0046440D01*
X0014474Y0048038D02*
X0158533Y0048038D01*
X0170815Y0048038D02*
X0180511Y0048038D01*
X0180574Y0046440D02*
X0171922Y0046440D01*
X0172274Y0044841D02*
X0180574Y0044841D01*
X0180574Y0043243D02*
X0172060Y0043243D01*
X0171150Y0041644D02*
X0180574Y0041644D01*
X0188774Y0041644D02*
X0218198Y0041644D01*
X0217774Y0042068D02*
X0217074Y0043759D01*
X0217074Y0045589D01*
X0217774Y0047280D01*
X0219068Y0048574D01*
X0220759Y0049274D01*
X0228589Y0049274D01*
X0230280Y0048574D01*
X0231574Y0047280D01*
X0231874Y0046555D01*
X0231874Y0047731D01*
X0232300Y0048760D01*
X0235714Y0052174D01*
X0235588Y0052300D01*
X0234800Y0053088D01*
X0234374Y0054117D01*
X0234374Y0087731D01*
X0234800Y0088760D01*
X0235588Y0089548D01*
X0235588Y0089548D01*
X0239800Y0093760D01*
X0239800Y0093760D01*
X0240588Y0094548D01*
X0241617Y0094974D01*
X0245469Y0094974D01*
X0246568Y0096074D01*
X0248259Y0096774D01*
X0256089Y0096774D01*
X0257780Y0096074D01*
X0259074Y0094780D01*
X0259774Y0093089D01*
X0259774Y0091259D01*
X0259074Y0089568D01*
X0257780Y0088274D01*
X0256089Y0087574D01*
X0248259Y0087574D01*
X0246568Y0088274D01*
X0245469Y0089374D01*
X0243334Y0089374D01*
X0239974Y0086014D01*
X0239974Y0055834D01*
X0240834Y0054974D01*
X0242969Y0054974D01*
X0244068Y0056074D01*
X0245759Y0056774D01*
X0253589Y0056774D01*
X0255280Y0056074D01*
X0256574Y0054780D01*
X0257274Y0053089D01*
X0257274Y0051259D01*
X0256574Y0049568D01*
X0255280Y0048274D01*
X0253589Y0047574D01*
X0245759Y0047574D01*
X0244068Y0048274D01*
X0242969Y0049374D01*
X0240834Y0049374D01*
X0237474Y0046014D01*
X0237474Y0039117D01*
X0237048Y0038088D01*
X0236260Y0037300D01*
X0231959Y0033000D01*
X0231574Y0032068D01*
X0230280Y0030774D01*
X0228589Y0030074D01*
X0220759Y0030074D01*
X0219068Y0030774D01*
X0217774Y0032068D01*
X0217074Y0033759D01*
X0217074Y0035589D01*
X0217774Y0037280D01*
X0219068Y0038574D01*
X0220759Y0039274D01*
X0228589Y0039274D01*
X0229809Y0038769D01*
X0231874Y0040834D01*
X0231874Y0042793D01*
X0231574Y0042068D01*
X0230280Y0040774D01*
X0228589Y0040074D01*
X0220759Y0040074D01*
X0219068Y0040774D01*
X0217774Y0042068D01*
X0217288Y0043243D02*
X0188774Y0043243D01*
X0188774Y0044841D02*
X0217074Y0044841D01*
X0217426Y0046440D02*
X0188774Y0046440D01*
X0188774Y0048038D02*
X0218533Y0048038D01*
X0219831Y0050226D02*
X0220550Y0049992D01*
X0221296Y0049874D01*
X0224474Y0049874D01*
X0224474Y0054474D01*
X0224874Y0054474D01*
X0224874Y0049874D01*
X0228052Y0049874D01*
X0228798Y0049992D01*
X0229517Y0050226D01*
X0230190Y0050569D01*
X0230801Y0051013D01*
X0231335Y0051547D01*
X0231779Y0052158D01*
X0232122Y0052831D01*
X0232356Y0053550D01*
X0232474Y0054296D01*
X0232474Y0054474D01*
X0224874Y0054474D01*
X0224874Y0054874D01*
X0224474Y0054874D01*
X0224474Y0054474D01*
X0216874Y0054474D01*
X0216874Y0054296D01*
X0216992Y0053550D01*
X0217226Y0052831D01*
X0217569Y0052158D01*
X0218013Y0051547D01*
X0218547Y0051013D01*
X0219158Y0050569D01*
X0219831Y0050226D01*
X0218324Y0051235D02*
X0188465Y0051235D01*
X0188774Y0049637D02*
X0233177Y0049637D01*
X0232001Y0048038D02*
X0230815Y0048038D01*
X0231024Y0051235D02*
X0234776Y0051235D01*
X0235054Y0052834D02*
X0232123Y0052834D01*
X0232474Y0054432D02*
X0234374Y0054432D01*
X0234374Y0056031D02*
X0232280Y0056031D01*
X0232356Y0055798D02*
X0232122Y0056517D01*
X0231779Y0057190D01*
X0231335Y0057801D01*
X0230801Y0058335D01*
X0230190Y0058779D01*
X0229517Y0059122D01*
X0228798Y0059356D01*
X0228052Y0059474D01*
X0224874Y0059474D01*
X0224874Y0054874D01*
X0232474Y0054874D01*
X0232474Y0055052D01*
X0232356Y0055798D01*
X0231460Y0057629D02*
X0234374Y0057629D01*
X0234374Y0059228D02*
X0229192Y0059228D01*
X0228589Y0060074D02*
X0230280Y0060774D01*
X0231574Y0062068D01*
X0232274Y0063759D01*
X0232274Y0065589D01*
X0231574Y0067280D01*
X0230280Y0068574D01*
X0228589Y0069274D01*
X0220759Y0069274D01*
X0219068Y0068574D01*
X0217774Y0067280D01*
X0217074Y0065589D01*
X0217074Y0063759D01*
X0217774Y0062068D01*
X0219068Y0060774D01*
X0220759Y0060074D01*
X0228589Y0060074D01*
X0230332Y0060826D02*
X0234374Y0060826D01*
X0234374Y0062425D02*
X0231721Y0062425D01*
X0232274Y0064023D02*
X0234374Y0064023D01*
X0234374Y0065622D02*
X0232260Y0065622D01*
X0231598Y0067220D02*
X0234374Y0067220D01*
X0234374Y0068819D02*
X0229688Y0068819D01*
X0229418Y0070417D02*
X0234374Y0070417D01*
X0234374Y0072016D02*
X0231521Y0072016D01*
X0231574Y0072068D02*
X0232274Y0073759D01*
X0232274Y0075589D01*
X0231574Y0077280D01*
X0230280Y0078574D01*
X0228589Y0079274D01*
X0220759Y0079274D01*
X0219068Y0078574D01*
X0217774Y0077280D01*
X0217074Y0075589D01*
X0217074Y0073759D01*
X0217774Y0072068D01*
X0219068Y0070774D01*
X0220759Y0070074D01*
X0228589Y0070074D01*
X0230280Y0070774D01*
X0231574Y0072068D01*
X0232214Y0073614D02*
X0234374Y0073614D01*
X0234374Y0075213D02*
X0232274Y0075213D01*
X0231768Y0076811D02*
X0234374Y0076811D01*
X0234374Y0078410D02*
X0230443Y0078410D01*
X0230280Y0080774D02*
X0228589Y0080074D01*
X0220759Y0080074D01*
X0219068Y0080774D01*
X0217774Y0082068D01*
X0217074Y0083759D01*
X0217074Y0085589D01*
X0217774Y0087280D01*
X0219068Y0088574D01*
X0220759Y0089274D01*
X0228589Y0089274D01*
X0230280Y0088574D01*
X0231574Y0087280D01*
X0232274Y0085589D01*
X0232274Y0083759D01*
X0231574Y0082068D01*
X0230280Y0080774D01*
X0231112Y0081607D02*
X0234374Y0081607D01*
X0234374Y0080009D02*
X0100138Y0080009D01*
X0098539Y0081607D02*
X0158236Y0081607D01*
X0157969Y0081874D02*
X0159068Y0080774D01*
X0160759Y0080074D01*
X0168589Y0080074D01*
X0170280Y0080774D01*
X0171574Y0082068D01*
X0172274Y0083759D01*
X0172274Y0085589D01*
X0171574Y0087280D01*
X0170280Y0088574D01*
X0168589Y0089274D01*
X0160759Y0089274D01*
X0159068Y0088574D01*
X0157969Y0087474D01*
X0133334Y0087474D01*
X0089974Y0130834D01*
X0089974Y0142969D01*
X0091074Y0144068D01*
X0091774Y0145759D01*
X0091774Y0153589D01*
X0091074Y0155280D01*
X0089780Y0156574D01*
X0088089Y0157274D01*
X0086259Y0157274D01*
X0084568Y0156574D01*
X0083274Y0155280D01*
X0082574Y0153589D01*
X0082574Y0145759D01*
X0083274Y0144068D01*
X0084374Y0142969D01*
X0084374Y0129117D01*
X0084800Y0128088D01*
X0085588Y0127300D01*
X0130588Y0082300D01*
X0131617Y0081874D01*
X0157969Y0081874D01*
X0159068Y0078574D02*
X0160759Y0079274D01*
X0168589Y0079274D01*
X0170280Y0078574D01*
X0171574Y0077280D01*
X0172274Y0075589D01*
X0172274Y0073759D01*
X0171574Y0072068D01*
X0170280Y0070774D01*
X0168589Y0070074D01*
X0160759Y0070074D01*
X0159068Y0070774D01*
X0157774Y0072068D01*
X0157074Y0073759D01*
X0157074Y0075589D01*
X0157774Y0077280D01*
X0159068Y0078574D01*
X0158905Y0078410D02*
X0101736Y0078410D01*
X0103335Y0076811D02*
X0157580Y0076811D01*
X0157074Y0075213D02*
X0104933Y0075213D01*
X0106532Y0073614D02*
X0157134Y0073614D01*
X0157827Y0072016D02*
X0108130Y0072016D01*
X0109729Y0070417D02*
X0159930Y0070417D01*
X0160759Y0069274D02*
X0159068Y0068574D01*
X0157774Y0067280D01*
X0157074Y0065589D01*
X0157074Y0063759D01*
X0157774Y0062068D01*
X0159068Y0060774D01*
X0160759Y0060074D01*
X0168589Y0060074D01*
X0170280Y0060774D01*
X0171574Y0062068D01*
X0172274Y0063759D01*
X0172274Y0065589D01*
X0171574Y0067280D01*
X0170280Y0068574D01*
X0168589Y0069274D01*
X0160759Y0069274D01*
X0159660Y0068819D02*
X0111327Y0068819D01*
X0112926Y0067220D02*
X0157750Y0067220D01*
X0157088Y0065622D02*
X0114524Y0065622D01*
X0116123Y0064023D02*
X0157074Y0064023D01*
X0157627Y0062425D02*
X0117721Y0062425D01*
X0119320Y0060826D02*
X0159016Y0060826D01*
X0160648Y0059228D02*
X0120918Y0059228D01*
X0115716Y0052834D02*
X0014474Y0052834D01*
X0014474Y0054432D02*
X0114117Y0054432D01*
X0112519Y0056031D02*
X0014474Y0056031D01*
X0014474Y0057629D02*
X0110920Y0057629D01*
X0109322Y0059228D02*
X0014474Y0059228D01*
X0014474Y0060826D02*
X0107723Y0060826D01*
X0106125Y0062425D02*
X0014474Y0062425D01*
X0014474Y0064023D02*
X0104526Y0064023D01*
X0102928Y0065622D02*
X0014474Y0065622D01*
X0014474Y0067220D02*
X0101329Y0067220D01*
X0099731Y0068819D02*
X0014474Y0068819D01*
X0014474Y0070417D02*
X0098132Y0070417D01*
X0096534Y0072016D02*
X0014474Y0072016D01*
X0014474Y0073614D02*
X0094935Y0073614D01*
X0093337Y0075213D02*
X0014474Y0075213D01*
X0014474Y0076811D02*
X0091738Y0076811D01*
X0090140Y0078410D02*
X0014474Y0078410D01*
X0014474Y0080009D02*
X0088541Y0080009D01*
X0086943Y0081607D02*
X0014474Y0081607D01*
X0014474Y0083206D02*
X0085344Y0083206D01*
X0083746Y0084804D02*
X0014474Y0084804D01*
X0014474Y0086403D02*
X0082147Y0086403D01*
X0080549Y0088001D02*
X0014474Y0088001D01*
X0014474Y0089600D02*
X0078950Y0089600D01*
X0077352Y0091198D02*
X0014474Y0091198D01*
X0014474Y0092797D02*
X0075753Y0092797D01*
X0074155Y0094395D02*
X0014474Y0094395D01*
X0014474Y0095994D02*
X0072556Y0095994D01*
X0070958Y0097592D02*
X0014474Y0097592D01*
X0014474Y0099191D02*
X0069359Y0099191D01*
X0067761Y0100789D02*
X0014474Y0100789D01*
X0014474Y0102388D02*
X0066162Y0102388D01*
X0064564Y0103986D02*
X0014474Y0103986D01*
X0014474Y0105585D02*
X0062965Y0105585D01*
X0061367Y0107183D02*
X0014474Y0107183D01*
X0014474Y0108782D02*
X0059768Y0108782D01*
X0058170Y0110380D02*
X0014474Y0110380D01*
X0014474Y0111979D02*
X0056571Y0111979D01*
X0054973Y0113577D02*
X0014474Y0113577D01*
X0014474Y0115176D02*
X0053374Y0115176D01*
X0051775Y0116774D02*
X0014474Y0116774D01*
X0014474Y0118373D02*
X0016375Y0118373D01*
X0026595Y0118373D02*
X0050177Y0118373D01*
X0048578Y0119971D02*
X0028812Y0119971D01*
X0030259Y0121570D02*
X0046980Y0121570D01*
X0045860Y0123168D02*
X0031182Y0123168D01*
X0031760Y0124767D02*
X0045574Y0124767D01*
X0045574Y0126365D02*
X0032188Y0126365D01*
X0032191Y0127964D02*
X0045574Y0127964D01*
X0045574Y0129562D02*
X0032092Y0129562D01*
X0031663Y0131161D02*
X0045574Y0131161D01*
X0045574Y0132759D02*
X0030974Y0132759D01*
X0030051Y0134358D02*
X0045574Y0134358D01*
X0045574Y0135956D02*
X0028453Y0135956D01*
X0025973Y0137555D02*
X0045574Y0137555D01*
X0045574Y0139153D02*
X0014474Y0139153D01*
X0014474Y0137555D02*
X0016997Y0137555D01*
X0014517Y0135956D02*
X0014474Y0135956D01*
X0014474Y0140752D02*
X0045574Y0140752D01*
X0045574Y0142350D02*
X0041256Y0142350D01*
X0043454Y0143949D02*
X0045574Y0143949D01*
X0045162Y0145547D02*
X0044186Y0145547D01*
X0038092Y0142350D02*
X0031256Y0142350D01*
X0033454Y0143949D02*
X0035894Y0143949D01*
X0035162Y0145547D02*
X0034186Y0145547D01*
X0028092Y0142350D02*
X0021256Y0142350D01*
X0023454Y0143949D02*
X0025894Y0143949D01*
X0025162Y0145547D02*
X0024186Y0145547D01*
X0018092Y0142350D02*
X0014474Y0142350D01*
X0014474Y0143949D02*
X0015894Y0143949D01*
X0015162Y0145547D02*
X0014474Y0145547D01*
X0014474Y0147146D02*
X0015074Y0147146D01*
X0015074Y0148745D02*
X0014474Y0148745D01*
X0014474Y0150343D02*
X0015074Y0150343D01*
X0015074Y0151942D02*
X0014474Y0151942D01*
X0014474Y0153540D02*
X0015074Y0153540D01*
X0014474Y0155139D02*
X0015716Y0155139D01*
X0014474Y0156737D02*
X0017463Y0156737D01*
X0014474Y0158336D02*
X0045574Y0158336D01*
X0045574Y0159934D02*
X0041926Y0159934D01*
X0042190Y0160069D02*
X0042801Y0160513D01*
X0043335Y0161047D01*
X0043779Y0161658D01*
X0044122Y0162331D01*
X0044356Y0163050D01*
X0044474Y0163796D01*
X0044474Y0166974D01*
X0039874Y0166974D01*
X0039874Y0159374D01*
X0040052Y0159374D01*
X0040798Y0159492D01*
X0041517Y0159726D01*
X0042190Y0160069D01*
X0043688Y0161533D02*
X0045574Y0161533D01*
X0045127Y0163131D02*
X0044369Y0163131D01*
X0044474Y0164730D02*
X0045074Y0164730D01*
X0045074Y0166328D02*
X0044474Y0166328D01*
X0044474Y0167374D02*
X0044474Y0170552D01*
X0044356Y0171298D01*
X0044122Y0172017D01*
X0043779Y0172690D01*
X0043335Y0173301D01*
X0042801Y0173835D01*
X0042190Y0174279D01*
X0041517Y0174622D01*
X0040798Y0174856D01*
X0040052Y0174974D01*
X0039874Y0174974D01*
X0039874Y0167374D01*
X0044474Y0167374D01*
X0044474Y0167927D02*
X0045074Y0167927D01*
X0045074Y0169525D02*
X0044474Y0169525D01*
X0044383Y0171124D02*
X0045088Y0171124D01*
X0045751Y0172722D02*
X0043756Y0172722D01*
X0042109Y0174321D02*
X0047665Y0174321D01*
X0051683Y0174321D02*
X0064739Y0174321D01*
X0064658Y0174279D02*
X0064047Y0173835D01*
X0063513Y0173301D01*
X0063069Y0172690D01*
X0062726Y0172017D01*
X0062492Y0171298D01*
X0062374Y0170552D01*
X0062374Y0167374D01*
X0066974Y0167374D01*
X0066974Y0166974D01*
X0067374Y0166974D01*
X0067374Y0159374D01*
X0067552Y0159374D01*
X0068298Y0159492D01*
X0069017Y0159726D01*
X0069690Y0160069D01*
X0070301Y0160513D01*
X0070835Y0161047D01*
X0071279Y0161658D01*
X0071622Y0162331D01*
X0071856Y0163050D01*
X0071974Y0163796D01*
X0071974Y0166974D01*
X0067374Y0166974D01*
X0067374Y0167374D01*
X0071974Y0167374D01*
X0071974Y0170552D01*
X0071856Y0171298D01*
X0071622Y0172017D01*
X0071279Y0172690D01*
X0070835Y0173301D01*
X0070301Y0173835D01*
X0069690Y0174279D01*
X0069017Y0174622D01*
X0068298Y0174856D01*
X0067552Y0174974D01*
X0067374Y0174974D01*
X0067374Y0167374D01*
X0066974Y0167374D01*
X0066974Y0174974D01*
X0066796Y0174974D01*
X0066050Y0174856D01*
X0065331Y0174622D01*
X0064658Y0174279D01*
X0063092Y0172722D02*
X0053598Y0172722D01*
X0054260Y0171124D02*
X0062465Y0171124D01*
X0062374Y0169525D02*
X0054274Y0169525D01*
X0054274Y0167927D02*
X0062374Y0167927D01*
X0062374Y0166974D02*
X0062374Y0163796D01*
X0062492Y0163050D01*
X0062726Y0162331D01*
X0063069Y0161658D01*
X0063513Y0161047D01*
X0064047Y0160513D01*
X0064658Y0160069D01*
X0065331Y0159726D01*
X0066050Y0159492D01*
X0066796Y0159374D01*
X0066974Y0159374D01*
X0066974Y0166974D01*
X0062374Y0166974D01*
X0062374Y0166328D02*
X0054274Y0166328D01*
X0054274Y0164730D02*
X0062374Y0164730D01*
X0062479Y0163131D02*
X0054221Y0163131D01*
X0053774Y0161533D02*
X0063160Y0161533D01*
X0064922Y0159934D02*
X0053774Y0159934D01*
X0053774Y0158336D02*
X0124374Y0158336D01*
X0124374Y0159934D02*
X0119426Y0159934D01*
X0119690Y0160069D02*
X0120301Y0160513D01*
X0120835Y0161047D01*
X0121279Y0161658D01*
X0121622Y0162331D01*
X0121856Y0163050D01*
X0121974Y0163796D01*
X0121974Y0166974D01*
X0117374Y0166974D01*
X0117374Y0159374D01*
X0117552Y0159374D01*
X0118298Y0159492D01*
X0119017Y0159726D01*
X0119690Y0160069D01*
X0121188Y0161533D02*
X0124374Y0161533D01*
X0124374Y0163131D02*
X0121869Y0163131D01*
X0121974Y0164730D02*
X0124374Y0164730D01*
X0124374Y0166328D02*
X0121974Y0166328D01*
X0121974Y0167374D02*
X0121974Y0170552D01*
X0121856Y0171298D01*
X0121622Y0172017D01*
X0121279Y0172690D01*
X0120835Y0173301D01*
X0120301Y0173835D01*
X0119690Y0174279D01*
X0119017Y0174622D01*
X0118298Y0174856D01*
X0117552Y0174974D01*
X0117374Y0174974D01*
X0117374Y0167374D01*
X0121974Y0167374D01*
X0121974Y0167927D02*
X0124374Y0167927D01*
X0124374Y0169525D02*
X0121974Y0169525D01*
X0121883Y0171124D02*
X0124744Y0171124D01*
X0124800Y0171260D02*
X0124374Y0170231D01*
X0124374Y0156379D01*
X0123274Y0155280D01*
X0122574Y0153589D01*
X0122574Y0145759D01*
X0123274Y0144068D01*
X0124568Y0142774D01*
X0126259Y0142074D01*
X0128089Y0142074D01*
X0129780Y0142774D01*
X0131074Y0144068D01*
X0131774Y0145759D01*
X0131774Y0153589D01*
X0131074Y0155280D01*
X0129974Y0156379D01*
X0129974Y0168514D01*
X0133334Y0171874D01*
X0171014Y0171874D01*
X0176874Y0166014D01*
X0176874Y0133334D01*
X0171197Y0127657D01*
X0170280Y0128574D01*
X0168589Y0129274D01*
X0160759Y0129274D01*
X0159068Y0128574D01*
X0157774Y0127280D01*
X0157074Y0125589D01*
X0157074Y0123759D01*
X0157774Y0122068D01*
X0159068Y0120774D01*
X0160759Y0120074D01*
X0168589Y0120074D01*
X0170280Y0120774D01*
X0171379Y0121874D01*
X0172731Y0121874D01*
X0173760Y0122300D01*
X0181260Y0129800D01*
X0182048Y0130588D01*
X0182474Y0131617D01*
X0182474Y0167731D01*
X0182048Y0168760D01*
X0174548Y0176260D01*
X0173760Y0177048D01*
X0172731Y0177474D01*
X0131617Y0177474D01*
X0130588Y0177048D01*
X0125588Y0172048D01*
X0124800Y0171260D01*
X0126262Y0172722D02*
X0121256Y0172722D01*
X0119609Y0174321D02*
X0127861Y0174321D01*
X0129459Y0175919D02*
X0031802Y0175919D01*
X0032191Y0174321D02*
X0037239Y0174321D01*
X0037158Y0174279D02*
X0036547Y0173835D01*
X0036013Y0173301D01*
X0035569Y0172690D01*
X0035226Y0172017D01*
X0034992Y0171298D01*
X0034874Y0170552D01*
X0034874Y0167374D01*
X0039474Y0167374D01*
X0039474Y0166974D01*
X0039874Y0166974D01*
X0039874Y0167374D01*
X0039474Y0167374D01*
X0039474Y0174974D01*
X0039296Y0174974D01*
X0038550Y0174856D01*
X0037831Y0174622D01*
X0037158Y0174279D01*
X0035592Y0172722D02*
X0032191Y0172722D01*
X0032049Y0171124D02*
X0034965Y0171124D01*
X0034874Y0169525D02*
X0031621Y0169525D01*
X0030883Y0167927D02*
X0034874Y0167927D01*
X0034874Y0166974D02*
X0034874Y0163796D01*
X0034992Y0163050D01*
X0035226Y0162331D01*
X0035569Y0161658D01*
X0036013Y0161047D01*
X0036547Y0160513D01*
X0037158Y0160069D01*
X0037831Y0159726D01*
X0038550Y0159492D01*
X0039296Y0159374D01*
X0039474Y0159374D01*
X0039474Y0166974D01*
X0034874Y0166974D01*
X0034874Y0166328D02*
X0029893Y0166328D01*
X0028295Y0164730D02*
X0034874Y0164730D01*
X0034979Y0163131D02*
X0025699Y0163131D01*
X0017271Y0163131D02*
X0014474Y0163131D01*
X0014474Y0161533D02*
X0035660Y0161533D01*
X0037422Y0159934D02*
X0014474Y0159934D01*
X0021885Y0156737D02*
X0027463Y0156737D01*
X0025716Y0155139D02*
X0023632Y0155139D01*
X0024274Y0153540D02*
X0025074Y0153540D01*
X0031885Y0156737D02*
X0037463Y0156737D01*
X0035716Y0155139D02*
X0033632Y0155139D01*
X0034274Y0153540D02*
X0035074Y0153540D01*
X0041885Y0156737D02*
X0045574Y0156737D01*
X0045574Y0155139D02*
X0043632Y0155139D01*
X0044274Y0153540D02*
X0045074Y0153540D01*
X0039874Y0159934D02*
X0039474Y0159934D01*
X0039474Y0161533D02*
X0039874Y0161533D01*
X0039874Y0163131D02*
X0039474Y0163131D01*
X0039474Y0164730D02*
X0039874Y0164730D01*
X0039874Y0166328D02*
X0039474Y0166328D01*
X0039474Y0167927D02*
X0039874Y0167927D01*
X0039874Y0169525D02*
X0039474Y0169525D01*
X0039474Y0171124D02*
X0039874Y0171124D01*
X0039874Y0172722D02*
X0039474Y0172722D01*
X0039474Y0174321D02*
X0039874Y0174321D01*
X0031273Y0177518D02*
X0259729Y0177518D01*
X0259200Y0175919D02*
X0174889Y0175919D01*
X0176487Y0174321D02*
X0258811Y0174321D01*
X0258811Y0172722D02*
X0178086Y0172722D01*
X0179684Y0171124D02*
X0258952Y0171124D01*
X0259380Y0169525D02*
X0181283Y0169525D01*
X0182393Y0167927D02*
X0218421Y0167927D01*
X0219068Y0168574D02*
X0217774Y0167280D01*
X0217074Y0165589D01*
X0217074Y0163759D01*
X0217774Y0162068D01*
X0219068Y0160774D01*
X0220759Y0160074D01*
X0228589Y0160074D01*
X0230280Y0160774D01*
X0231574Y0162068D01*
X0232274Y0163759D01*
X0232274Y0165589D01*
X0231574Y0167280D01*
X0230280Y0168574D01*
X0228589Y0169274D01*
X0220759Y0169274D01*
X0219068Y0168574D01*
X0217380Y0166328D02*
X0182474Y0166328D01*
X0182474Y0164730D02*
X0217074Y0164730D01*
X0217334Y0163131D02*
X0182474Y0163131D01*
X0182474Y0161533D02*
X0218310Y0161533D01*
X0219068Y0158574D02*
X0217774Y0157280D01*
X0217074Y0155589D01*
X0217074Y0153759D01*
X0217774Y0152068D01*
X0219068Y0150774D01*
X0220759Y0150074D01*
X0228589Y0150074D01*
X0230280Y0150774D01*
X0231574Y0152068D01*
X0231959Y0153000D01*
X0238334Y0159374D01*
X0242969Y0159374D01*
X0244068Y0158274D01*
X0245759Y0157574D01*
X0253589Y0157574D01*
X0255280Y0158274D01*
X0256574Y0159568D01*
X0257274Y0161259D01*
X0257274Y0163089D01*
X0256574Y0164780D01*
X0255280Y0166074D01*
X0253589Y0166774D01*
X0245759Y0166774D01*
X0244068Y0166074D01*
X0242969Y0164974D01*
X0236617Y0164974D01*
X0235588Y0164548D01*
X0234800Y0163760D01*
X0229809Y0158769D01*
X0228589Y0159274D01*
X0220759Y0159274D01*
X0219068Y0158574D01*
X0218830Y0158336D02*
X0182474Y0158336D01*
X0182474Y0159934D02*
X0230974Y0159934D01*
X0231038Y0161533D02*
X0232573Y0161533D01*
X0232014Y0163131D02*
X0234171Y0163131D01*
X0236027Y0164730D02*
X0232274Y0164730D01*
X0231968Y0166328D02*
X0244683Y0166328D01*
X0254665Y0166328D02*
X0261108Y0166328D01*
X0260119Y0167927D02*
X0230927Y0167927D01*
X0237295Y0158336D02*
X0244007Y0158336D01*
X0244068Y0156074D02*
X0245759Y0156774D01*
X0253589Y0156774D01*
X0255280Y0156074D01*
X0256574Y0154780D01*
X0257274Y0153089D01*
X0257274Y0151259D01*
X0256574Y0149568D01*
X0255280Y0148274D01*
X0253589Y0147574D01*
X0245759Y0147574D01*
X0244068Y0148274D01*
X0242969Y0149374D01*
X0238334Y0149374D01*
X0231959Y0143000D01*
X0231574Y0142068D01*
X0230280Y0140774D01*
X0228589Y0140074D01*
X0220759Y0140074D01*
X0219068Y0140774D01*
X0217774Y0142068D01*
X0217074Y0143759D01*
X0217074Y0145589D01*
X0217774Y0147280D01*
X0219068Y0148574D01*
X0220759Y0149274D01*
X0228589Y0149274D01*
X0229809Y0148769D01*
X0234800Y0153760D01*
X0235588Y0154548D01*
X0236617Y0154974D01*
X0242969Y0154974D01*
X0244068Y0156074D01*
X0243133Y0155139D02*
X0234098Y0155139D01*
X0234580Y0153540D02*
X0232500Y0153540D01*
X0232982Y0151942D02*
X0231447Y0151942D01*
X0231383Y0150343D02*
X0229238Y0150343D01*
X0234507Y0145547D02*
X0243542Y0145547D01*
X0244068Y0146074D02*
X0242969Y0144974D01*
X0236617Y0144974D01*
X0235588Y0144548D01*
X0234800Y0143760D01*
X0229809Y0138769D01*
X0228589Y0139274D01*
X0220759Y0139274D01*
X0219068Y0138574D01*
X0217774Y0137280D01*
X0217074Y0135589D01*
X0217074Y0133759D01*
X0217774Y0132068D01*
X0219068Y0130774D01*
X0220759Y0130074D01*
X0228589Y0130074D01*
X0230280Y0130774D01*
X0231574Y0132068D01*
X0231959Y0133000D01*
X0238334Y0139374D01*
X0242969Y0139374D01*
X0244068Y0138274D01*
X0245759Y0137574D01*
X0253589Y0137574D01*
X0255280Y0138274D01*
X0256574Y0139568D01*
X0257274Y0141259D01*
X0257274Y0143089D01*
X0256574Y0144780D01*
X0255280Y0146074D01*
X0253589Y0146774D01*
X0245759Y0146774D01*
X0244068Y0146074D01*
X0243598Y0148745D02*
X0237704Y0148745D01*
X0236106Y0147146D02*
X0276528Y0147146D01*
X0276528Y0148745D02*
X0255750Y0148745D01*
X0256895Y0150343D02*
X0276528Y0150343D01*
X0276528Y0151942D02*
X0257274Y0151942D01*
X0257087Y0153540D02*
X0276528Y0153540D01*
X0276528Y0155139D02*
X0256215Y0155139D01*
X0253678Y0156737D02*
X0276528Y0156737D01*
X0276528Y0158336D02*
X0255341Y0158336D01*
X0256725Y0159934D02*
X0276528Y0159934D01*
X0276528Y0161533D02*
X0257274Y0161533D01*
X0257257Y0163131D02*
X0265303Y0163131D01*
X0262707Y0164730D02*
X0256594Y0164730D01*
X0245670Y0156737D02*
X0235697Y0156737D01*
X0220110Y0150343D02*
X0182474Y0150343D01*
X0182474Y0148745D02*
X0219481Y0148745D01*
X0217719Y0147146D02*
X0182474Y0147146D01*
X0182474Y0145547D02*
X0217074Y0145547D01*
X0217074Y0143949D02*
X0182474Y0143949D01*
X0182474Y0142350D02*
X0217657Y0142350D01*
X0219122Y0140752D02*
X0182474Y0140752D01*
X0182474Y0139153D02*
X0220468Y0139153D01*
X0218050Y0137555D02*
X0182474Y0137555D01*
X0182474Y0135956D02*
X0217226Y0135956D01*
X0217074Y0134358D02*
X0182474Y0134358D01*
X0182474Y0132759D02*
X0217488Y0132759D01*
X0218682Y0131161D02*
X0182285Y0131161D01*
X0181022Y0129562D02*
X0230603Y0129562D01*
X0229809Y0128769D02*
X0228589Y0129274D01*
X0220759Y0129274D01*
X0219068Y0128574D01*
X0217774Y0127280D01*
X0217074Y0125589D01*
X0217074Y0123759D01*
X0217774Y0122068D01*
X0219068Y0120774D01*
X0220759Y0120074D01*
X0228589Y0120074D01*
X0230280Y0120774D01*
X0231574Y0122068D01*
X0231959Y0123000D01*
X0238334Y0129374D01*
X0242969Y0129374D01*
X0244068Y0128274D01*
X0245759Y0127574D01*
X0253589Y0127574D01*
X0255280Y0128274D01*
X0256574Y0129568D01*
X0257274Y0131259D01*
X0257274Y0133089D01*
X0256574Y0134780D01*
X0255280Y0136074D01*
X0253589Y0136774D01*
X0245759Y0136774D01*
X0244068Y0136074D01*
X0242969Y0134974D01*
X0236617Y0134974D01*
X0235588Y0134548D01*
X0234800Y0133760D01*
X0229809Y0128769D01*
X0230666Y0131161D02*
X0232201Y0131161D01*
X0231860Y0132759D02*
X0233800Y0132759D01*
X0233318Y0134358D02*
X0235398Y0134358D01*
X0234916Y0135956D02*
X0243951Y0135956D01*
X0243189Y0139153D02*
X0238113Y0139153D01*
X0236515Y0137555D02*
X0276528Y0137555D01*
X0276528Y0139153D02*
X0256159Y0139153D01*
X0257064Y0140752D02*
X0276528Y0140752D01*
X0276528Y0142350D02*
X0257274Y0142350D01*
X0256918Y0143949D02*
X0276528Y0143949D01*
X0276528Y0145547D02*
X0255806Y0145547D01*
X0255397Y0135956D02*
X0276528Y0135956D01*
X0276528Y0134358D02*
X0256748Y0134358D01*
X0257274Y0132759D02*
X0276528Y0132759D01*
X0276528Y0131161D02*
X0257233Y0131161D01*
X0256568Y0129562D02*
X0276528Y0129562D01*
X0276528Y0127964D02*
X0254530Y0127964D01*
X0244818Y0127964D02*
X0236924Y0127964D01*
X0235325Y0126365D02*
X0276528Y0126365D01*
X0276528Y0124767D02*
X0233727Y0124767D01*
X0232128Y0123168D02*
X0276528Y0123168D01*
X0276528Y0121570D02*
X0231075Y0121570D01*
X0230280Y0118574D02*
X0228589Y0119274D01*
X0220759Y0119274D01*
X0219068Y0118574D01*
X0217774Y0117280D01*
X0217074Y0115589D01*
X0217074Y0113759D01*
X0217774Y0112068D01*
X0219068Y0110774D01*
X0220759Y0110074D01*
X0228589Y0110074D01*
X0230280Y0110774D01*
X0231574Y0112068D01*
X0232274Y0113759D01*
X0232274Y0115589D01*
X0231574Y0117280D01*
X0230280Y0118574D01*
X0230481Y0118373D02*
X0276528Y0118373D01*
X0276528Y0119971D02*
X0150859Y0119971D01*
X0150106Y0119218D02*
X0152099Y0121211D01*
X0153508Y0123652D01*
X0154238Y0126375D01*
X0154238Y0129194D01*
X0153508Y0131916D01*
X0152099Y0134358D01*
X0150106Y0136351D01*
X0147664Y0137760D01*
X0144942Y0138490D01*
X0142123Y0138490D01*
X0139400Y0137760D01*
X0136959Y0136351D01*
X0134966Y0134358D01*
X0119974Y0134358D01*
X0119974Y0135956D02*
X0136565Y0135956D01*
X0134966Y0134358D02*
X0133556Y0131916D01*
X0132827Y0129194D01*
X0132827Y0126375D01*
X0133556Y0123652D01*
X0134966Y0121211D01*
X0136959Y0119218D01*
X0139400Y0117808D01*
X0142123Y0117079D01*
X0144942Y0117079D01*
X0147664Y0117808D01*
X0150106Y0119218D01*
X0148642Y0118373D02*
X0158867Y0118373D01*
X0159068Y0118574D02*
X0157969Y0117474D01*
X0156617Y0117474D01*
X0155588Y0117048D01*
X0153514Y0114974D01*
X0135834Y0114974D01*
X0119974Y0130834D01*
X0119974Y0142969D01*
X0121074Y0144068D01*
X0121774Y0145759D01*
X0121774Y0153589D01*
X0121074Y0155280D01*
X0119780Y0156574D01*
X0118089Y0157274D01*
X0116259Y0157274D01*
X0114568Y0156574D01*
X0113274Y0155280D01*
X0112574Y0153589D01*
X0112574Y0145759D01*
X0113274Y0144068D01*
X0114374Y0142969D01*
X0114374Y0129117D01*
X0114800Y0128088D01*
X0132300Y0110588D01*
X0133088Y0109800D01*
X0134117Y0109374D01*
X0155231Y0109374D01*
X0156260Y0109800D01*
X0157048Y0110588D01*
X0158151Y0111691D01*
X0159068Y0110774D01*
X0160759Y0110074D01*
X0168589Y0110074D01*
X0170280Y0110774D01*
X0171574Y0112068D01*
X0172274Y0113759D01*
X0172274Y0115589D01*
X0171574Y0117280D01*
X0170280Y0118574D01*
X0168589Y0119274D01*
X0160759Y0119274D01*
X0159068Y0118574D01*
X0155314Y0116774D02*
X0134034Y0116774D01*
X0135632Y0115176D02*
X0153716Y0115176D01*
X0156840Y0110380D02*
X0160020Y0110380D01*
X0160759Y0109274D02*
X0159068Y0108574D01*
X0157969Y0107474D01*
X0133334Y0107474D01*
X0109974Y0130834D01*
X0109974Y0142969D01*
X0111074Y0144068D01*
X0111774Y0145759D01*
X0111774Y0153589D01*
X0111074Y0155280D01*
X0109780Y0156574D01*
X0108089Y0157274D01*
X0106259Y0157274D01*
X0104568Y0156574D01*
X0103274Y0155280D01*
X0102574Y0153589D01*
X0102574Y0145759D01*
X0103274Y0144068D01*
X0104374Y0142969D01*
X0104374Y0129117D01*
X0104800Y0128088D01*
X0105588Y0127300D01*
X0130588Y0102300D01*
X0131617Y0101874D01*
X0157969Y0101874D01*
X0159068Y0100774D01*
X0160759Y0100074D01*
X0168589Y0100074D01*
X0170280Y0100774D01*
X0171574Y0102068D01*
X0172274Y0103759D01*
X0172274Y0105589D01*
X0171574Y0107280D01*
X0170280Y0108574D01*
X0168589Y0109274D01*
X0160759Y0109274D01*
X0159571Y0108782D02*
X0132026Y0108782D01*
X0132508Y0110380D02*
X0130428Y0110380D01*
X0130909Y0111979D02*
X0128829Y0111979D01*
X0129311Y0113577D02*
X0127231Y0113577D01*
X0127712Y0115176D02*
X0125632Y0115176D01*
X0126114Y0116774D02*
X0124034Y0116774D01*
X0124515Y0118373D02*
X0122435Y0118373D01*
X0122917Y0119971D02*
X0120837Y0119971D01*
X0121318Y0121570D02*
X0119238Y0121570D01*
X0119720Y0123168D02*
X0117639Y0123168D01*
X0118121Y0124767D02*
X0116041Y0124767D01*
X0116523Y0126365D02*
X0114442Y0126365D01*
X0114924Y0127964D02*
X0112844Y0127964D01*
X0114374Y0129562D02*
X0111245Y0129562D01*
X0109974Y0131161D02*
X0114374Y0131161D01*
X0114374Y0132759D02*
X0109974Y0132759D01*
X0109974Y0134358D02*
X0114374Y0134358D01*
X0114374Y0135956D02*
X0109974Y0135956D01*
X0109974Y0137555D02*
X0114374Y0137555D01*
X0114374Y0139153D02*
X0109974Y0139153D01*
X0109974Y0140752D02*
X0114374Y0140752D01*
X0114374Y0142350D02*
X0109974Y0142350D01*
X0110954Y0143949D02*
X0113394Y0143949D01*
X0112662Y0145547D02*
X0111686Y0145547D01*
X0111774Y0147146D02*
X0112574Y0147146D01*
X0112574Y0148745D02*
X0111774Y0148745D01*
X0111774Y0150343D02*
X0112574Y0150343D01*
X0112574Y0151942D02*
X0111774Y0151942D01*
X0111774Y0153540D02*
X0112574Y0153540D01*
X0113216Y0155139D02*
X0111132Y0155139D01*
X0109385Y0156737D02*
X0114963Y0156737D01*
X0116050Y0159492D02*
X0116796Y0159374D01*
X0116974Y0159374D01*
X0116974Y0166974D01*
X0117374Y0166974D01*
X0117374Y0167374D01*
X0116974Y0167374D01*
X0116974Y0166974D01*
X0112374Y0166974D01*
X0112374Y0163796D01*
X0112492Y0163050D01*
X0112726Y0162331D01*
X0113069Y0161658D01*
X0113513Y0161047D01*
X0114047Y0160513D01*
X0114658Y0160069D01*
X0115331Y0159726D01*
X0116050Y0159492D01*
X0116974Y0159934D02*
X0117374Y0159934D01*
X0117374Y0161533D02*
X0116974Y0161533D01*
X0116974Y0163131D02*
X0117374Y0163131D01*
X0117374Y0164730D02*
X0116974Y0164730D01*
X0116974Y0166328D02*
X0117374Y0166328D01*
X0116974Y0167374D02*
X0112374Y0167374D01*
X0112374Y0170552D01*
X0112492Y0171298D01*
X0112726Y0172017D01*
X0113069Y0172690D01*
X0113513Y0173301D01*
X0114047Y0173835D01*
X0114658Y0174279D01*
X0115331Y0174622D01*
X0116050Y0174856D01*
X0116796Y0174974D01*
X0116974Y0174974D01*
X0116974Y0167374D01*
X0116974Y0167927D02*
X0117374Y0167927D01*
X0117374Y0169525D02*
X0116974Y0169525D01*
X0116974Y0171124D02*
X0117374Y0171124D01*
X0117374Y0172722D02*
X0116974Y0172722D01*
X0116974Y0174321D02*
X0117374Y0174321D01*
X0114739Y0174321D02*
X0109609Y0174321D01*
X0109690Y0174279D02*
X0109017Y0174622D01*
X0108298Y0174856D01*
X0107552Y0174974D01*
X0107374Y0174974D01*
X0107374Y0167374D01*
X0111974Y0167374D01*
X0111974Y0170552D01*
X0111856Y0171298D01*
X0111622Y0172017D01*
X0111279Y0172690D01*
X0110835Y0173301D01*
X0110301Y0173835D01*
X0109690Y0174279D01*
X0111256Y0172722D02*
X0113092Y0172722D01*
X0112465Y0171124D02*
X0111883Y0171124D01*
X0111974Y0169525D02*
X0112374Y0169525D01*
X0112374Y0167927D02*
X0111974Y0167927D01*
X0111974Y0166974D02*
X0107374Y0166974D01*
X0107374Y0159374D01*
X0107552Y0159374D01*
X0108298Y0159492D01*
X0109017Y0159726D01*
X0109690Y0160069D01*
X0110301Y0160513D01*
X0110835Y0161047D01*
X0111279Y0161658D01*
X0111622Y0162331D01*
X0111856Y0163050D01*
X0111974Y0163796D01*
X0111974Y0166974D01*
X0111974Y0166328D02*
X0112374Y0166328D01*
X0112374Y0164730D02*
X0111974Y0164730D01*
X0111869Y0163131D02*
X0112479Y0163131D01*
X0113160Y0161533D02*
X0111188Y0161533D01*
X0109426Y0159934D02*
X0114922Y0159934D01*
X0119385Y0156737D02*
X0124374Y0156737D01*
X0123216Y0155139D02*
X0121132Y0155139D01*
X0121774Y0153540D02*
X0122574Y0153540D01*
X0122574Y0151942D02*
X0121774Y0151942D01*
X0121774Y0150343D02*
X0122574Y0150343D01*
X0122574Y0148745D02*
X0121774Y0148745D01*
X0121774Y0147146D02*
X0122574Y0147146D01*
X0122662Y0145547D02*
X0121686Y0145547D01*
X0120954Y0143949D02*
X0123394Y0143949D01*
X0125592Y0142350D02*
X0119974Y0142350D01*
X0119974Y0140752D02*
X0139636Y0140752D01*
X0140588Y0139800D02*
X0141617Y0139374D01*
X0148514Y0139374D01*
X0155588Y0132300D01*
X0156617Y0131874D01*
X0157969Y0131874D01*
X0159068Y0130774D01*
X0160759Y0130074D01*
X0168589Y0130074D01*
X0170280Y0130774D01*
X0171574Y0132068D01*
X0172274Y0133759D01*
X0172274Y0135589D01*
X0171574Y0137280D01*
X0170280Y0138574D01*
X0168589Y0139274D01*
X0160759Y0139274D01*
X0159068Y0138574D01*
X0158151Y0137657D01*
X0152048Y0143760D01*
X0151260Y0144548D01*
X0150231Y0144974D01*
X0143334Y0144974D01*
X0141774Y0146534D01*
X0141774Y0153589D01*
X0141074Y0155280D01*
X0139780Y0156574D01*
X0138089Y0157274D01*
X0136259Y0157274D01*
X0134568Y0156574D01*
X0133274Y0155280D01*
X0132574Y0153589D01*
X0132574Y0145759D01*
X0133274Y0144068D01*
X0134568Y0142774D01*
X0136259Y0142074D01*
X0138089Y0142074D01*
X0138248Y0142140D01*
X0140588Y0139800D01*
X0135592Y0142350D02*
X0128756Y0142350D01*
X0130954Y0143949D02*
X0133394Y0143949D01*
X0132662Y0145547D02*
X0131686Y0145547D01*
X0131774Y0147146D02*
X0132574Y0147146D01*
X0132574Y0148745D02*
X0131774Y0148745D01*
X0131774Y0150343D02*
X0132574Y0150343D01*
X0132574Y0151942D02*
X0131774Y0151942D01*
X0131774Y0153540D02*
X0132574Y0153540D01*
X0133216Y0155139D02*
X0131132Y0155139D01*
X0129974Y0156737D02*
X0134963Y0156737D01*
X0139385Y0156737D02*
X0157550Y0156737D01*
X0157774Y0157280D02*
X0157074Y0155589D01*
X0157074Y0153759D01*
X0157774Y0152068D01*
X0159068Y0150774D01*
X0160759Y0150074D01*
X0168589Y0150074D01*
X0170280Y0150774D01*
X0171574Y0152068D01*
X0172274Y0153759D01*
X0172274Y0155589D01*
X0171574Y0157280D01*
X0170280Y0158574D01*
X0168589Y0159274D01*
X0160759Y0159274D01*
X0159068Y0158574D01*
X0157774Y0157280D01*
X0158830Y0158336D02*
X0129974Y0158336D01*
X0129974Y0159934D02*
X0176874Y0159934D01*
X0176874Y0158336D02*
X0170518Y0158336D01*
X0171798Y0156737D02*
X0176874Y0156737D01*
X0176874Y0155139D02*
X0172274Y0155139D01*
X0172183Y0153540D02*
X0176874Y0153540D01*
X0176874Y0151942D02*
X0171447Y0151942D01*
X0169238Y0150343D02*
X0176874Y0150343D01*
X0176874Y0148745D02*
X0169867Y0148745D01*
X0170280Y0148574D02*
X0168589Y0149274D01*
X0160759Y0149274D01*
X0159068Y0148574D01*
X0157774Y0147280D01*
X0157074Y0145589D01*
X0157074Y0143759D01*
X0157774Y0142068D01*
X0159068Y0140774D01*
X0160759Y0140074D01*
X0168589Y0140074D01*
X0170280Y0140774D01*
X0171574Y0142068D01*
X0172274Y0143759D01*
X0172274Y0145589D01*
X0171574Y0147280D01*
X0170280Y0148574D01*
X0171629Y0147146D02*
X0176874Y0147146D01*
X0176874Y0145547D02*
X0172274Y0145547D01*
X0172274Y0143949D02*
X0176874Y0143949D01*
X0176874Y0142350D02*
X0171691Y0142350D01*
X0170226Y0140752D02*
X0176874Y0140752D01*
X0176874Y0139153D02*
X0168880Y0139153D01*
X0171298Y0137555D02*
X0176874Y0137555D01*
X0176874Y0135956D02*
X0172122Y0135956D01*
X0172274Y0134358D02*
X0176874Y0134358D01*
X0176300Y0132759D02*
X0171860Y0132759D01*
X0170666Y0131161D02*
X0174701Y0131161D01*
X0173103Y0129562D02*
X0154139Y0129562D01*
X0154238Y0127964D02*
X0158458Y0127964D01*
X0157396Y0126365D02*
X0154235Y0126365D01*
X0153807Y0124767D02*
X0157074Y0124767D01*
X0157319Y0123168D02*
X0153229Y0123168D01*
X0152306Y0121570D02*
X0158273Y0121570D01*
X0170481Y0118373D02*
X0218867Y0118373D01*
X0217565Y0116774D02*
X0171783Y0116774D01*
X0172274Y0115176D02*
X0217074Y0115176D01*
X0217149Y0113577D02*
X0172199Y0113577D01*
X0171484Y0111979D02*
X0217864Y0111979D01*
X0220020Y0110380D02*
X0169328Y0110380D01*
X0169777Y0108782D02*
X0219571Y0108782D01*
X0219068Y0108574D02*
X0217774Y0107280D01*
X0217074Y0105589D01*
X0217074Y0103759D01*
X0217774Y0102068D01*
X0219068Y0100774D01*
X0220759Y0100074D01*
X0228589Y0100074D01*
X0230280Y0100774D01*
X0231574Y0102068D01*
X0232274Y0103759D01*
X0232274Y0105589D01*
X0231574Y0107280D01*
X0230280Y0108574D01*
X0228589Y0109274D01*
X0220759Y0109274D01*
X0219068Y0108574D01*
X0217734Y0107183D02*
X0171614Y0107183D01*
X0172274Y0105585D02*
X0217074Y0105585D01*
X0217074Y0103986D02*
X0172274Y0103986D01*
X0171706Y0102388D02*
X0217642Y0102388D01*
X0219053Y0100789D02*
X0170295Y0100789D01*
X0168790Y0099191D02*
X0220558Y0099191D01*
X0220759Y0099274D02*
X0219068Y0098574D01*
X0217774Y0097280D01*
X0217074Y0095589D01*
X0217074Y0093759D01*
X0217774Y0092068D01*
X0219068Y0090774D01*
X0220759Y0090074D01*
X0228589Y0090074D01*
X0230280Y0090774D01*
X0231574Y0092068D01*
X0232274Y0093759D01*
X0232274Y0095589D01*
X0231574Y0097280D01*
X0230280Y0098574D01*
X0228589Y0099274D01*
X0220759Y0099274D01*
X0218087Y0097592D02*
X0171261Y0097592D01*
X0171574Y0097280D02*
X0170280Y0098574D01*
X0168589Y0099274D01*
X0160759Y0099274D01*
X0159068Y0098574D01*
X0157969Y0097474D01*
X0133334Y0097474D01*
X0099974Y0130834D01*
X0099974Y0142969D01*
X0101074Y0144068D01*
X0101774Y0145759D01*
X0101774Y0153589D01*
X0101074Y0155280D01*
X0099780Y0156574D01*
X0098089Y0157274D01*
X0096259Y0157274D01*
X0094568Y0156574D01*
X0093274Y0155280D01*
X0092574Y0153589D01*
X0092574Y0145759D01*
X0093274Y0144068D01*
X0094374Y0142969D01*
X0094374Y0129117D01*
X0094800Y0128088D01*
X0095588Y0127300D01*
X0130588Y0092300D01*
X0131617Y0091874D01*
X0157969Y0091874D01*
X0159068Y0090774D01*
X0160759Y0090074D01*
X0168589Y0090074D01*
X0170280Y0090774D01*
X0171574Y0092068D01*
X0172274Y0093759D01*
X0172274Y0095589D01*
X0171574Y0097280D01*
X0172106Y0095994D02*
X0217242Y0095994D01*
X0217074Y0094395D02*
X0172274Y0094395D01*
X0171875Y0092797D02*
X0217473Y0092797D01*
X0218645Y0091198D02*
X0170703Y0091198D01*
X0170852Y0088001D02*
X0218496Y0088001D01*
X0217411Y0086403D02*
X0171937Y0086403D01*
X0172274Y0084804D02*
X0217074Y0084804D01*
X0217303Y0083206D02*
X0172045Y0083206D01*
X0171112Y0081607D02*
X0218236Y0081607D01*
X0218905Y0078410D02*
X0170443Y0078410D01*
X0171768Y0076811D02*
X0217580Y0076811D01*
X0217074Y0075213D02*
X0172274Y0075213D01*
X0172214Y0073614D02*
X0217134Y0073614D01*
X0217827Y0072016D02*
X0171521Y0072016D01*
X0169418Y0070417D02*
X0219930Y0070417D01*
X0219660Y0068819D02*
X0169688Y0068819D01*
X0171598Y0067220D02*
X0217750Y0067220D01*
X0217088Y0065622D02*
X0172260Y0065622D01*
X0172274Y0064023D02*
X0217074Y0064023D01*
X0217627Y0062425D02*
X0171721Y0062425D01*
X0170332Y0060826D02*
X0219016Y0060826D01*
X0219831Y0059122D02*
X0219158Y0058779D01*
X0218547Y0058335D01*
X0218013Y0057801D01*
X0217569Y0057190D01*
X0217226Y0056517D01*
X0216992Y0055798D01*
X0216874Y0055052D01*
X0216874Y0054874D01*
X0224474Y0054874D01*
X0224474Y0059474D01*
X0221296Y0059474D01*
X0220550Y0059356D01*
X0219831Y0059122D01*
X0220156Y0059228D02*
X0168700Y0059228D01*
X0182517Y0057629D02*
X0217888Y0057629D01*
X0217068Y0056031D02*
X0184115Y0056031D01*
X0185714Y0054432D02*
X0216874Y0054432D01*
X0217225Y0052834D02*
X0187312Y0052834D01*
X0178913Y0049637D02*
X0014474Y0049637D01*
X0014474Y0051235D02*
X0117314Y0051235D01*
X0157395Y0036849D02*
X0014474Y0036849D01*
X0014474Y0038447D02*
X0158701Y0038447D01*
X0164474Y0038447D02*
X0164874Y0038447D01*
X0164874Y0036849D02*
X0164474Y0036849D01*
X0164474Y0035250D02*
X0164874Y0035250D01*
X0164874Y0033652D02*
X0164474Y0033652D01*
X0164474Y0032053D02*
X0164874Y0032053D01*
X0164874Y0030455D02*
X0164474Y0030455D01*
X0150917Y0017667D02*
X0183383Y0017667D01*
X0184982Y0016068D02*
X0148742Y0016068D01*
X0188774Y0024061D02*
X0217074Y0024061D01*
X0217103Y0025659D02*
X0188774Y0025659D01*
X0188774Y0027258D02*
X0217765Y0027258D01*
X0219750Y0028856D02*
X0188774Y0028856D01*
X0188774Y0030455D02*
X0219840Y0030455D01*
X0217789Y0032053D02*
X0188774Y0032053D01*
X0188774Y0033652D02*
X0217118Y0033652D01*
X0217074Y0035250D02*
X0188774Y0035250D01*
X0188774Y0036849D02*
X0217596Y0036849D01*
X0218942Y0038447D02*
X0188774Y0038447D01*
X0188774Y0040046D02*
X0231086Y0040046D01*
X0231150Y0041644D02*
X0231874Y0041644D01*
X0237474Y0041644D02*
X0242074Y0041644D01*
X0242138Y0043243D02*
X0237474Y0043243D01*
X0237474Y0044841D02*
X0242836Y0044841D01*
X0244952Y0046440D02*
X0237900Y0046440D01*
X0239498Y0048038D02*
X0244638Y0048038D01*
X0254396Y0046440D02*
X0259980Y0046440D01*
X0261578Y0048038D02*
X0254710Y0048038D01*
X0256602Y0049637D02*
X0261874Y0049637D01*
X0261874Y0051235D02*
X0257264Y0051235D01*
X0257274Y0052834D02*
X0261874Y0052834D01*
X0261874Y0054432D02*
X0256718Y0054432D01*
X0255323Y0056031D02*
X0261874Y0056031D01*
X0261874Y0057629D02*
X0254220Y0057629D01*
X0254517Y0057726D02*
X0255190Y0058069D01*
X0255801Y0058513D01*
X0256335Y0059047D01*
X0256779Y0059658D01*
X0257122Y0060331D01*
X0257356Y0061050D01*
X0257474Y0061796D01*
X0257474Y0061974D01*
X0249874Y0061974D01*
X0249874Y0057374D01*
X0253052Y0057374D01*
X0253798Y0057492D01*
X0254517Y0057726D01*
X0256467Y0059228D02*
X0261874Y0059228D01*
X0261874Y0060826D02*
X0257283Y0060826D01*
X0257474Y0062374D02*
X0257474Y0062552D01*
X0257356Y0063298D01*
X0257122Y0064017D01*
X0256779Y0064690D01*
X0256335Y0065301D01*
X0255801Y0065835D01*
X0255190Y0066279D01*
X0254517Y0066622D01*
X0253798Y0066856D01*
X0253052Y0066974D01*
X0249874Y0066974D01*
X0249874Y0062374D01*
X0249474Y0062374D01*
X0249474Y0061974D01*
X0249874Y0061974D01*
X0249874Y0062374D01*
X0257474Y0062374D01*
X0257474Y0062425D02*
X0261874Y0062425D01*
X0261874Y0064023D02*
X0257119Y0064023D01*
X0256014Y0065622D02*
X0261874Y0065622D01*
X0261874Y0067220D02*
X0239974Y0067220D01*
X0239974Y0065622D02*
X0243334Y0065622D01*
X0243547Y0065835D02*
X0243013Y0065301D01*
X0242569Y0064690D01*
X0242226Y0064017D01*
X0241992Y0063298D01*
X0241874Y0062552D01*
X0241874Y0062374D01*
X0249474Y0062374D01*
X0249474Y0066974D01*
X0246296Y0066974D01*
X0245550Y0066856D01*
X0244831Y0066622D01*
X0244158Y0066279D01*
X0243547Y0065835D01*
X0242229Y0064023D02*
X0239974Y0064023D01*
X0239974Y0062425D02*
X0241874Y0062425D01*
X0241874Y0061974D02*
X0241874Y0061796D01*
X0241992Y0061050D01*
X0242226Y0060331D01*
X0242569Y0059658D01*
X0243013Y0059047D01*
X0243547Y0058513D01*
X0244158Y0058069D01*
X0244831Y0057726D01*
X0245550Y0057492D01*
X0246296Y0057374D01*
X0249474Y0057374D01*
X0249474Y0061974D01*
X0241874Y0061974D01*
X0242065Y0060826D02*
X0239974Y0060826D01*
X0239974Y0059228D02*
X0242881Y0059228D01*
X0245128Y0057629D02*
X0239974Y0057629D01*
X0239974Y0056031D02*
X0244025Y0056031D01*
X0249474Y0057629D02*
X0249874Y0057629D01*
X0249874Y0059228D02*
X0249474Y0059228D01*
X0249474Y0060826D02*
X0249874Y0060826D01*
X0249874Y0062425D02*
X0249474Y0062425D01*
X0249474Y0064023D02*
X0249874Y0064023D01*
X0249874Y0065622D02*
X0249474Y0065622D01*
X0239974Y0068819D02*
X0261874Y0068819D01*
X0261874Y0070417D02*
X0239974Y0070417D01*
X0239974Y0072016D02*
X0261874Y0072016D01*
X0261874Y0073614D02*
X0239974Y0073614D01*
X0239974Y0075213D02*
X0261874Y0075213D01*
X0261874Y0076811D02*
X0239974Y0076811D01*
X0239974Y0078410D02*
X0246188Y0078410D01*
X0246047Y0078513D02*
X0246658Y0078069D01*
X0247331Y0077726D01*
X0248050Y0077492D01*
X0248796Y0077374D01*
X0251974Y0077374D01*
X0251974Y0081974D01*
X0252374Y0081974D01*
X0252374Y0077374D01*
X0255552Y0077374D01*
X0256298Y0077492D01*
X0257017Y0077726D01*
X0257690Y0078069D01*
X0258301Y0078513D01*
X0258835Y0079047D01*
X0259279Y0079658D01*
X0259622Y0080331D01*
X0259856Y0081050D01*
X0259974Y0081796D01*
X0259974Y0081974D01*
X0252374Y0081974D01*
X0252374Y0082374D01*
X0251974Y0082374D01*
X0251974Y0081974D01*
X0244374Y0081974D01*
X0244374Y0081796D01*
X0244492Y0081050D01*
X0244726Y0080331D01*
X0245069Y0079658D01*
X0245513Y0079047D01*
X0246047Y0078513D01*
X0244890Y0080009D02*
X0239974Y0080009D01*
X0239974Y0081607D02*
X0244404Y0081607D01*
X0244374Y0082374D02*
X0251974Y0082374D01*
X0251974Y0086974D01*
X0248796Y0086974D01*
X0248050Y0086856D01*
X0247331Y0086622D01*
X0246658Y0086279D01*
X0246047Y0085835D01*
X0245513Y0085301D01*
X0245069Y0084690D01*
X0244726Y0084017D01*
X0244492Y0083298D01*
X0244374Y0082552D01*
X0244374Y0082374D01*
X0244478Y0083206D02*
X0239974Y0083206D01*
X0239974Y0084804D02*
X0245152Y0084804D01*
X0246900Y0086403D02*
X0240362Y0086403D01*
X0241961Y0088001D02*
X0247228Y0088001D01*
X0251974Y0086403D02*
X0252374Y0086403D01*
X0252374Y0086974D02*
X0252374Y0082374D01*
X0259974Y0082374D01*
X0259974Y0082552D01*
X0259856Y0083298D01*
X0259622Y0084017D01*
X0259279Y0084690D01*
X0258835Y0085301D01*
X0258301Y0085835D01*
X0257690Y0086279D01*
X0257017Y0086622D01*
X0256298Y0086856D01*
X0255552Y0086974D01*
X0252374Y0086974D01*
X0252374Y0084804D02*
X0251974Y0084804D01*
X0251974Y0083206D02*
X0252374Y0083206D01*
X0252374Y0081607D02*
X0251974Y0081607D01*
X0251974Y0080009D02*
X0252374Y0080009D01*
X0252374Y0078410D02*
X0251974Y0078410D01*
X0258160Y0078410D02*
X0261874Y0078410D01*
X0261874Y0080009D02*
X0259458Y0080009D01*
X0259944Y0081607D02*
X0261874Y0081607D01*
X0261874Y0083206D02*
X0259870Y0083206D01*
X0259196Y0084804D02*
X0261874Y0084804D01*
X0261874Y0086403D02*
X0257448Y0086403D01*
X0257120Y0088001D02*
X0261874Y0088001D01*
X0261874Y0089600D02*
X0259087Y0089600D01*
X0259749Y0091198D02*
X0261874Y0091198D01*
X0261874Y0092797D02*
X0259774Y0092797D01*
X0259233Y0094395D02*
X0261874Y0094395D01*
X0261874Y0095994D02*
X0257860Y0095994D01*
X0256133Y0097592D02*
X0260296Y0097592D01*
X0258698Y0099191D02*
X0258696Y0099191D01*
X0263420Y0102388D02*
X0268074Y0102388D01*
X0268074Y0100789D02*
X0265019Y0100789D01*
X0266617Y0099191D02*
X0268074Y0099191D01*
X0268074Y0097592D02*
X0267474Y0097592D01*
X0267474Y0095994D02*
X0268074Y0095994D01*
X0268074Y0094395D02*
X0267474Y0094395D01*
X0267474Y0092797D02*
X0268074Y0092797D01*
X0268074Y0091198D02*
X0267474Y0091198D01*
X0267474Y0089600D02*
X0268074Y0089600D01*
X0268074Y0088001D02*
X0267474Y0088001D01*
X0267474Y0086403D02*
X0268074Y0086403D01*
X0268074Y0084804D02*
X0267474Y0084804D01*
X0267474Y0083206D02*
X0268074Y0083206D01*
X0268074Y0081607D02*
X0267474Y0081607D01*
X0267474Y0080009D02*
X0268074Y0080009D01*
X0268074Y0078410D02*
X0267474Y0078410D01*
X0267474Y0076811D02*
X0268074Y0076811D01*
X0268074Y0075213D02*
X0267474Y0075213D01*
X0267474Y0073614D02*
X0268074Y0073614D01*
X0268074Y0072016D02*
X0267474Y0072016D01*
X0267474Y0070417D02*
X0268074Y0070417D01*
X0268074Y0068819D02*
X0267474Y0068819D01*
X0267474Y0067220D02*
X0268074Y0067220D01*
X0268074Y0065622D02*
X0267474Y0065622D01*
X0267474Y0064023D02*
X0268074Y0064023D01*
X0268074Y0062425D02*
X0267474Y0062425D01*
X0267474Y0060826D02*
X0268074Y0060826D01*
X0268074Y0059228D02*
X0267474Y0059228D01*
X0267474Y0057629D02*
X0268074Y0057629D01*
X0268074Y0056031D02*
X0267474Y0056031D01*
X0267474Y0054432D02*
X0268074Y0054432D01*
X0268074Y0052834D02*
X0267474Y0052834D01*
X0267474Y0051235D02*
X0268074Y0051235D01*
X0268074Y0049637D02*
X0267474Y0049637D01*
X0267474Y0048038D02*
X0268074Y0048038D01*
X0268074Y0046440D02*
X0267401Y0046440D01*
X0266543Y0044841D02*
X0266301Y0044841D01*
X0264945Y0043243D02*
X0264703Y0043243D01*
X0263346Y0041644D02*
X0263104Y0041644D01*
X0261747Y0040046D02*
X0261506Y0040046D01*
X0260149Y0038447D02*
X0255453Y0038447D01*
X0258550Y0036849D02*
X0245808Y0036849D01*
X0241086Y0040046D02*
X0237474Y0040046D01*
X0237197Y0038447D02*
X0239487Y0038447D01*
X0237889Y0036849D02*
X0235809Y0036849D01*
X0236290Y0035250D02*
X0234210Y0035250D01*
X0234692Y0033652D02*
X0232611Y0033652D01*
X0233093Y0032053D02*
X0231559Y0032053D01*
X0231495Y0030455D02*
X0229508Y0030455D01*
X0229598Y0028856D02*
X0229896Y0028856D01*
X0234619Y0025659D02*
X0245574Y0025659D01*
X0245574Y0024061D02*
X0233020Y0024061D01*
X0231737Y0022462D02*
X0244164Y0022462D01*
X0242565Y0020864D02*
X0230369Y0020864D01*
X0236217Y0027258D02*
X0245574Y0027258D01*
X0243486Y0028856D02*
X0237816Y0028856D01*
X0239414Y0030455D02*
X0242407Y0030455D01*
X0242074Y0032053D02*
X0241013Y0032053D01*
X0240967Y0019265D02*
X0193381Y0019265D01*
X0191783Y0020864D02*
X0218979Y0020864D01*
X0217611Y0022462D02*
X0190184Y0022462D01*
X0224474Y0051235D02*
X0224874Y0051235D01*
X0224874Y0052834D02*
X0224474Y0052834D01*
X0224474Y0054432D02*
X0224874Y0054432D01*
X0224874Y0056031D02*
X0224474Y0056031D01*
X0224474Y0057629D02*
X0224874Y0057629D01*
X0224874Y0059228D02*
X0224474Y0059228D01*
X0232045Y0083206D02*
X0234374Y0083206D01*
X0234374Y0084804D02*
X0232274Y0084804D01*
X0231937Y0086403D02*
X0234374Y0086403D01*
X0234486Y0088001D02*
X0230852Y0088001D01*
X0230703Y0091198D02*
X0237238Y0091198D01*
X0235640Y0089600D02*
X0131208Y0089600D01*
X0129610Y0091198D02*
X0158645Y0091198D01*
X0158496Y0088001D02*
X0132807Y0088001D01*
X0128084Y0084804D02*
X0095342Y0084804D01*
X0093744Y0086403D02*
X0126486Y0086403D01*
X0124887Y0088001D02*
X0092145Y0088001D01*
X0090547Y0089600D02*
X0123289Y0089600D01*
X0121690Y0091198D02*
X0088948Y0091198D01*
X0087350Y0092797D02*
X0120092Y0092797D01*
X0118493Y0094395D02*
X0085751Y0094395D01*
X0084153Y0095994D02*
X0116895Y0095994D01*
X0115296Y0097592D02*
X0082554Y0097592D01*
X0080956Y0099191D02*
X0113698Y0099191D01*
X0112099Y0100789D02*
X0079357Y0100789D01*
X0077759Y0102388D02*
X0110501Y0102388D01*
X0108902Y0103986D02*
X0076160Y0103986D01*
X0074562Y0105585D02*
X0107304Y0105585D01*
X0105705Y0107183D02*
X0072963Y0107183D01*
X0071365Y0108782D02*
X0104107Y0108782D01*
X0102508Y0110380D02*
X0069766Y0110380D01*
X0068168Y0111979D02*
X0100909Y0111979D01*
X0099311Y0113577D02*
X0066569Y0113577D01*
X0064971Y0115176D02*
X0097712Y0115176D01*
X0096114Y0116774D02*
X0063372Y0116774D01*
X0061773Y0118373D02*
X0094515Y0118373D01*
X0092917Y0119971D02*
X0060175Y0119971D01*
X0058576Y0121570D02*
X0091318Y0121570D01*
X0089720Y0123168D02*
X0056978Y0123168D01*
X0055379Y0124767D02*
X0088121Y0124767D01*
X0086523Y0126365D02*
X0053781Y0126365D01*
X0053774Y0127964D02*
X0084924Y0127964D01*
X0084374Y0129562D02*
X0053774Y0129562D01*
X0053774Y0131161D02*
X0084374Y0131161D01*
X0084374Y0132759D02*
X0053774Y0132759D01*
X0053774Y0134358D02*
X0084374Y0134358D01*
X0084374Y0135956D02*
X0053774Y0135956D01*
X0053774Y0137555D02*
X0084374Y0137555D01*
X0084374Y0139153D02*
X0053774Y0139153D01*
X0053774Y0140752D02*
X0084374Y0140752D01*
X0084374Y0142350D02*
X0071256Y0142350D01*
X0073454Y0143949D02*
X0083394Y0143949D01*
X0082662Y0145547D02*
X0074186Y0145547D01*
X0074274Y0147146D02*
X0082574Y0147146D01*
X0082574Y0148745D02*
X0074274Y0148745D01*
X0074274Y0150343D02*
X0082574Y0150343D01*
X0082574Y0151942D02*
X0074274Y0151942D01*
X0074274Y0153540D02*
X0082574Y0153540D01*
X0083216Y0155139D02*
X0073632Y0155139D01*
X0071885Y0156737D02*
X0084963Y0156737D01*
X0086050Y0159492D02*
X0086796Y0159374D01*
X0086974Y0159374D01*
X0086974Y0166974D01*
X0087374Y0166974D01*
X0087374Y0159374D01*
X0087552Y0159374D01*
X0088298Y0159492D01*
X0089017Y0159726D01*
X0089690Y0160069D01*
X0090301Y0160513D01*
X0090835Y0161047D01*
X0091279Y0161658D01*
X0091622Y0162331D01*
X0091856Y0163050D01*
X0091974Y0163796D01*
X0091974Y0166974D01*
X0087374Y0166974D01*
X0087374Y0167374D01*
X0091974Y0167374D01*
X0091974Y0170552D01*
X0091856Y0171298D01*
X0091622Y0172017D01*
X0091279Y0172690D01*
X0090835Y0173301D01*
X0090301Y0173835D01*
X0089690Y0174279D01*
X0089017Y0174622D01*
X0088298Y0174856D01*
X0087552Y0174974D01*
X0087374Y0174974D01*
X0087374Y0167374D01*
X0086974Y0167374D01*
X0086974Y0166974D01*
X0082374Y0166974D01*
X0082374Y0163796D01*
X0082492Y0163050D01*
X0082726Y0162331D01*
X0083069Y0161658D01*
X0083513Y0161047D01*
X0084047Y0160513D01*
X0084658Y0160069D01*
X0085331Y0159726D01*
X0086050Y0159492D01*
X0086974Y0159934D02*
X0087374Y0159934D01*
X0087374Y0161533D02*
X0086974Y0161533D01*
X0086974Y0163131D02*
X0087374Y0163131D01*
X0087374Y0164730D02*
X0086974Y0164730D01*
X0086974Y0166328D02*
X0087374Y0166328D01*
X0086974Y0167374D02*
X0082374Y0167374D01*
X0082374Y0170552D01*
X0082492Y0171298D01*
X0082726Y0172017D01*
X0083069Y0172690D01*
X0083513Y0173301D01*
X0084047Y0173835D01*
X0084658Y0174279D01*
X0085331Y0174622D01*
X0086050Y0174856D01*
X0086796Y0174974D01*
X0086974Y0174974D01*
X0086974Y0167374D01*
X0086974Y0167927D02*
X0087374Y0167927D01*
X0087374Y0169525D02*
X0086974Y0169525D01*
X0086974Y0171124D02*
X0087374Y0171124D01*
X0087374Y0172722D02*
X0086974Y0172722D01*
X0086974Y0174321D02*
X0087374Y0174321D01*
X0089609Y0174321D02*
X0094739Y0174321D01*
X0094658Y0174279D02*
X0095331Y0174622D01*
X0096050Y0174856D01*
X0096796Y0174974D01*
X0096974Y0174974D01*
X0096974Y0167374D01*
X0096974Y0166974D01*
X0097374Y0166974D01*
X0097374Y0159374D01*
X0097552Y0159374D01*
X0098298Y0159492D01*
X0099017Y0159726D01*
X0099690Y0160069D01*
X0100301Y0160513D01*
X0100835Y0161047D01*
X0101279Y0161658D01*
X0101622Y0162331D01*
X0101856Y0163050D01*
X0101974Y0163796D01*
X0101974Y0166974D01*
X0097374Y0166974D01*
X0097374Y0167374D01*
X0101974Y0167374D01*
X0101974Y0170552D01*
X0101856Y0171298D01*
X0101622Y0172017D01*
X0101279Y0172690D01*
X0100835Y0173301D01*
X0100301Y0173835D01*
X0099690Y0174279D01*
X0099017Y0174622D01*
X0098298Y0174856D01*
X0097552Y0174974D01*
X0097374Y0174974D01*
X0097374Y0167374D01*
X0096974Y0167374D01*
X0092374Y0167374D01*
X0092374Y0170552D01*
X0092492Y0171298D01*
X0092726Y0172017D01*
X0093069Y0172690D01*
X0093513Y0173301D01*
X0094047Y0173835D01*
X0094658Y0174279D01*
X0093092Y0172722D02*
X0091256Y0172722D01*
X0091883Y0171124D02*
X0092465Y0171124D01*
X0092374Y0169525D02*
X0091974Y0169525D01*
X0091974Y0167927D02*
X0092374Y0167927D01*
X0092374Y0166974D02*
X0092374Y0163796D01*
X0092492Y0163050D01*
X0092726Y0162331D01*
X0093069Y0161658D01*
X0093513Y0161047D01*
X0094047Y0160513D01*
X0094658Y0160069D01*
X0095331Y0159726D01*
X0096050Y0159492D01*
X0096796Y0159374D01*
X0096974Y0159374D01*
X0096974Y0166974D01*
X0092374Y0166974D01*
X0092374Y0166328D02*
X0091974Y0166328D01*
X0091974Y0164730D02*
X0092374Y0164730D01*
X0092479Y0163131D02*
X0091869Y0163131D01*
X0091188Y0161533D02*
X0093160Y0161533D01*
X0094922Y0159934D02*
X0089426Y0159934D01*
X0089385Y0156737D02*
X0094963Y0156737D01*
X0093216Y0155139D02*
X0091132Y0155139D01*
X0091774Y0153540D02*
X0092574Y0153540D01*
X0092574Y0151942D02*
X0091774Y0151942D01*
X0091774Y0150343D02*
X0092574Y0150343D01*
X0092574Y0148745D02*
X0091774Y0148745D01*
X0091774Y0147146D02*
X0092574Y0147146D01*
X0092662Y0145547D02*
X0091686Y0145547D01*
X0090954Y0143949D02*
X0093394Y0143949D01*
X0094374Y0142350D02*
X0089974Y0142350D01*
X0089974Y0140752D02*
X0094374Y0140752D01*
X0094374Y0139153D02*
X0089974Y0139153D01*
X0089974Y0137555D02*
X0094374Y0137555D01*
X0094374Y0135956D02*
X0089974Y0135956D01*
X0089974Y0134358D02*
X0094374Y0134358D01*
X0094374Y0132759D02*
X0089974Y0132759D01*
X0089974Y0131161D02*
X0094374Y0131161D01*
X0094374Y0129562D02*
X0091245Y0129562D01*
X0092844Y0127964D02*
X0094924Y0127964D01*
X0094442Y0126365D02*
X0096523Y0126365D01*
X0096041Y0124767D02*
X0098121Y0124767D01*
X0097639Y0123168D02*
X0099720Y0123168D01*
X0099238Y0121570D02*
X0101318Y0121570D01*
X0100837Y0119971D02*
X0102917Y0119971D01*
X0102435Y0118373D02*
X0104515Y0118373D01*
X0104034Y0116774D02*
X0106114Y0116774D01*
X0105632Y0115176D02*
X0107712Y0115176D01*
X0107231Y0113577D02*
X0109311Y0113577D01*
X0108829Y0111979D02*
X0110909Y0111979D01*
X0110428Y0110380D02*
X0112508Y0110380D01*
X0112026Y0108782D02*
X0114107Y0108782D01*
X0113625Y0107183D02*
X0115705Y0107183D01*
X0115223Y0105585D02*
X0117304Y0105585D01*
X0116822Y0103986D02*
X0118902Y0103986D01*
X0118420Y0102388D02*
X0120501Y0102388D01*
X0120019Y0100789D02*
X0122099Y0100789D01*
X0121617Y0099191D02*
X0123698Y0099191D01*
X0123216Y0097592D02*
X0125296Y0097592D01*
X0124814Y0095994D02*
X0126895Y0095994D01*
X0126413Y0094395D02*
X0128493Y0094395D01*
X0128011Y0092797D02*
X0130092Y0092797D01*
X0133216Y0097592D02*
X0158087Y0097592D01*
X0160558Y0099191D02*
X0131617Y0099191D01*
X0130019Y0100789D02*
X0159053Y0100789D01*
X0138422Y0118373D02*
X0132435Y0118373D01*
X0130837Y0119971D02*
X0136205Y0119971D01*
X0134759Y0121570D02*
X0129238Y0121570D01*
X0127639Y0123168D02*
X0133836Y0123168D01*
X0133258Y0124767D02*
X0126041Y0124767D01*
X0124442Y0126365D02*
X0132829Y0126365D01*
X0132827Y0127964D02*
X0122844Y0127964D01*
X0121245Y0129562D02*
X0132926Y0129562D01*
X0133354Y0131161D02*
X0119974Y0131161D01*
X0119974Y0132759D02*
X0134043Y0132759D01*
X0139045Y0137555D02*
X0119974Y0137555D01*
X0119974Y0139153D02*
X0148735Y0139153D01*
X0148020Y0137555D02*
X0150333Y0137555D01*
X0150500Y0135956D02*
X0151932Y0135956D01*
X0152098Y0134358D02*
X0153530Y0134358D01*
X0153022Y0132759D02*
X0155129Y0132759D01*
X0153711Y0131161D02*
X0158682Y0131161D01*
X0160468Y0139153D02*
X0156654Y0139153D01*
X0155056Y0140752D02*
X0159122Y0140752D01*
X0157657Y0142350D02*
X0153457Y0142350D01*
X0151859Y0143949D02*
X0157074Y0143949D01*
X0157074Y0145547D02*
X0142760Y0145547D01*
X0141774Y0147146D02*
X0157719Y0147146D01*
X0159481Y0148745D02*
X0141774Y0148745D01*
X0141774Y0150343D02*
X0160110Y0150343D01*
X0157901Y0151942D02*
X0141774Y0151942D01*
X0141774Y0153540D02*
X0157165Y0153540D01*
X0157074Y0155139D02*
X0141132Y0155139D01*
X0129974Y0161533D02*
X0158310Y0161533D01*
X0157774Y0162068D02*
X0159068Y0160774D01*
X0160759Y0160074D01*
X0168589Y0160074D01*
X0170280Y0160774D01*
X0171574Y0162068D01*
X0172274Y0163759D01*
X0172274Y0165589D01*
X0171574Y0167280D01*
X0170280Y0168574D01*
X0168589Y0169274D01*
X0160759Y0169274D01*
X0159068Y0168574D01*
X0157774Y0167280D01*
X0157074Y0165589D01*
X0157074Y0163759D01*
X0157774Y0162068D01*
X0157334Y0163131D02*
X0129974Y0163131D01*
X0129974Y0164730D02*
X0157074Y0164730D01*
X0157380Y0166328D02*
X0129974Y0166328D01*
X0129974Y0167927D02*
X0158421Y0167927D01*
X0170927Y0167927D02*
X0174962Y0167927D01*
X0176560Y0166328D02*
X0171968Y0166328D01*
X0172274Y0164730D02*
X0176874Y0164730D01*
X0176874Y0163131D02*
X0172014Y0163131D01*
X0171038Y0161533D02*
X0176874Y0161533D01*
X0182474Y0156737D02*
X0217550Y0156737D01*
X0217074Y0155139D02*
X0182474Y0155139D01*
X0182474Y0153540D02*
X0217165Y0153540D01*
X0217901Y0151942D02*
X0182474Y0151942D01*
X0173363Y0169525D02*
X0130985Y0169525D01*
X0132583Y0171124D02*
X0171765Y0171124D01*
X0228880Y0139153D02*
X0230194Y0139153D01*
X0230226Y0140752D02*
X0231792Y0140752D01*
X0231691Y0142350D02*
X0233391Y0142350D01*
X0232909Y0143949D02*
X0234989Y0143949D01*
X0218458Y0127964D02*
X0179424Y0127964D01*
X0177825Y0126365D02*
X0217396Y0126365D01*
X0217074Y0124767D02*
X0176227Y0124767D01*
X0174628Y0123168D02*
X0217319Y0123168D01*
X0218273Y0121570D02*
X0171075Y0121570D01*
X0170890Y0127964D02*
X0171504Y0127964D01*
X0130501Y0102388D02*
X0128420Y0102388D01*
X0128902Y0103986D02*
X0126822Y0103986D01*
X0127304Y0105585D02*
X0125223Y0105585D01*
X0125705Y0107183D02*
X0123625Y0107183D01*
X0124107Y0108782D02*
X0122026Y0108782D01*
X0122508Y0110380D02*
X0120428Y0110380D01*
X0120909Y0111979D02*
X0118829Y0111979D01*
X0119311Y0113577D02*
X0117231Y0113577D01*
X0117712Y0115176D02*
X0115632Y0115176D01*
X0116114Y0116774D02*
X0114034Y0116774D01*
X0114515Y0118373D02*
X0112435Y0118373D01*
X0112917Y0119971D02*
X0110837Y0119971D01*
X0111318Y0121570D02*
X0109238Y0121570D01*
X0109720Y0123168D02*
X0107639Y0123168D01*
X0108121Y0124767D02*
X0106041Y0124767D01*
X0106523Y0126365D02*
X0104442Y0126365D01*
X0104924Y0127964D02*
X0102844Y0127964D01*
X0104374Y0129562D02*
X0101245Y0129562D01*
X0099974Y0131161D02*
X0104374Y0131161D01*
X0104374Y0132759D02*
X0099974Y0132759D01*
X0099974Y0134358D02*
X0104374Y0134358D01*
X0104374Y0135956D02*
X0099974Y0135956D01*
X0099974Y0137555D02*
X0104374Y0137555D01*
X0104374Y0139153D02*
X0099974Y0139153D01*
X0099974Y0140752D02*
X0104374Y0140752D01*
X0104374Y0142350D02*
X0099974Y0142350D01*
X0100954Y0143949D02*
X0103394Y0143949D01*
X0102662Y0145547D02*
X0101686Y0145547D01*
X0101774Y0147146D02*
X0102574Y0147146D01*
X0102574Y0148745D02*
X0101774Y0148745D01*
X0101774Y0150343D02*
X0102574Y0150343D01*
X0102574Y0151942D02*
X0101774Y0151942D01*
X0101774Y0153540D02*
X0102574Y0153540D01*
X0103216Y0155139D02*
X0101132Y0155139D01*
X0099385Y0156737D02*
X0104963Y0156737D01*
X0106050Y0159492D02*
X0106796Y0159374D01*
X0106974Y0159374D01*
X0106974Y0166974D01*
X0107374Y0166974D01*
X0107374Y0167374D01*
X0106974Y0167374D01*
X0106974Y0166974D01*
X0102374Y0166974D01*
X0102374Y0163796D01*
X0102492Y0163050D01*
X0102726Y0162331D01*
X0103069Y0161658D01*
X0103513Y0161047D01*
X0104047Y0160513D01*
X0104658Y0160069D01*
X0105331Y0159726D01*
X0106050Y0159492D01*
X0106974Y0159934D02*
X0107374Y0159934D01*
X0107374Y0161533D02*
X0106974Y0161533D01*
X0106974Y0163131D02*
X0107374Y0163131D01*
X0107374Y0164730D02*
X0106974Y0164730D01*
X0106974Y0166328D02*
X0107374Y0166328D01*
X0106974Y0167374D02*
X0102374Y0167374D01*
X0102374Y0170552D01*
X0102492Y0171298D01*
X0102726Y0172017D01*
X0103069Y0172690D01*
X0103513Y0173301D01*
X0104047Y0173835D01*
X0104658Y0174279D01*
X0105331Y0174622D01*
X0106050Y0174856D01*
X0106796Y0174974D01*
X0106974Y0174974D01*
X0106974Y0167374D01*
X0106974Y0167927D02*
X0107374Y0167927D01*
X0107374Y0169525D02*
X0106974Y0169525D01*
X0106974Y0171124D02*
X0107374Y0171124D01*
X0107374Y0172722D02*
X0106974Y0172722D01*
X0106974Y0174321D02*
X0107374Y0174321D01*
X0104739Y0174321D02*
X0099609Y0174321D01*
X0097374Y0174321D02*
X0096974Y0174321D01*
X0096974Y0172722D02*
X0097374Y0172722D01*
X0097374Y0171124D02*
X0096974Y0171124D01*
X0096974Y0169525D02*
X0097374Y0169525D01*
X0097374Y0167927D02*
X0096974Y0167927D01*
X0096974Y0166328D02*
X0097374Y0166328D01*
X0097374Y0164730D02*
X0096974Y0164730D01*
X0096974Y0163131D02*
X0097374Y0163131D01*
X0097374Y0161533D02*
X0096974Y0161533D01*
X0096974Y0159934D02*
X0097374Y0159934D01*
X0099426Y0159934D02*
X0104922Y0159934D01*
X0103160Y0161533D02*
X0101188Y0161533D01*
X0101869Y0163131D02*
X0102479Y0163131D01*
X0102374Y0164730D02*
X0101974Y0164730D01*
X0101974Y0166328D02*
X0102374Y0166328D01*
X0102374Y0167927D02*
X0101974Y0167927D01*
X0101974Y0169525D02*
X0102374Y0169525D01*
X0102465Y0171124D02*
X0101883Y0171124D01*
X0101256Y0172722D02*
X0103092Y0172722D01*
X0084739Y0174321D02*
X0079609Y0174321D01*
X0079690Y0174279D02*
X0079017Y0174622D01*
X0078298Y0174856D01*
X0077552Y0174974D01*
X0077374Y0174974D01*
X0077374Y0167374D01*
X0081974Y0167374D01*
X0081974Y0170552D01*
X0081856Y0171298D01*
X0081622Y0172017D01*
X0081279Y0172690D01*
X0080835Y0173301D01*
X0080301Y0173835D01*
X0079690Y0174279D01*
X0081256Y0172722D02*
X0083092Y0172722D01*
X0082465Y0171124D02*
X0081883Y0171124D01*
X0081974Y0169525D02*
X0082374Y0169525D01*
X0082374Y0167927D02*
X0081974Y0167927D01*
X0081974Y0166974D02*
X0077374Y0166974D01*
X0077374Y0159374D01*
X0077552Y0159374D01*
X0078298Y0159492D01*
X0079017Y0159726D01*
X0079690Y0160069D01*
X0080301Y0160513D01*
X0080835Y0161047D01*
X0081279Y0161658D01*
X0081622Y0162331D01*
X0081856Y0163050D01*
X0081974Y0163796D01*
X0081974Y0166974D01*
X0081974Y0166328D02*
X0082374Y0166328D01*
X0082374Y0164730D02*
X0081974Y0164730D01*
X0081869Y0163131D02*
X0082479Y0163131D01*
X0083160Y0161533D02*
X0081188Y0161533D01*
X0079426Y0159934D02*
X0084922Y0159934D01*
X0077374Y0159934D02*
X0076974Y0159934D01*
X0076974Y0159374D02*
X0076974Y0166974D01*
X0077374Y0166974D01*
X0077374Y0167374D01*
X0076974Y0167374D01*
X0076974Y0166974D01*
X0072374Y0166974D01*
X0072374Y0163796D01*
X0072492Y0163050D01*
X0072726Y0162331D01*
X0073069Y0161658D01*
X0073513Y0161047D01*
X0074047Y0160513D01*
X0074658Y0160069D01*
X0075331Y0159726D01*
X0076050Y0159492D01*
X0076796Y0159374D01*
X0076974Y0159374D01*
X0074922Y0159934D02*
X0069426Y0159934D01*
X0067374Y0159934D02*
X0066974Y0159934D01*
X0066974Y0161533D02*
X0067374Y0161533D01*
X0067374Y0163131D02*
X0066974Y0163131D01*
X0066974Y0164730D02*
X0067374Y0164730D01*
X0067374Y0166328D02*
X0066974Y0166328D01*
X0066974Y0167927D02*
X0067374Y0167927D01*
X0067374Y0169525D02*
X0066974Y0169525D01*
X0066974Y0171124D02*
X0067374Y0171124D01*
X0067374Y0172722D02*
X0066974Y0172722D01*
X0066974Y0174321D02*
X0067374Y0174321D01*
X0069609Y0174321D02*
X0074739Y0174321D01*
X0074658Y0174279D02*
X0074047Y0173835D01*
X0073513Y0173301D01*
X0073069Y0172690D01*
X0072726Y0172017D01*
X0072492Y0171298D01*
X0072374Y0170552D01*
X0072374Y0167374D01*
X0076974Y0167374D01*
X0076974Y0174974D01*
X0076796Y0174974D01*
X0076050Y0174856D01*
X0075331Y0174622D01*
X0074658Y0174279D01*
X0073092Y0172722D02*
X0071256Y0172722D01*
X0071883Y0171124D02*
X0072465Y0171124D01*
X0072374Y0169525D02*
X0071974Y0169525D01*
X0071974Y0167927D02*
X0072374Y0167927D01*
X0072374Y0166328D02*
X0071974Y0166328D01*
X0071974Y0164730D02*
X0072374Y0164730D01*
X0072479Y0163131D02*
X0071869Y0163131D01*
X0071188Y0161533D02*
X0073160Y0161533D01*
X0076974Y0161533D02*
X0077374Y0161533D01*
X0077374Y0163131D02*
X0076974Y0163131D01*
X0076974Y0164730D02*
X0077374Y0164730D01*
X0077374Y0166328D02*
X0076974Y0166328D01*
X0076974Y0167927D02*
X0077374Y0167927D01*
X0077374Y0169525D02*
X0076974Y0169525D01*
X0076974Y0171124D02*
X0077374Y0171124D01*
X0077374Y0172722D02*
X0076974Y0172722D01*
X0076974Y0174321D02*
X0077374Y0174321D01*
X0067463Y0156737D02*
X0061885Y0156737D01*
X0063632Y0155139D02*
X0065716Y0155139D01*
X0065074Y0153540D02*
X0064274Y0153540D01*
X0057463Y0156737D02*
X0053774Y0156737D01*
X0053774Y0155139D02*
X0055716Y0155139D01*
X0055074Y0153540D02*
X0054274Y0153540D01*
X0054186Y0145547D02*
X0055162Y0145547D01*
X0055894Y0143949D02*
X0053774Y0143949D01*
X0053774Y0142350D02*
X0058092Y0142350D01*
X0061256Y0142350D02*
X0068092Y0142350D01*
X0065894Y0143949D02*
X0063454Y0143949D01*
X0064186Y0145547D02*
X0065162Y0145547D01*
X0030350Y0179116D02*
X0260652Y0179116D01*
X0276326Y0164730D02*
X0276528Y0164730D01*
X0276528Y0163131D02*
X0273730Y0163131D01*
X0276528Y0116774D02*
X0231783Y0116774D01*
X0232274Y0115176D02*
X0245670Y0115176D01*
X0244776Y0113577D02*
X0232199Y0113577D01*
X0231484Y0111979D02*
X0244574Y0111979D01*
X0244938Y0110380D02*
X0229328Y0110380D01*
X0229777Y0108782D02*
X0246061Y0108782D01*
X0246079Y0105585D02*
X0232274Y0105585D01*
X0232274Y0103986D02*
X0244946Y0103986D01*
X0244574Y0102388D02*
X0231706Y0102388D01*
X0230295Y0100789D02*
X0244769Y0100789D01*
X0245652Y0099191D02*
X0228790Y0099191D01*
X0231261Y0097592D02*
X0248215Y0097592D01*
X0246488Y0095994D02*
X0232106Y0095994D01*
X0232274Y0094395D02*
X0240435Y0094395D01*
X0238837Y0092797D02*
X0231875Y0092797D01*
X0231614Y0107183D02*
X0263867Y0107183D01*
X0265465Y0105585D02*
X0258269Y0105585D01*
X0261822Y0103986D02*
X0267064Y0103986D01*
X0273865Y0108782D02*
X0276528Y0108782D01*
X0276528Y0110380D02*
X0272266Y0110380D01*
X0270668Y0111979D02*
X0276528Y0111979D01*
X0276528Y0113577D02*
X0269069Y0113577D01*
X0267471Y0115176D02*
X0276528Y0115176D01*
X0276528Y0107183D02*
X0275463Y0107183D01*
X0276235Y0105585D02*
X0276528Y0105585D01*
X0276528Y0103986D02*
X0276274Y0103986D01*
X0276274Y0102388D02*
X0276528Y0102388D01*
X0276528Y0100789D02*
X0276274Y0100789D01*
X0276274Y0099191D02*
X0276528Y0099191D01*
X0276528Y0097592D02*
X0276274Y0097592D01*
X0276274Y0095994D02*
X0276528Y0095994D01*
X0276528Y0094395D02*
X0276274Y0094395D01*
X0276274Y0092797D02*
X0276528Y0092797D01*
X0276528Y0091198D02*
X0276274Y0091198D01*
X0276274Y0089600D02*
X0276528Y0089600D01*
X0276528Y0088001D02*
X0276274Y0088001D01*
X0276274Y0086403D02*
X0276528Y0086403D01*
X0276528Y0084804D02*
X0276274Y0084804D01*
X0276274Y0083206D02*
X0276528Y0083206D01*
X0276528Y0081607D02*
X0276274Y0081607D01*
X0276274Y0080009D02*
X0276528Y0080009D01*
X0276528Y0078410D02*
X0276274Y0078410D01*
X0276274Y0076811D02*
X0276528Y0076811D01*
X0276528Y0075213D02*
X0276274Y0075213D01*
X0276274Y0073614D02*
X0276528Y0073614D01*
X0276528Y0072016D02*
X0276274Y0072016D01*
X0276274Y0070417D02*
X0276528Y0070417D01*
X0276528Y0068819D02*
X0276274Y0068819D01*
X0276274Y0067220D02*
X0276528Y0067220D01*
X0276528Y0065622D02*
X0276274Y0065622D01*
X0276274Y0064023D02*
X0276528Y0064023D01*
X0276528Y0062425D02*
X0276274Y0062425D01*
X0276274Y0060826D02*
X0276528Y0060826D01*
X0276528Y0059228D02*
X0276274Y0059228D01*
X0276274Y0057629D02*
X0276528Y0057629D01*
X0276528Y0056031D02*
X0276274Y0056031D01*
X0276274Y0054432D02*
X0276528Y0054432D01*
X0276528Y0052834D02*
X0276274Y0052834D01*
X0276274Y0051235D02*
X0276528Y0051235D01*
X0276528Y0049637D02*
X0276274Y0049637D01*
X0276274Y0048038D02*
X0276528Y0048038D01*
X0276528Y0046440D02*
X0276274Y0046440D01*
X0276274Y0044841D02*
X0276528Y0044841D01*
X0276528Y0043243D02*
X0276019Y0043243D01*
X0276528Y0041644D02*
X0274943Y0041644D01*
X0276528Y0040046D02*
X0273344Y0040046D01*
X0271745Y0038447D02*
X0276528Y0038447D01*
X0276528Y0036849D02*
X0270147Y0036849D01*
X0268548Y0035250D02*
X0276528Y0035250D01*
X0276528Y0033652D02*
X0266950Y0033652D01*
X0267594Y0032053D02*
X0265351Y0032053D01*
X0271439Y0032053D02*
X0276528Y0032053D01*
X0276528Y0030455D02*
X0275392Y0030455D01*
X0129683Y0083206D02*
X0096941Y0083206D01*
X0017097Y0035250D02*
X0014474Y0035250D01*
X0014474Y0033652D02*
X0014575Y0033652D01*
X0014474Y0164730D02*
X0014675Y0164730D01*
M02*
