G75*
%MOIN*%
%OFA0B0*%
%FSLAX25Y25*%
%IPPOS*%
%LPD*%
%AMOC8*
5,1,8,0,0,1.08239X$1,22.5*
%
%ADD10C,0.12611*%
%ADD11C,0.06800*%
D10*
X0021485Y0025422D03*
X0143532Y0025422D03*
X0269517Y0021485D03*
X0143532Y0127784D03*
X0021485Y0127784D03*
X0021485Y0173060D03*
X0269517Y0173060D03*
D11*
X0252674Y0162174D02*
X0246674Y0162174D01*
X0246674Y0152174D02*
X0252674Y0152174D01*
X0252674Y0142174D02*
X0246674Y0142174D01*
X0246674Y0132174D02*
X0252674Y0132174D01*
X0227674Y0134674D02*
X0221674Y0134674D01*
X0221674Y0124674D02*
X0227674Y0124674D01*
X0227674Y0114674D02*
X0221674Y0114674D01*
X0221674Y0104674D02*
X0227674Y0104674D01*
X0227674Y0094674D02*
X0221674Y0094674D01*
X0221674Y0084674D02*
X0227674Y0084674D01*
X0227674Y0074674D02*
X0221674Y0074674D01*
X0221674Y0064674D02*
X0227674Y0064674D01*
X0227674Y0054674D02*
X0221674Y0054674D01*
X0221674Y0044674D02*
X0227674Y0044674D01*
X0227674Y0034674D02*
X0221674Y0034674D01*
X0221674Y0024674D02*
X0227674Y0024674D01*
X0246674Y0032174D02*
X0252674Y0032174D01*
X0252674Y0042174D02*
X0246674Y0042174D01*
X0246674Y0052174D02*
X0252674Y0052174D01*
X0252674Y0062174D02*
X0246674Y0062174D01*
X0249174Y0082174D02*
X0255174Y0082174D01*
X0255174Y0092174D02*
X0249174Y0092174D01*
X0249174Y0102174D02*
X0255174Y0102174D01*
X0255174Y0112174D02*
X0249174Y0112174D01*
X0227674Y0144674D02*
X0221674Y0144674D01*
X0221674Y0154674D02*
X0227674Y0154674D01*
X0227674Y0164674D02*
X0221674Y0164674D01*
X0167674Y0164674D02*
X0161674Y0164674D01*
X0161674Y0154674D02*
X0167674Y0154674D01*
X0167674Y0144674D02*
X0161674Y0144674D01*
X0161674Y0134674D02*
X0167674Y0134674D01*
X0167674Y0124674D02*
X0161674Y0124674D01*
X0161674Y0114674D02*
X0167674Y0114674D01*
X0167674Y0104674D02*
X0161674Y0104674D01*
X0161674Y0094674D02*
X0167674Y0094674D01*
X0167674Y0084674D02*
X0161674Y0084674D01*
X0161674Y0074674D02*
X0167674Y0074674D01*
X0167674Y0064674D02*
X0161674Y0064674D01*
X0161674Y0054674D02*
X0167674Y0054674D01*
X0167674Y0044674D02*
X0161674Y0044674D01*
X0161674Y0034674D02*
X0167674Y0034674D01*
X0167674Y0024674D02*
X0161674Y0024674D01*
X0137174Y0146674D02*
X0137174Y0152674D01*
X0127174Y0152674D02*
X0127174Y0146674D01*
X0117174Y0146674D02*
X0117174Y0152674D01*
X0107174Y0152674D02*
X0107174Y0146674D01*
X0097174Y0146674D02*
X0097174Y0152674D01*
X0087174Y0152674D02*
X0087174Y0146674D01*
X0069674Y0146674D02*
X0069674Y0152674D01*
X0059674Y0152674D02*
X0059674Y0146674D01*
X0049674Y0146674D02*
X0049674Y0152674D01*
X0039674Y0152674D02*
X0039674Y0146674D01*
X0029674Y0146674D02*
X0029674Y0152674D01*
X0019674Y0152674D02*
X0019674Y0146674D01*
X0039674Y0164174D02*
X0039674Y0170174D01*
X0049674Y0170174D02*
X0049674Y0164174D01*
X0067174Y0164174D02*
X0067174Y0170174D01*
X0077174Y0170174D02*
X0077174Y0164174D01*
X0087174Y0164174D02*
X0087174Y0170174D01*
X0097174Y0170174D02*
X0097174Y0164174D01*
X0107174Y0164174D02*
X0107174Y0170174D01*
X0117174Y0170174D02*
X0117174Y0164174D01*
M02*
