%
M48
M72
T01C0.04000
T02C0.11811
%
T01
X164674Y24674
X164674Y34674
X164674Y44674
X164674Y54674
X164674Y64674
X164674Y74674
X164674Y84674
X164674Y94674
X164674Y104674
X164674Y114674
X164674Y124674
X164674Y134674
X164674Y144674
X164674Y154674
X164674Y164674
X137174Y149674
X127174Y149674
X117174Y149674
X107174Y149674
X97174Y149674
X87174Y149674
X69674Y149674
X59674Y149674
X49674Y149674
X39674Y149674
X29674Y149674
X19674Y149674
X39674Y167174
X49674Y167174
X67174Y167174
X77174Y167174
X87174Y167174
X97174Y167174
X107174Y167174
X117174Y167174
X224674Y164674
X224674Y154674
X224674Y144674
X224674Y134674
X224674Y124674
X224674Y114674
X224674Y104674
X224674Y94674
X224674Y84674
X224674Y74674
X224674Y64674
X224674Y54674
X224674Y44674
X224674Y34674
X224674Y24674
X249674Y32174
X249674Y42174
X249674Y52174
X249674Y62174
X252174Y82174
X252174Y92174
X252174Y102174
X252174Y112174
X249674Y132174
X249674Y142174
X249674Y152174
X249674Y162174
T02
X21485Y25422
X143532Y25422
X269517Y21485
X143532Y127784
X21485Y127784
X21485Y173060
X269517Y173060
M30
