G75*
%MOIN*%
%OFA0B0*%
%FSLAX25Y25*%
%IPPOS*%
%LPD*%
%AMOC8*
5,1,8,0,0,1.08239X$1,22.5*
%
%ADD10C,0.06000*%
%ADD11OC8,0.05937*%
%ADD12OC8,0.06000*%
%ADD13C,0.07400*%
%ADD14C,0.06000*%
%ADD15C,0.01600*%
%ADD16C,0.02400*%
D10*
X0076300Y0141550D02*
X0076300Y0147550D01*
X0086300Y0147550D02*
X0086300Y0141550D01*
X0096300Y0141550D02*
X0096300Y0147550D01*
X0106300Y0147550D02*
X0106300Y0141550D01*
X0102050Y0175550D02*
X0096050Y0175550D01*
X0096050Y0185550D02*
X0102050Y0185550D01*
X0102050Y0195550D02*
X0096050Y0195550D01*
X0096050Y0205550D02*
X0102050Y0205550D01*
X0102050Y0215550D02*
X0096050Y0215550D01*
X0096050Y0225550D02*
X0102050Y0225550D01*
X0102050Y0235550D02*
X0096050Y0235550D01*
X0094800Y0258050D02*
X0094800Y0264050D01*
X0104800Y0264050D02*
X0104800Y0258050D01*
X0271050Y0260550D02*
X0277050Y0260550D01*
X0277050Y0250550D02*
X0271050Y0250550D01*
X0271050Y0240550D02*
X0277050Y0240550D01*
X0277050Y0230550D02*
X0271050Y0230550D01*
X0219050Y0037250D02*
X0219050Y0031250D01*
X0209050Y0031250D02*
X0209050Y0037250D01*
D11*
X0234050Y0065550D03*
X0234050Y0075550D03*
X0234050Y0085550D03*
X0234050Y0095550D03*
X0234050Y0105550D03*
X0234050Y0115550D03*
X0234050Y0125550D03*
X0234050Y0135550D03*
X0234050Y0145550D03*
X0234050Y0155550D03*
X0234050Y0165550D03*
X0234050Y0175550D03*
X0234050Y0185550D03*
X0234050Y0195550D03*
X0234050Y0205550D03*
X0234050Y0215550D03*
X0234050Y0225550D03*
X0234050Y0235550D03*
X0234050Y0245550D03*
X0234050Y0255550D03*
X0144050Y0255550D03*
X0144050Y0245550D03*
X0144050Y0235550D03*
X0144050Y0225550D03*
X0144050Y0215550D03*
X0144050Y0205550D03*
X0144050Y0195550D03*
X0144050Y0185550D03*
X0144050Y0175550D03*
X0144050Y0165550D03*
X0144050Y0155550D03*
X0144050Y0145550D03*
X0144050Y0135550D03*
X0144050Y0125550D03*
X0144050Y0115550D03*
X0144050Y0105550D03*
X0144050Y0095550D03*
X0144050Y0085550D03*
X0144050Y0075550D03*
X0144050Y0065550D03*
D12*
X0172550Y0035050D03*
X0183550Y0035050D03*
D13*
X0155050Y0025800D03*
X0145050Y0025800D03*
X0135050Y0025800D03*
X0121550Y0060550D03*
X0121550Y0090550D03*
X0269050Y0075550D03*
X0271250Y0064450D03*
X0271250Y0046650D03*
X0296850Y0046650D03*
X0296850Y0064450D03*
X0299050Y0075550D03*
X0296850Y0091650D03*
X0296850Y0109450D03*
X0299050Y0120550D03*
X0296850Y0136650D03*
X0296850Y0154450D03*
X0299050Y0165550D03*
X0296850Y0181650D03*
X0296850Y0199450D03*
X0299050Y0210550D03*
X0271250Y0199450D03*
X0269050Y0210550D03*
X0271250Y0181650D03*
X0269050Y0165550D03*
X0271250Y0154450D03*
X0271250Y0136650D03*
X0269050Y0120550D03*
X0271250Y0109450D03*
X0271250Y0091650D03*
D14*
X0100107Y0091554D03*
X0100107Y0099428D03*
X0100107Y0107302D03*
X0100107Y0115176D03*
X0100107Y0083680D03*
X0100107Y0075806D03*
X0100107Y0067932D03*
X0100107Y0060058D03*
X0100107Y0052184D03*
X0100107Y0044310D03*
X0013493Y0044310D03*
X0013493Y0052184D03*
X0013493Y0060058D03*
X0013493Y0067932D03*
X0013493Y0075806D03*
X0013493Y0083680D03*
X0013493Y0091554D03*
X0013493Y0099428D03*
X0013493Y0107302D03*
X0013493Y0115176D03*
D15*
X0007603Y0015350D02*
X0007747Y0273461D01*
X0306201Y0273461D01*
X0306201Y0015350D01*
X0007603Y0015350D01*
X0007604Y0016944D02*
X0014126Y0016944D01*
X0014568Y0016689D02*
X0017190Y0015986D01*
X0019906Y0015986D01*
X0022528Y0016689D01*
X0024880Y0018047D01*
X0026800Y0019966D01*
X0028157Y0022318D01*
X0028860Y0024940D01*
X0028860Y0027656D01*
X0028157Y0030278D01*
X0026800Y0032630D01*
X0024880Y0034550D01*
X0022528Y0035907D01*
X0019906Y0036610D01*
X0017190Y0036610D01*
X0014568Y0035907D01*
X0012216Y0034550D01*
X0010297Y0032630D01*
X0008939Y0030278D01*
X0008236Y0027656D01*
X0008236Y0024940D01*
X0008939Y0022318D01*
X0010297Y0019966D01*
X0012216Y0018047D01*
X0014568Y0016689D01*
X0011720Y0018543D02*
X0007604Y0018543D01*
X0007605Y0020141D02*
X0010196Y0020141D01*
X0009273Y0021740D02*
X0007606Y0021740D01*
X0007607Y0023338D02*
X0008666Y0023338D01*
X0008237Y0024937D02*
X0007608Y0024937D01*
X0007609Y0026535D02*
X0008236Y0026535D01*
X0008364Y0028134D02*
X0007610Y0028134D01*
X0007611Y0029732D02*
X0008793Y0029732D01*
X0009547Y0031331D02*
X0007612Y0031331D01*
X0007613Y0032929D02*
X0010596Y0032929D01*
X0012195Y0034528D02*
X0007613Y0034528D01*
X0007614Y0036126D02*
X0015385Y0036126D01*
X0014408Y0039710D02*
X0012578Y0039710D01*
X0010887Y0040410D01*
X0009593Y0041704D01*
X0008893Y0043395D01*
X0008893Y0045225D01*
X0009593Y0046916D01*
X0010887Y0048210D01*
X0010977Y0048247D01*
X0010887Y0048284D01*
X0009593Y0049578D01*
X0008893Y0051269D01*
X0008893Y0053099D01*
X0009593Y0054790D01*
X0010887Y0056084D01*
X0010977Y0056121D01*
X0010887Y0056158D01*
X0009593Y0057452D01*
X0008893Y0059143D01*
X0008893Y0060973D01*
X0009593Y0062664D01*
X0010887Y0063958D01*
X0010977Y0063995D01*
X0010887Y0064032D01*
X0009593Y0065326D01*
X0008893Y0067017D01*
X0008893Y0068847D01*
X0009593Y0070538D01*
X0010887Y0071832D01*
X0010977Y0071869D01*
X0010887Y0071906D01*
X0009593Y0073200D01*
X0008893Y0074891D01*
X0008893Y0076721D01*
X0009593Y0078412D01*
X0010887Y0079706D01*
X0010977Y0079743D01*
X0010887Y0079780D01*
X0009593Y0081074D01*
X0008893Y0082765D01*
X0008893Y0084595D01*
X0009593Y0086286D01*
X0010887Y0087580D01*
X0010977Y0087617D01*
X0010887Y0087654D01*
X0009593Y0088948D01*
X0008893Y0090639D01*
X0008893Y0092469D01*
X0009593Y0094160D01*
X0010887Y0095454D01*
X0010977Y0095491D01*
X0010887Y0095528D01*
X0009593Y0096822D01*
X0008893Y0098513D01*
X0008893Y0100343D01*
X0009593Y0102034D01*
X0010887Y0103328D01*
X0010977Y0103365D01*
X0010887Y0103402D01*
X0009593Y0104696D01*
X0008893Y0106387D01*
X0008893Y0108217D01*
X0009593Y0109908D01*
X0010887Y0111202D01*
X0010977Y0111239D01*
X0010887Y0111276D01*
X0009593Y0112570D01*
X0008893Y0114261D01*
X0008893Y0116091D01*
X0009593Y0117782D01*
X0010887Y0119076D01*
X0012578Y0119776D01*
X0014408Y0119776D01*
X0016099Y0119076D01*
X0017393Y0117782D01*
X0018093Y0116091D01*
X0018093Y0114261D01*
X0017393Y0112570D01*
X0016099Y0111276D01*
X0016008Y0111239D01*
X0016099Y0111202D01*
X0017393Y0109908D01*
X0018093Y0108217D01*
X0018093Y0106387D01*
X0017393Y0104696D01*
X0016099Y0103402D01*
X0016008Y0103365D01*
X0016099Y0103328D01*
X0017393Y0102034D01*
X0018093Y0100343D01*
X0018093Y0098513D01*
X0017393Y0096822D01*
X0016099Y0095528D01*
X0016008Y0095491D01*
X0016099Y0095454D01*
X0017393Y0094160D01*
X0018093Y0092469D01*
X0018093Y0090639D01*
X0017393Y0088948D01*
X0016099Y0087654D01*
X0016008Y0087617D01*
X0016099Y0087580D01*
X0017393Y0086286D01*
X0018093Y0084595D01*
X0018093Y0082765D01*
X0017393Y0081074D01*
X0016099Y0079780D01*
X0016008Y0079743D01*
X0016099Y0079706D01*
X0017393Y0078412D01*
X0018093Y0076721D01*
X0018093Y0074891D01*
X0017393Y0073200D01*
X0016099Y0071906D01*
X0016008Y0071869D01*
X0016099Y0071832D01*
X0017393Y0070538D01*
X0018093Y0068847D01*
X0018093Y0067017D01*
X0017393Y0065326D01*
X0016099Y0064032D01*
X0016008Y0063995D01*
X0016099Y0063958D01*
X0017393Y0062664D01*
X0018093Y0060973D01*
X0018093Y0059143D01*
X0017393Y0057452D01*
X0016099Y0056158D01*
X0016008Y0056121D01*
X0016099Y0056084D01*
X0017393Y0054790D01*
X0018093Y0053099D01*
X0018093Y0051269D01*
X0017393Y0049578D01*
X0016099Y0048284D01*
X0016008Y0048247D01*
X0016099Y0048210D01*
X0017393Y0046916D01*
X0018093Y0045225D01*
X0018093Y0043395D01*
X0017393Y0041704D01*
X0016099Y0040410D01*
X0014408Y0039710D01*
X0016610Y0040922D02*
X0096990Y0040922D01*
X0097501Y0040410D02*
X0099192Y0039710D01*
X0101022Y0039710D01*
X0102713Y0040410D01*
X0104007Y0041704D01*
X0104707Y0043395D01*
X0104707Y0045225D01*
X0104007Y0046916D01*
X0102713Y0048210D01*
X0102623Y0048247D01*
X0102713Y0048284D01*
X0103679Y0049250D01*
X0107357Y0049250D01*
X0108386Y0049676D01*
X0109174Y0050464D01*
X0113424Y0054714D01*
X0113850Y0055743D01*
X0113850Y0103890D01*
X0132710Y0122750D01*
X0140389Y0122750D01*
X0142158Y0120981D01*
X0145942Y0120981D01*
X0148618Y0123658D01*
X0148618Y0127442D01*
X0145942Y0130118D01*
X0142158Y0130118D01*
X0140389Y0128350D01*
X0130993Y0128350D01*
X0129964Y0127924D01*
X0109464Y0107424D01*
X0108676Y0106636D01*
X0108250Y0105607D01*
X0108250Y0057460D01*
X0105640Y0054850D01*
X0103946Y0054850D01*
X0102713Y0056084D01*
X0102623Y0056121D01*
X0102713Y0056158D01*
X0104007Y0057452D01*
X0104707Y0059143D01*
X0104707Y0060973D01*
X0104007Y0062664D01*
X0102713Y0063958D01*
X0102623Y0063995D01*
X0102713Y0064032D01*
X0104007Y0065326D01*
X0104707Y0067017D01*
X0104707Y0068847D01*
X0104007Y0070538D01*
X0102713Y0071832D01*
X0102623Y0071869D01*
X0102713Y0071906D01*
X0104007Y0073200D01*
X0104707Y0074891D01*
X0104707Y0076721D01*
X0104007Y0078412D01*
X0102713Y0079706D01*
X0102623Y0079743D01*
X0102713Y0079780D01*
X0104007Y0081074D01*
X0104707Y0082765D01*
X0104707Y0084595D01*
X0104007Y0086286D01*
X0102713Y0087580D01*
X0102623Y0087617D01*
X0102713Y0087654D01*
X0104007Y0088948D01*
X0104707Y0090639D01*
X0104707Y0092469D01*
X0104007Y0094160D01*
X0102713Y0095454D01*
X0102623Y0095491D01*
X0102713Y0095528D01*
X0104007Y0096822D01*
X0104707Y0098513D01*
X0104707Y0100343D01*
X0104007Y0102034D01*
X0102713Y0103328D01*
X0102623Y0103365D01*
X0102713Y0103402D01*
X0104007Y0104696D01*
X0104707Y0106387D01*
X0104707Y0108217D01*
X0104007Y0109908D01*
X0102751Y0111164D01*
X0103234Y0111515D01*
X0103768Y0112049D01*
X0104212Y0112660D01*
X0104555Y0113333D01*
X0104789Y0114052D01*
X0104907Y0114798D01*
X0104907Y0115176D01*
X0104907Y0115554D01*
X0104789Y0116300D01*
X0104555Y0117019D01*
X0104212Y0117692D01*
X0103768Y0118303D01*
X0103234Y0118837D01*
X0102623Y0119281D01*
X0101950Y0119624D01*
X0101231Y0119858D01*
X0100485Y0119976D01*
X0100107Y0119976D01*
X0099729Y0119976D01*
X0098983Y0119858D01*
X0098265Y0119624D01*
X0097591Y0119281D01*
X0096980Y0118837D01*
X0096446Y0118303D01*
X0096002Y0117692D01*
X0095659Y0117019D01*
X0095425Y0116300D01*
X0095307Y0115554D01*
X0095307Y0115176D01*
X0100107Y0115176D01*
X0100107Y0115176D01*
X0095307Y0115176D01*
X0095307Y0114798D01*
X0095425Y0114052D01*
X0095659Y0113333D01*
X0096002Y0112660D01*
X0096446Y0112049D01*
X0096980Y0111515D01*
X0097463Y0111164D01*
X0096207Y0109908D01*
X0095507Y0108217D01*
X0095507Y0106387D01*
X0096207Y0104696D01*
X0097501Y0103402D01*
X0097592Y0103365D01*
X0097501Y0103328D01*
X0096207Y0102034D01*
X0095507Y0100343D01*
X0095507Y0098513D01*
X0096207Y0096822D01*
X0097501Y0095528D01*
X0097592Y0095491D01*
X0097501Y0095454D01*
X0096207Y0094160D01*
X0095507Y0092469D01*
X0095507Y0090639D01*
X0096207Y0088948D01*
X0097501Y0087654D01*
X0097592Y0087617D01*
X0097501Y0087580D01*
X0096207Y0086286D01*
X0095507Y0084595D01*
X0095507Y0082765D01*
X0096207Y0081074D01*
X0097501Y0079780D01*
X0097592Y0079743D01*
X0097501Y0079706D01*
X0096207Y0078412D01*
X0095507Y0076721D01*
X0095507Y0074891D01*
X0096207Y0073200D01*
X0097501Y0071906D01*
X0097592Y0071869D01*
X0097501Y0071832D01*
X0096207Y0070538D01*
X0095507Y0068847D01*
X0095507Y0067017D01*
X0096207Y0065326D01*
X0097501Y0064032D01*
X0097592Y0063995D01*
X0097501Y0063958D01*
X0096394Y0062850D01*
X0092960Y0062850D01*
X0088600Y0067210D01*
X0088600Y0119890D01*
X0095460Y0126750D01*
X0115357Y0126750D01*
X0116386Y0127176D01*
X0117174Y0127964D01*
X0121960Y0132750D01*
X0140389Y0132750D01*
X0142158Y0130981D01*
X0145942Y0130981D01*
X0148618Y0133658D01*
X0148618Y0137442D01*
X0145942Y0140118D01*
X0142158Y0140118D01*
X0140389Y0138350D01*
X0120243Y0138350D01*
X0119214Y0137924D01*
X0113640Y0132350D01*
X0093743Y0132350D01*
X0092714Y0131924D01*
X0084214Y0123424D01*
X0083426Y0122636D01*
X0083000Y0121607D01*
X0083000Y0065493D01*
X0083426Y0064464D01*
X0089426Y0058464D01*
X0090214Y0057676D01*
X0091243Y0057250D01*
X0096410Y0057250D01*
X0097501Y0056158D01*
X0097591Y0056121D01*
X0097501Y0056084D01*
X0096207Y0054790D01*
X0095507Y0053099D01*
X0095507Y0051269D01*
X0096207Y0049578D01*
X0097501Y0048284D01*
X0097591Y0048247D01*
X0097501Y0048210D01*
X0096207Y0046916D01*
X0095507Y0045225D01*
X0095507Y0043395D01*
X0096207Y0041704D01*
X0097501Y0040410D01*
X0095869Y0042520D02*
X0017731Y0042520D01*
X0018093Y0044119D02*
X0095507Y0044119D01*
X0095711Y0045717D02*
X0017889Y0045717D01*
X0016992Y0047316D02*
X0096608Y0047316D01*
X0096871Y0048914D02*
X0016729Y0048914D01*
X0017780Y0050513D02*
X0095820Y0050513D01*
X0095507Y0052111D02*
X0018093Y0052111D01*
X0017840Y0053710D02*
X0095760Y0053710D01*
X0096726Y0055308D02*
X0016874Y0055308D01*
X0016847Y0056907D02*
X0096753Y0056907D01*
X0096845Y0063301D02*
X0092509Y0063301D01*
X0090910Y0064899D02*
X0096634Y0064899D01*
X0095722Y0066498D02*
X0089312Y0066498D01*
X0088600Y0068096D02*
X0095507Y0068096D01*
X0095858Y0069695D02*
X0088600Y0069695D01*
X0088600Y0071293D02*
X0096963Y0071293D01*
X0096516Y0072892D02*
X0088600Y0072892D01*
X0088600Y0074490D02*
X0095673Y0074490D01*
X0095507Y0076089D02*
X0088600Y0076089D01*
X0088600Y0077687D02*
X0095907Y0077687D01*
X0097082Y0079286D02*
X0088600Y0079286D01*
X0088600Y0080884D02*
X0096397Y0080884D01*
X0095624Y0082483D02*
X0088600Y0082483D01*
X0088600Y0084082D02*
X0095507Y0084082D01*
X0095957Y0085680D02*
X0088600Y0085680D01*
X0088600Y0087279D02*
X0097200Y0087279D01*
X0096279Y0088877D02*
X0088600Y0088877D01*
X0088600Y0090476D02*
X0095575Y0090476D01*
X0095507Y0092074D02*
X0088600Y0092074D01*
X0088600Y0093673D02*
X0096006Y0093673D01*
X0097319Y0095271D02*
X0088600Y0095271D01*
X0088600Y0096870D02*
X0096188Y0096870D01*
X0095526Y0098468D02*
X0088600Y0098468D01*
X0088600Y0100067D02*
X0095507Y0100067D01*
X0096055Y0101665D02*
X0088600Y0101665D01*
X0088600Y0103264D02*
X0097437Y0103264D01*
X0096139Y0104862D02*
X0088600Y0104862D01*
X0088600Y0106461D02*
X0095507Y0106461D01*
X0095507Y0108059D02*
X0088600Y0108059D01*
X0088600Y0109658D02*
X0096104Y0109658D01*
X0097336Y0111256D02*
X0088600Y0111256D01*
X0088600Y0112855D02*
X0095903Y0112855D01*
X0095362Y0114453D02*
X0088600Y0114453D01*
X0088600Y0116052D02*
X0095386Y0116052D01*
X0095981Y0117650D02*
X0088600Y0117650D01*
X0088600Y0119249D02*
X0097547Y0119249D01*
X0100107Y0119249D02*
X0100107Y0119249D01*
X0100107Y0119976D02*
X0100107Y0115176D01*
X0100107Y0115176D01*
X0100107Y0119976D01*
X0100107Y0117650D02*
X0100107Y0117650D01*
X0100107Y0116052D02*
X0100107Y0116052D01*
X0100107Y0115176D02*
X0104907Y0115176D01*
X0100107Y0115176D01*
X0100107Y0115176D01*
X0102668Y0119249D02*
X0121289Y0119249D01*
X0122887Y0120847D02*
X0089557Y0120847D01*
X0091156Y0122446D02*
X0124486Y0122446D01*
X0126085Y0124044D02*
X0092754Y0124044D01*
X0094353Y0125643D02*
X0127683Y0125643D01*
X0129282Y0127241D02*
X0116451Y0127241D01*
X0118050Y0128840D02*
X0140879Y0128840D01*
X0141102Y0132037D02*
X0121247Y0132037D01*
X0119648Y0130438D02*
X0153750Y0130438D01*
X0153750Y0128840D02*
X0147221Y0128840D01*
X0148618Y0127241D02*
X0153750Y0127241D01*
X0153750Y0125643D02*
X0148618Y0125643D01*
X0148618Y0124044D02*
X0153750Y0124044D01*
X0153750Y0122446D02*
X0147407Y0122446D01*
X0145942Y0120118D02*
X0148618Y0117442D01*
X0148618Y0113658D01*
X0145942Y0110981D01*
X0142158Y0110981D01*
X0139481Y0113658D01*
X0139481Y0117442D01*
X0142158Y0120118D01*
X0145942Y0120118D01*
X0146812Y0119249D02*
X0153750Y0119249D01*
X0153750Y0120847D02*
X0130807Y0120847D01*
X0129209Y0119249D02*
X0141288Y0119249D01*
X0139689Y0117650D02*
X0127610Y0117650D01*
X0126012Y0116052D02*
X0139481Y0116052D01*
X0139481Y0114453D02*
X0124413Y0114453D01*
X0122815Y0112855D02*
X0140284Y0112855D01*
X0141883Y0111256D02*
X0121216Y0111256D01*
X0119617Y0109658D02*
X0141697Y0109658D01*
X0142158Y0110118D02*
X0139481Y0107442D01*
X0139481Y0103658D01*
X0142158Y0100981D01*
X0145942Y0100981D01*
X0148618Y0103658D01*
X0148618Y0107442D01*
X0145942Y0110118D01*
X0142158Y0110118D01*
X0140098Y0108059D02*
X0118019Y0108059D01*
X0116420Y0106461D02*
X0139481Y0106461D01*
X0139481Y0104862D02*
X0114822Y0104862D01*
X0113850Y0103264D02*
X0139876Y0103264D01*
X0141474Y0101665D02*
X0113850Y0101665D01*
X0113850Y0100067D02*
X0142106Y0100067D01*
X0142158Y0100118D02*
X0139481Y0097442D01*
X0139481Y0093658D01*
X0142158Y0090981D01*
X0145942Y0090981D01*
X0148618Y0093658D01*
X0148618Y0097442D01*
X0145942Y0100118D01*
X0142158Y0100118D01*
X0140507Y0098468D02*
X0113850Y0098468D01*
X0113850Y0096870D02*
X0139481Y0096870D01*
X0139481Y0095271D02*
X0124002Y0095271D01*
X0124552Y0095043D02*
X0122604Y0095850D01*
X0120496Y0095850D01*
X0118548Y0095043D01*
X0117057Y0093552D01*
X0116250Y0091604D01*
X0116250Y0089496D01*
X0117057Y0087548D01*
X0118548Y0086057D01*
X0120496Y0085250D01*
X0122604Y0085250D01*
X0124552Y0086057D01*
X0126043Y0087548D01*
X0126127Y0087750D01*
X0127890Y0087750D01*
X0132464Y0083176D01*
X0133493Y0082750D01*
X0140389Y0082750D01*
X0142158Y0080981D01*
X0145942Y0080981D01*
X0148618Y0083658D01*
X0148618Y0087442D01*
X0145942Y0090118D01*
X0142158Y0090118D01*
X0140389Y0088350D01*
X0135210Y0088350D01*
X0131424Y0092136D01*
X0130636Y0092924D01*
X0129607Y0093350D01*
X0126127Y0093350D01*
X0126043Y0093552D01*
X0124552Y0095043D01*
X0125923Y0093673D02*
X0139481Y0093673D01*
X0141065Y0092074D02*
X0131486Y0092074D01*
X0133084Y0090476D02*
X0153750Y0090476D01*
X0153750Y0092074D02*
X0147035Y0092074D01*
X0148618Y0093673D02*
X0153750Y0093673D01*
X0153750Y0095271D02*
X0148618Y0095271D01*
X0148618Y0096870D02*
X0153750Y0096870D01*
X0153750Y0098468D02*
X0147593Y0098468D01*
X0145994Y0100067D02*
X0153750Y0100067D01*
X0153750Y0101665D02*
X0146626Y0101665D01*
X0148224Y0103264D02*
X0153750Y0103264D01*
X0153750Y0104862D02*
X0148618Y0104862D01*
X0148618Y0106461D02*
X0153750Y0106461D01*
X0153750Y0108059D02*
X0148002Y0108059D01*
X0146403Y0109658D02*
X0153750Y0109658D01*
X0153750Y0111256D02*
X0146217Y0111256D01*
X0147816Y0112855D02*
X0153750Y0112855D01*
X0153750Y0114453D02*
X0148618Y0114453D01*
X0148618Y0116052D02*
X0153750Y0116052D01*
X0153750Y0117650D02*
X0148411Y0117650D01*
X0140693Y0122446D02*
X0132406Y0122446D01*
X0119690Y0117650D02*
X0104234Y0117650D01*
X0104828Y0116052D02*
X0118092Y0116052D01*
X0116493Y0114453D02*
X0104852Y0114453D01*
X0104311Y0112855D02*
X0114895Y0112855D01*
X0113296Y0111256D02*
X0102878Y0111256D01*
X0104110Y0109658D02*
X0111698Y0109658D01*
X0110099Y0108059D02*
X0104707Y0108059D01*
X0104707Y0106461D02*
X0108604Y0106461D01*
X0108250Y0104862D02*
X0104075Y0104862D01*
X0102777Y0103264D02*
X0108250Y0103264D01*
X0108250Y0101665D02*
X0104159Y0101665D01*
X0104707Y0100067D02*
X0108250Y0100067D01*
X0108250Y0098468D02*
X0104689Y0098468D01*
X0104026Y0096870D02*
X0108250Y0096870D01*
X0108250Y0095271D02*
X0102895Y0095271D01*
X0104209Y0093673D02*
X0108250Y0093673D01*
X0108250Y0092074D02*
X0104707Y0092074D01*
X0104639Y0090476D02*
X0108250Y0090476D01*
X0108250Y0088877D02*
X0103936Y0088877D01*
X0103014Y0087279D02*
X0108250Y0087279D01*
X0108250Y0085680D02*
X0104258Y0085680D01*
X0104707Y0084082D02*
X0108250Y0084082D01*
X0108250Y0082483D02*
X0104590Y0082483D01*
X0103817Y0080884D02*
X0108250Y0080884D01*
X0108250Y0079286D02*
X0103132Y0079286D01*
X0104307Y0077687D02*
X0108250Y0077687D01*
X0108250Y0076089D02*
X0104707Y0076089D01*
X0104541Y0074490D02*
X0108250Y0074490D01*
X0108250Y0072892D02*
X0103698Y0072892D01*
X0103251Y0071293D02*
X0108250Y0071293D01*
X0108250Y0069695D02*
X0104356Y0069695D01*
X0104707Y0068096D02*
X0108250Y0068096D01*
X0108250Y0066498D02*
X0104492Y0066498D01*
X0103580Y0064899D02*
X0108250Y0064899D01*
X0108250Y0063301D02*
X0103369Y0063301D01*
X0104405Y0061702D02*
X0108250Y0061702D01*
X0108250Y0060104D02*
X0104707Y0060104D01*
X0104443Y0058505D02*
X0108250Y0058505D01*
X0107697Y0056907D02*
X0103461Y0056907D01*
X0103488Y0055308D02*
X0106099Y0055308D01*
X0109223Y0050513D02*
X0124877Y0050513D01*
X0123279Y0052111D02*
X0110821Y0052111D01*
X0112420Y0053710D02*
X0121680Y0053710D01*
X0120082Y0055308D02*
X0113670Y0055308D01*
X0113850Y0056907D02*
X0117698Y0056907D01*
X0117057Y0057548D02*
X0118548Y0056057D01*
X0119889Y0055501D01*
X0119964Y0055426D01*
X0142250Y0033140D01*
X0142250Y0030377D01*
X0142048Y0030293D01*
X0140557Y0028802D01*
X0140165Y0027856D01*
X0140147Y0027911D01*
X0139754Y0028683D01*
X0139245Y0029383D01*
X0138633Y0029995D01*
X0137933Y0030504D01*
X0137161Y0030897D01*
X0136338Y0031165D01*
X0135483Y0031300D01*
X0135050Y0031300D01*
X0135050Y0025800D01*
X0135050Y0025800D01*
X0135050Y0031300D01*
X0134617Y0031300D01*
X0133762Y0031165D01*
X0132939Y0030897D01*
X0132167Y0030504D01*
X0131467Y0029995D01*
X0130855Y0029383D01*
X0130346Y0028683D01*
X0129953Y0027911D01*
X0129685Y0027088D01*
X0129550Y0026233D01*
X0129550Y0025800D01*
X0135050Y0025800D01*
X0135050Y0020300D01*
X0135483Y0020300D01*
X0136338Y0020435D01*
X0137161Y0020703D01*
X0137933Y0021096D01*
X0138633Y0021605D01*
X0139245Y0022217D01*
X0139754Y0022917D01*
X0140147Y0023689D01*
X0140165Y0023744D01*
X0140557Y0022798D01*
X0142048Y0021307D01*
X0143996Y0020500D01*
X0146104Y0020500D01*
X0148052Y0021307D01*
X0149543Y0022798D01*
X0150050Y0024022D01*
X0150557Y0022798D01*
X0152048Y0021307D01*
X0153996Y0020500D01*
X0156104Y0020500D01*
X0158052Y0021307D01*
X0159543Y0022798D01*
X0160350Y0024746D01*
X0160350Y0026854D01*
X0159543Y0028802D01*
X0158778Y0029568D01*
X0161960Y0032750D01*
X0168345Y0032750D01*
X0170645Y0030450D01*
X0174455Y0030450D01*
X0177150Y0033145D01*
X0177150Y0036955D01*
X0174455Y0039650D01*
X0170645Y0039650D01*
X0169345Y0038350D01*
X0160243Y0038350D01*
X0159214Y0037924D01*
X0158426Y0037136D01*
X0153464Y0032174D01*
X0152676Y0031386D01*
X0152260Y0030381D01*
X0152048Y0030293D01*
X0150557Y0028802D01*
X0150050Y0027578D01*
X0149543Y0028802D01*
X0148052Y0030293D01*
X0147850Y0030377D01*
X0147850Y0034857D01*
X0147424Y0035886D01*
X0125903Y0057407D01*
X0126043Y0057548D01*
X0126850Y0059496D01*
X0126850Y0061604D01*
X0126043Y0063552D01*
X0124552Y0065043D01*
X0122604Y0065850D01*
X0120496Y0065850D01*
X0118548Y0065043D01*
X0117057Y0063552D01*
X0116250Y0061604D01*
X0116250Y0059496D01*
X0117057Y0057548D01*
X0116660Y0058505D02*
X0113850Y0058505D01*
X0113850Y0060104D02*
X0116250Y0060104D01*
X0116291Y0061702D02*
X0113850Y0061702D01*
X0113850Y0063301D02*
X0116953Y0063301D01*
X0118404Y0064899D02*
X0113850Y0064899D01*
X0113850Y0066498D02*
X0139481Y0066498D01*
X0139481Y0067442D02*
X0139481Y0063658D01*
X0142158Y0060981D01*
X0145942Y0060981D01*
X0148618Y0063658D01*
X0148618Y0067442D01*
X0145942Y0070118D01*
X0142158Y0070118D01*
X0139481Y0067442D01*
X0140136Y0068096D02*
X0113850Y0068096D01*
X0113850Y0069695D02*
X0141734Y0069695D01*
X0142158Y0070981D02*
X0145942Y0070981D01*
X0148618Y0073658D01*
X0148618Y0077442D01*
X0145942Y0080118D01*
X0142158Y0080118D01*
X0139481Y0077442D01*
X0139481Y0073658D01*
X0142158Y0070981D01*
X0141846Y0071293D02*
X0113850Y0071293D01*
X0113850Y0072892D02*
X0140247Y0072892D01*
X0139481Y0074490D02*
X0113850Y0074490D01*
X0113850Y0076089D02*
X0139481Y0076089D01*
X0139727Y0077687D02*
X0113850Y0077687D01*
X0113850Y0079286D02*
X0141325Y0079286D01*
X0140656Y0082483D02*
X0113850Y0082483D01*
X0113850Y0080884D02*
X0153750Y0080884D01*
X0153750Y0080243D02*
X0154176Y0079214D01*
X0165426Y0067964D01*
X0166214Y0067176D01*
X0167243Y0066750D01*
X0175640Y0066750D01*
X0181000Y0061390D01*
X0181000Y0039005D01*
X0178950Y0036955D01*
X0178950Y0033145D01*
X0181645Y0030450D01*
X0185455Y0030450D01*
X0188150Y0033145D01*
X0188150Y0036955D01*
X0186600Y0038505D01*
X0186600Y0063107D01*
X0186174Y0064136D01*
X0185386Y0064924D01*
X0178386Y0071924D01*
X0177357Y0072350D01*
X0168960Y0072350D01*
X0159350Y0081960D01*
X0159350Y0233607D01*
X0158924Y0234636D01*
X0158136Y0235424D01*
X0148618Y0244941D01*
X0148618Y0247442D01*
X0145942Y0250118D01*
X0142158Y0250118D01*
X0140389Y0248350D01*
X0125210Y0248350D01*
X0110136Y0263424D01*
X0109400Y0263729D01*
X0109400Y0264965D01*
X0108700Y0266656D01*
X0107406Y0267950D01*
X0105715Y0268650D01*
X0103885Y0268650D01*
X0102194Y0267950D01*
X0100900Y0266656D01*
X0100200Y0264965D01*
X0100200Y0257135D01*
X0100900Y0255444D01*
X0101817Y0254527D01*
X0100390Y0253100D01*
X0088243Y0253100D01*
X0087214Y0252674D01*
X0077926Y0243386D01*
X0077500Y0242357D01*
X0077500Y0189710D01*
X0074714Y0186924D01*
X0073926Y0186136D01*
X0073500Y0185107D01*
X0073500Y0151255D01*
X0072400Y0150156D01*
X0071700Y0148465D01*
X0071700Y0140635D01*
X0072400Y0138944D01*
X0073694Y0137650D01*
X0075385Y0136950D01*
X0077215Y0136950D01*
X0078906Y0137650D01*
X0080200Y0138944D01*
X0080900Y0140635D01*
X0080900Y0148465D01*
X0080200Y0150156D01*
X0079100Y0151255D01*
X0079100Y0183390D01*
X0082674Y0186964D01*
X0083100Y0187993D01*
X0083100Y0240640D01*
X0089960Y0247500D01*
X0102107Y0247500D01*
X0103136Y0247926D01*
X0107174Y0251964D01*
X0107600Y0252993D01*
X0107600Y0254345D01*
X0108700Y0255444D01*
X0109138Y0256502D01*
X0122464Y0243176D01*
X0123493Y0242750D01*
X0140389Y0242750D01*
X0142158Y0240981D01*
X0144659Y0240981D01*
X0145522Y0240118D01*
X0142158Y0240118D01*
X0139481Y0237442D01*
X0139481Y0233658D01*
X0142158Y0230981D01*
X0145942Y0230981D01*
X0148618Y0233658D01*
X0148618Y0237022D01*
X0153750Y0231890D01*
X0153750Y0080243D01*
X0154146Y0079286D02*
X0146775Y0079286D01*
X0148373Y0077687D02*
X0155703Y0077687D01*
X0157301Y0076089D02*
X0148618Y0076089D01*
X0148618Y0074490D02*
X0158900Y0074490D01*
X0160498Y0072892D02*
X0147853Y0072892D01*
X0146254Y0071293D02*
X0162097Y0071293D01*
X0163695Y0069695D02*
X0146366Y0069695D01*
X0147964Y0068096D02*
X0165294Y0068096D01*
X0168418Y0072892D02*
X0216250Y0072892D01*
X0216250Y0074490D02*
X0166819Y0074490D01*
X0165221Y0076089D02*
X0216250Y0076089D01*
X0216250Y0077687D02*
X0163622Y0077687D01*
X0162024Y0079286D02*
X0216250Y0079286D01*
X0216250Y0080884D02*
X0160425Y0080884D01*
X0159350Y0082483D02*
X0216250Y0082483D01*
X0216250Y0084082D02*
X0159350Y0084082D01*
X0159350Y0085680D02*
X0216250Y0085680D01*
X0216250Y0087279D02*
X0159350Y0087279D01*
X0159350Y0088877D02*
X0216250Y0088877D01*
X0216250Y0090476D02*
X0159350Y0090476D01*
X0159350Y0092074D02*
X0216250Y0092074D01*
X0216250Y0093673D02*
X0159350Y0093673D01*
X0159350Y0095271D02*
X0216250Y0095271D01*
X0216250Y0096870D02*
X0159350Y0096870D01*
X0159350Y0098468D02*
X0216250Y0098468D01*
X0216250Y0100067D02*
X0159350Y0100067D01*
X0159350Y0101665D02*
X0216481Y0101665D01*
X0216676Y0102136D02*
X0216250Y0101107D01*
X0216250Y0040955D01*
X0215150Y0039856D01*
X0214450Y0038165D01*
X0214450Y0030335D01*
X0215150Y0028644D01*
X0216444Y0027350D01*
X0218135Y0026650D01*
X0219965Y0026650D01*
X0221656Y0027350D01*
X0222950Y0028644D01*
X0223650Y0030335D01*
X0223650Y0038165D01*
X0222950Y0039856D01*
X0221850Y0040955D01*
X0221850Y0099390D01*
X0225210Y0102750D01*
X0230389Y0102750D01*
X0232158Y0100981D01*
X0235942Y0100981D01*
X0238618Y0103658D01*
X0238618Y0107442D01*
X0235942Y0110118D01*
X0232158Y0110118D01*
X0230389Y0108350D01*
X0223493Y0108350D01*
X0222464Y0107924D01*
X0217464Y0102924D01*
X0216676Y0102136D01*
X0217804Y0103264D02*
X0159350Y0103264D01*
X0159350Y0104862D02*
X0219402Y0104862D01*
X0221001Y0106461D02*
X0159350Y0106461D01*
X0159350Y0108059D02*
X0222791Y0108059D01*
X0224125Y0101665D02*
X0231474Y0101665D01*
X0232158Y0100118D02*
X0229481Y0097442D01*
X0229481Y0093658D01*
X0232158Y0090981D01*
X0235942Y0090981D01*
X0237711Y0092750D01*
X0245857Y0092750D01*
X0246886Y0093176D01*
X0250636Y0096926D01*
X0251424Y0097714D01*
X0251850Y0098743D01*
X0251850Y0108890D01*
X0255636Y0112676D01*
X0256424Y0113464D01*
X0256850Y0114493D01*
X0256850Y0127890D01*
X0257386Y0128426D01*
X0258174Y0129214D01*
X0258600Y0130243D01*
X0258600Y0149890D01*
X0263174Y0154464D01*
X0263600Y0155493D01*
X0263600Y0187840D01*
X0269994Y0194234D01*
X0270196Y0194150D01*
X0272304Y0194150D01*
X0274252Y0194957D01*
X0275743Y0196448D01*
X0276550Y0198396D01*
X0276550Y0200504D01*
X0275743Y0202452D01*
X0274252Y0203943D01*
X0274050Y0204027D01*
X0274050Y0208771D01*
X0274350Y0209496D01*
X0274350Y0211604D01*
X0273543Y0213552D01*
X0272052Y0215043D01*
X0270104Y0215850D01*
X0267996Y0215850D01*
X0266048Y0215043D01*
X0264557Y0213552D01*
X0263750Y0211604D01*
X0263750Y0209496D01*
X0264557Y0207548D01*
X0266048Y0206057D01*
X0267996Y0205250D01*
X0268450Y0205250D01*
X0268450Y0204027D01*
X0268248Y0203943D01*
X0266757Y0202452D01*
X0265950Y0200504D01*
X0265950Y0198396D01*
X0266034Y0198194D01*
X0258426Y0190586D01*
X0258000Y0189557D01*
X0258000Y0157210D01*
X0253426Y0152636D01*
X0253000Y0151607D01*
X0253000Y0131960D01*
X0251676Y0130636D01*
X0251250Y0129607D01*
X0251250Y0116210D01*
X0246676Y0111636D01*
X0246250Y0110607D01*
X0246250Y0100460D01*
X0244140Y0098350D01*
X0237711Y0098350D01*
X0235942Y0100118D01*
X0232158Y0100118D01*
X0232106Y0100067D02*
X0222526Y0100067D01*
X0221850Y0098468D02*
X0230507Y0098468D01*
X0229481Y0096870D02*
X0221850Y0096870D01*
X0221850Y0095271D02*
X0229481Y0095271D01*
X0229481Y0093673D02*
X0221850Y0093673D01*
X0221850Y0092074D02*
X0231065Y0092074D01*
X0232158Y0090118D02*
X0229481Y0087442D01*
X0229481Y0083658D01*
X0232158Y0080981D01*
X0235942Y0080981D01*
X0237711Y0082750D01*
X0246607Y0082750D01*
X0247636Y0083176D01*
X0257136Y0092676D01*
X0257924Y0093464D01*
X0258350Y0094493D01*
X0258350Y0104890D01*
X0262136Y0108676D01*
X0262924Y0109464D01*
X0263350Y0110493D01*
X0263350Y0124640D01*
X0264924Y0126214D01*
X0265350Y0127243D01*
X0265350Y0146140D01*
X0268898Y0149688D01*
X0270196Y0149150D01*
X0272304Y0149150D01*
X0274252Y0149957D01*
X0275743Y0151448D01*
X0276550Y0153396D01*
X0276550Y0155504D01*
X0275743Y0157452D01*
X0274252Y0158943D01*
X0274100Y0159006D01*
X0274100Y0163857D01*
X0274093Y0163875D01*
X0274350Y0164496D01*
X0274350Y0166604D01*
X0273543Y0168552D01*
X0272052Y0170043D01*
X0270104Y0170850D01*
X0267996Y0170850D01*
X0266048Y0170043D01*
X0264557Y0168552D01*
X0263750Y0166604D01*
X0263750Y0164496D01*
X0264557Y0162548D01*
X0266048Y0161057D01*
X0267996Y0160250D01*
X0268500Y0160250D01*
X0268500Y0159048D01*
X0268248Y0158943D01*
X0266757Y0157452D01*
X0265950Y0155504D01*
X0265950Y0154660D01*
X0260176Y0148886D01*
X0259750Y0147857D01*
X0259750Y0128960D01*
X0258176Y0127386D01*
X0257750Y0126357D01*
X0257750Y0112210D01*
X0253964Y0108424D01*
X0253176Y0107636D01*
X0252750Y0106607D01*
X0252750Y0096210D01*
X0244890Y0088350D01*
X0237711Y0088350D01*
X0235942Y0090118D01*
X0232158Y0090118D01*
X0230916Y0088877D02*
X0221850Y0088877D01*
X0221850Y0087279D02*
X0229481Y0087279D01*
X0229481Y0085680D02*
X0221850Y0085680D01*
X0221850Y0084082D02*
X0229481Y0084082D01*
X0230656Y0082483D02*
X0221850Y0082483D01*
X0221850Y0080884D02*
X0249925Y0080884D01*
X0248326Y0079286D02*
X0236775Y0079286D01*
X0237461Y0078600D02*
X0235942Y0080118D01*
X0232158Y0080118D01*
X0229481Y0077442D01*
X0229481Y0073658D01*
X0232158Y0070981D01*
X0235942Y0070981D01*
X0237961Y0073000D01*
X0249357Y0073000D01*
X0250386Y0073426D01*
X0251174Y0074214D01*
X0264924Y0087964D01*
X0265350Y0088993D01*
X0265350Y0099590D01*
X0269994Y0104234D01*
X0270196Y0104150D01*
X0272304Y0104150D01*
X0274252Y0104957D01*
X0275743Y0106448D01*
X0276550Y0108396D01*
X0276550Y0110504D01*
X0275743Y0112452D01*
X0274252Y0113943D01*
X0274050Y0114027D01*
X0274050Y0118772D01*
X0274350Y0119496D01*
X0274350Y0121604D01*
X0273543Y0123552D01*
X0272052Y0125043D01*
X0270104Y0125850D01*
X0267996Y0125850D01*
X0266048Y0125043D01*
X0264557Y0123552D01*
X0263750Y0121604D01*
X0263750Y0119496D01*
X0264557Y0117548D01*
X0266048Y0116057D01*
X0267996Y0115250D01*
X0268450Y0115250D01*
X0268450Y0114027D01*
X0268248Y0113943D01*
X0266757Y0112452D01*
X0265950Y0110504D01*
X0265950Y0108396D01*
X0266034Y0108194D01*
X0260964Y0103124D01*
X0260176Y0102336D01*
X0259750Y0101307D01*
X0259750Y0090710D01*
X0247640Y0078600D01*
X0237461Y0078600D01*
X0237444Y0082483D02*
X0251523Y0082483D01*
X0253122Y0084082D02*
X0248541Y0084082D01*
X0250140Y0085680D02*
X0254720Y0085680D01*
X0256319Y0087279D02*
X0251738Y0087279D01*
X0253337Y0088877D02*
X0257917Y0088877D01*
X0259516Y0090476D02*
X0254935Y0090476D01*
X0256534Y0092074D02*
X0259750Y0092074D01*
X0259750Y0093673D02*
X0258010Y0093673D01*
X0258350Y0095271D02*
X0259750Y0095271D01*
X0259750Y0096870D02*
X0258350Y0096870D01*
X0258350Y0098468D02*
X0259750Y0098468D01*
X0259750Y0100067D02*
X0258350Y0100067D01*
X0258350Y0101665D02*
X0259898Y0101665D01*
X0261104Y0103264D02*
X0258350Y0103264D01*
X0258350Y0104862D02*
X0262702Y0104862D01*
X0264301Y0106461D02*
X0259920Y0106461D01*
X0261519Y0108059D02*
X0265899Y0108059D01*
X0265950Y0109658D02*
X0263004Y0109658D01*
X0262136Y0108676D02*
X0262136Y0108676D01*
X0263350Y0111256D02*
X0266261Y0111256D01*
X0267159Y0112855D02*
X0263350Y0112855D01*
X0263350Y0114453D02*
X0268450Y0114453D01*
X0266060Y0116052D02*
X0263350Y0116052D01*
X0263350Y0117650D02*
X0264514Y0117650D01*
X0263852Y0119249D02*
X0263350Y0119249D01*
X0263350Y0120847D02*
X0263750Y0120847D01*
X0264099Y0122446D02*
X0263350Y0122446D01*
X0263350Y0124044D02*
X0265049Y0124044D01*
X0264353Y0125643D02*
X0267496Y0125643D01*
X0265349Y0127241D02*
X0306201Y0127241D01*
X0306201Y0125643D02*
X0300604Y0125643D01*
X0300104Y0125850D02*
X0297996Y0125850D01*
X0296048Y0125043D01*
X0294557Y0123552D01*
X0293750Y0121604D01*
X0293750Y0119496D01*
X0294557Y0117548D01*
X0296048Y0116057D01*
X0297996Y0115250D01*
X0300104Y0115250D01*
X0302052Y0116057D01*
X0303543Y0117548D01*
X0304350Y0119496D01*
X0304350Y0121604D01*
X0303543Y0123552D01*
X0302052Y0125043D01*
X0300104Y0125850D01*
X0297496Y0125643D02*
X0270604Y0125643D01*
X0273051Y0124044D02*
X0295049Y0124044D01*
X0294099Y0122446D02*
X0274001Y0122446D01*
X0274350Y0120847D02*
X0293750Y0120847D01*
X0293852Y0119249D02*
X0274248Y0119249D01*
X0274050Y0117650D02*
X0294514Y0117650D01*
X0296060Y0116052D02*
X0274050Y0116052D01*
X0274050Y0114453D02*
X0295079Y0114453D01*
X0295796Y0114750D02*
X0293848Y0113943D01*
X0292357Y0112452D01*
X0291550Y0110504D01*
X0291550Y0108396D01*
X0292357Y0106448D01*
X0293848Y0104957D01*
X0295796Y0104150D01*
X0297904Y0104150D01*
X0299852Y0104957D01*
X0301343Y0106448D01*
X0302150Y0108396D01*
X0302150Y0110504D01*
X0301343Y0112452D01*
X0299852Y0113943D01*
X0297904Y0114750D01*
X0295796Y0114750D01*
X0298621Y0114453D02*
X0306201Y0114453D01*
X0306201Y0112855D02*
X0300941Y0112855D01*
X0301839Y0111256D02*
X0306201Y0111256D01*
X0306201Y0109658D02*
X0302150Y0109658D01*
X0302011Y0108059D02*
X0306201Y0108059D01*
X0306201Y0106461D02*
X0301348Y0106461D01*
X0299624Y0104862D02*
X0306201Y0104862D01*
X0306201Y0103264D02*
X0269023Y0103264D01*
X0267425Y0101665D02*
X0306201Y0101665D01*
X0306201Y0100067D02*
X0265826Y0100067D01*
X0265350Y0098468D02*
X0306201Y0098468D01*
X0306201Y0096870D02*
X0298098Y0096870D01*
X0297904Y0096950D02*
X0295796Y0096950D01*
X0293848Y0096143D01*
X0292357Y0094652D01*
X0291550Y0092704D01*
X0291550Y0090596D01*
X0292357Y0088648D01*
X0293848Y0087157D01*
X0295796Y0086350D01*
X0297904Y0086350D01*
X0299852Y0087157D01*
X0301343Y0088648D01*
X0302150Y0090596D01*
X0302150Y0092704D01*
X0301343Y0094652D01*
X0299852Y0096143D01*
X0297904Y0096950D01*
X0295602Y0096870D02*
X0272984Y0096870D01*
X0273361Y0096747D02*
X0272538Y0097015D01*
X0271683Y0097150D01*
X0271450Y0097150D01*
X0271450Y0091850D01*
X0276750Y0091850D01*
X0276750Y0092083D01*
X0276615Y0092938D01*
X0276347Y0093761D01*
X0275954Y0094533D01*
X0275445Y0095233D01*
X0274833Y0095845D01*
X0274133Y0096354D01*
X0273361Y0096747D01*
X0271450Y0096870D02*
X0271050Y0096870D01*
X0271050Y0097150D02*
X0270817Y0097150D01*
X0269962Y0097015D01*
X0269139Y0096747D01*
X0268367Y0096354D01*
X0267667Y0095845D01*
X0267055Y0095233D01*
X0266546Y0094533D01*
X0266153Y0093761D01*
X0265885Y0092938D01*
X0265750Y0092083D01*
X0265750Y0091850D01*
X0271050Y0091850D01*
X0271050Y0097150D01*
X0269516Y0096870D02*
X0265350Y0096870D01*
X0265350Y0095271D02*
X0267093Y0095271D01*
X0266124Y0093673D02*
X0265350Y0093673D01*
X0265350Y0092074D02*
X0265750Y0092074D01*
X0265750Y0091450D02*
X0265750Y0091217D01*
X0265885Y0090362D01*
X0266153Y0089539D01*
X0266546Y0088767D01*
X0267055Y0088067D01*
X0267667Y0087455D01*
X0268367Y0086946D01*
X0269139Y0086553D01*
X0269962Y0086285D01*
X0270817Y0086150D01*
X0271050Y0086150D01*
X0271050Y0091450D01*
X0271450Y0091450D01*
X0271450Y0091850D01*
X0271050Y0091850D01*
X0271050Y0091450D01*
X0265750Y0091450D01*
X0265867Y0090476D02*
X0265350Y0090476D01*
X0265302Y0088877D02*
X0266490Y0088877D01*
X0267910Y0087279D02*
X0264238Y0087279D01*
X0262640Y0085680D02*
X0306201Y0085680D01*
X0306201Y0084082D02*
X0261041Y0084082D01*
X0259443Y0082483D02*
X0306201Y0082483D01*
X0306201Y0080884D02*
X0257844Y0080884D01*
X0256246Y0079286D02*
X0265291Y0079286D01*
X0264557Y0078552D02*
X0266048Y0080043D01*
X0267996Y0080850D01*
X0270104Y0080850D01*
X0272052Y0080043D01*
X0273543Y0078552D01*
X0274350Y0076604D01*
X0274350Y0074496D01*
X0273543Y0072548D01*
X0272950Y0071955D01*
X0272950Y0069483D01*
X0274252Y0068943D01*
X0275743Y0067452D01*
X0276550Y0065504D01*
X0276550Y0063396D01*
X0275743Y0061448D01*
X0274252Y0059957D01*
X0272304Y0059150D01*
X0270196Y0059150D01*
X0268248Y0059957D01*
X0266757Y0061448D01*
X0266217Y0062750D01*
X0237711Y0062750D01*
X0235942Y0060981D01*
X0232158Y0060981D01*
X0229481Y0063658D01*
X0229481Y0067442D01*
X0232158Y0070118D01*
X0235942Y0070118D01*
X0237711Y0068350D01*
X0267350Y0068350D01*
X0267350Y0070517D01*
X0266048Y0071057D01*
X0264557Y0072548D01*
X0263750Y0074496D01*
X0263750Y0076604D01*
X0264557Y0078552D01*
X0264199Y0077687D02*
X0254647Y0077687D01*
X0253049Y0076089D02*
X0263750Y0076089D01*
X0263752Y0074490D02*
X0251450Y0074490D01*
X0264414Y0072892D02*
X0237853Y0072892D01*
X0236254Y0071293D02*
X0265811Y0071293D01*
X0267350Y0069695D02*
X0236366Y0069695D01*
X0231734Y0069695D02*
X0221850Y0069695D01*
X0221850Y0071293D02*
X0231846Y0071293D01*
X0230247Y0072892D02*
X0221850Y0072892D01*
X0221850Y0074490D02*
X0229481Y0074490D01*
X0229481Y0076089D02*
X0221850Y0076089D01*
X0221850Y0077687D02*
X0229727Y0077687D01*
X0231325Y0079286D02*
X0221850Y0079286D01*
X0216250Y0071293D02*
X0179016Y0071293D01*
X0180615Y0069695D02*
X0216250Y0069695D01*
X0216250Y0068096D02*
X0182213Y0068096D01*
X0183812Y0066498D02*
X0216250Y0066498D01*
X0216250Y0064899D02*
X0185410Y0064899D01*
X0186520Y0063301D02*
X0216250Y0063301D01*
X0216250Y0061702D02*
X0186600Y0061702D01*
X0186600Y0060104D02*
X0216250Y0060104D01*
X0216250Y0058505D02*
X0186600Y0058505D01*
X0186600Y0056907D02*
X0216250Y0056907D01*
X0216250Y0055308D02*
X0186600Y0055308D01*
X0186600Y0053710D02*
X0216250Y0053710D01*
X0216250Y0052111D02*
X0186600Y0052111D01*
X0186600Y0050513D02*
X0216250Y0050513D01*
X0216250Y0048914D02*
X0186600Y0048914D01*
X0186600Y0047316D02*
X0216250Y0047316D01*
X0216250Y0045717D02*
X0186600Y0045717D01*
X0186600Y0044119D02*
X0216250Y0044119D01*
X0216250Y0042520D02*
X0186600Y0042520D01*
X0186600Y0040922D02*
X0205937Y0040922D01*
X0205923Y0040911D02*
X0205389Y0040377D01*
X0204945Y0039766D01*
X0204602Y0039093D01*
X0204368Y0038374D01*
X0204250Y0037628D01*
X0204250Y0034450D01*
X0208850Y0034450D01*
X0208850Y0042050D01*
X0208672Y0042050D01*
X0207926Y0041932D01*
X0207207Y0041698D01*
X0206534Y0041355D01*
X0205923Y0040911D01*
X0204719Y0039323D02*
X0186600Y0039323D01*
X0187381Y0037725D02*
X0204265Y0037725D01*
X0204250Y0036126D02*
X0188150Y0036126D01*
X0188150Y0034528D02*
X0204250Y0034528D01*
X0204250Y0034050D02*
X0204250Y0030872D01*
X0204368Y0030126D01*
X0204602Y0029407D01*
X0204945Y0028734D01*
X0205389Y0028123D01*
X0205923Y0027589D01*
X0206534Y0027145D01*
X0207207Y0026802D01*
X0207926Y0026568D01*
X0208672Y0026450D01*
X0208850Y0026450D01*
X0208850Y0034050D01*
X0209250Y0034050D01*
X0209250Y0034450D01*
X0213850Y0034450D01*
X0213850Y0037628D01*
X0213732Y0038374D01*
X0213498Y0039093D01*
X0213155Y0039766D01*
X0212711Y0040377D01*
X0212177Y0040911D01*
X0211566Y0041355D01*
X0210893Y0041698D01*
X0210174Y0041932D01*
X0209428Y0042050D01*
X0209250Y0042050D01*
X0209250Y0034450D01*
X0208850Y0034450D01*
X0208850Y0034050D01*
X0204250Y0034050D01*
X0204250Y0032929D02*
X0187935Y0032929D01*
X0186336Y0031331D02*
X0204250Y0031331D01*
X0204496Y0029732D02*
X0158942Y0029732D01*
X0159820Y0028134D02*
X0205381Y0028134D01*
X0208135Y0026535D02*
X0160350Y0026535D01*
X0160350Y0024937D02*
X0283828Y0024937D01*
X0283827Y0024940D02*
X0284530Y0022318D01*
X0285887Y0019966D01*
X0287807Y0018047D01*
X0290158Y0016689D01*
X0292781Y0015986D01*
X0295496Y0015986D01*
X0298119Y0016689D01*
X0300470Y0018047D01*
X0302390Y0019966D01*
X0303748Y0022318D01*
X0304450Y0024940D01*
X0304450Y0027656D01*
X0303748Y0030278D01*
X0302390Y0032630D01*
X0300470Y0034550D01*
X0298119Y0035907D01*
X0295496Y0036610D01*
X0292781Y0036610D01*
X0290158Y0035907D01*
X0287807Y0034550D01*
X0285887Y0032630D01*
X0284530Y0030278D01*
X0283827Y0027656D01*
X0283827Y0024940D01*
X0283827Y0026535D02*
X0209965Y0026535D01*
X0210174Y0026568D02*
X0210893Y0026802D01*
X0211566Y0027145D01*
X0212177Y0027589D01*
X0212711Y0028123D01*
X0213155Y0028734D01*
X0213498Y0029407D01*
X0213732Y0030126D01*
X0213850Y0030872D01*
X0213850Y0034050D01*
X0209250Y0034050D01*
X0209250Y0026450D01*
X0209428Y0026450D01*
X0210174Y0026568D01*
X0209250Y0026535D02*
X0208850Y0026535D01*
X0208850Y0028134D02*
X0209250Y0028134D01*
X0209250Y0029732D02*
X0208850Y0029732D01*
X0208850Y0031331D02*
X0209250Y0031331D01*
X0209250Y0032929D02*
X0208850Y0032929D01*
X0208850Y0034528D02*
X0209250Y0034528D01*
X0209250Y0036126D02*
X0208850Y0036126D01*
X0208850Y0037725D02*
X0209250Y0037725D01*
X0209250Y0039323D02*
X0208850Y0039323D01*
X0208850Y0040922D02*
X0209250Y0040922D01*
X0212163Y0040922D02*
X0216216Y0040922D01*
X0214930Y0039323D02*
X0213381Y0039323D01*
X0213835Y0037725D02*
X0214450Y0037725D01*
X0214450Y0036126D02*
X0213850Y0036126D01*
X0213850Y0034528D02*
X0214450Y0034528D01*
X0214450Y0032929D02*
X0213850Y0032929D01*
X0213850Y0031331D02*
X0214450Y0031331D01*
X0214700Y0029732D02*
X0213604Y0029732D01*
X0212719Y0028134D02*
X0215661Y0028134D01*
X0222439Y0028134D02*
X0283955Y0028134D01*
X0284383Y0029732D02*
X0223400Y0029732D01*
X0223650Y0031331D02*
X0285137Y0031331D01*
X0286187Y0032929D02*
X0223650Y0032929D01*
X0223650Y0034528D02*
X0287785Y0034528D01*
X0290976Y0036126D02*
X0223650Y0036126D01*
X0223650Y0037725D02*
X0306201Y0037725D01*
X0306201Y0039323D02*
X0223170Y0039323D01*
X0221884Y0040922D02*
X0306201Y0040922D01*
X0306201Y0042520D02*
X0300216Y0042520D01*
X0299852Y0042157D02*
X0301343Y0043648D01*
X0302150Y0045596D01*
X0302150Y0047704D01*
X0301343Y0049652D01*
X0299852Y0051143D01*
X0297904Y0051950D01*
X0295796Y0051950D01*
X0293848Y0051143D01*
X0292357Y0049652D01*
X0291550Y0047704D01*
X0291550Y0045596D01*
X0292357Y0043648D01*
X0293848Y0042157D01*
X0295796Y0041350D01*
X0297904Y0041350D01*
X0299852Y0042157D01*
X0301538Y0044119D02*
X0306201Y0044119D01*
X0306201Y0045717D02*
X0302150Y0045717D01*
X0302150Y0047316D02*
X0306201Y0047316D01*
X0306201Y0048914D02*
X0301649Y0048914D01*
X0300483Y0050513D02*
X0306201Y0050513D01*
X0306201Y0052111D02*
X0271927Y0052111D01*
X0271683Y0052150D02*
X0271450Y0052150D01*
X0271450Y0046850D01*
X0276750Y0046850D01*
X0276750Y0047083D01*
X0276615Y0047938D01*
X0276347Y0048761D01*
X0275954Y0049533D01*
X0275445Y0050233D01*
X0274833Y0050845D01*
X0274133Y0051354D01*
X0273361Y0051747D01*
X0272538Y0052015D01*
X0271683Y0052150D01*
X0271450Y0052111D02*
X0271050Y0052111D01*
X0271050Y0052150D02*
X0270817Y0052150D01*
X0269962Y0052015D01*
X0269139Y0051747D01*
X0268367Y0051354D01*
X0267667Y0050845D01*
X0267055Y0050233D01*
X0266546Y0049533D01*
X0266153Y0048761D01*
X0265885Y0047938D01*
X0265750Y0047083D01*
X0265750Y0046850D01*
X0271050Y0046850D01*
X0271050Y0052150D01*
X0270573Y0052111D02*
X0221850Y0052111D01*
X0221850Y0050513D02*
X0267335Y0050513D01*
X0266231Y0048914D02*
X0221850Y0048914D01*
X0221850Y0047316D02*
X0265787Y0047316D01*
X0265750Y0046450D02*
X0265750Y0046217D01*
X0265885Y0045362D01*
X0266153Y0044539D01*
X0266546Y0043767D01*
X0267055Y0043067D01*
X0267667Y0042455D01*
X0268367Y0041946D01*
X0269139Y0041553D01*
X0269962Y0041285D01*
X0270817Y0041150D01*
X0271050Y0041150D01*
X0271050Y0046450D01*
X0271450Y0046450D01*
X0271450Y0046850D01*
X0271050Y0046850D01*
X0271050Y0046450D01*
X0265750Y0046450D01*
X0265829Y0045717D02*
X0221850Y0045717D01*
X0221850Y0044119D02*
X0266367Y0044119D01*
X0267602Y0042520D02*
X0221850Y0042520D01*
X0221850Y0053710D02*
X0306201Y0053710D01*
X0306201Y0055308D02*
X0221850Y0055308D01*
X0221850Y0056907D02*
X0306201Y0056907D01*
X0306201Y0058505D02*
X0221850Y0058505D01*
X0221850Y0060104D02*
X0268101Y0060104D01*
X0266651Y0061702D02*
X0236663Y0061702D01*
X0231437Y0061702D02*
X0221850Y0061702D01*
X0221850Y0063301D02*
X0229838Y0063301D01*
X0229481Y0064899D02*
X0221850Y0064899D01*
X0221850Y0066498D02*
X0229481Y0066498D01*
X0230136Y0068096D02*
X0221850Y0068096D01*
X0221850Y0090476D02*
X0247016Y0090476D01*
X0248614Y0092074D02*
X0237035Y0092074D01*
X0237184Y0088877D02*
X0245417Y0088877D01*
X0247382Y0093673D02*
X0250213Y0093673D01*
X0248981Y0095271D02*
X0251811Y0095271D01*
X0252750Y0096870D02*
X0250579Y0096870D01*
X0251736Y0098468D02*
X0252750Y0098468D01*
X0252750Y0100067D02*
X0251850Y0100067D01*
X0251850Y0101665D02*
X0252750Y0101665D01*
X0252750Y0103264D02*
X0251850Y0103264D01*
X0251850Y0104862D02*
X0252750Y0104862D01*
X0252750Y0106461D02*
X0251850Y0106461D01*
X0251850Y0108059D02*
X0253599Y0108059D01*
X0253964Y0108424D02*
X0253964Y0108424D01*
X0255198Y0109658D02*
X0252617Y0109658D01*
X0254216Y0111256D02*
X0256796Y0111256D01*
X0257750Y0112855D02*
X0255815Y0112855D01*
X0256834Y0114453D02*
X0257750Y0114453D01*
X0257750Y0116052D02*
X0256850Y0116052D01*
X0256850Y0117650D02*
X0257750Y0117650D01*
X0257750Y0119249D02*
X0256850Y0119249D01*
X0256850Y0120847D02*
X0257750Y0120847D01*
X0257750Y0122446D02*
X0256850Y0122446D01*
X0256850Y0124044D02*
X0257750Y0124044D01*
X0257750Y0125643D02*
X0256850Y0125643D01*
X0256850Y0127241D02*
X0258116Y0127241D01*
X0257800Y0128840D02*
X0259630Y0128840D01*
X0259750Y0130438D02*
X0258600Y0130438D01*
X0258600Y0132037D02*
X0259750Y0132037D01*
X0259750Y0133635D02*
X0258600Y0133635D01*
X0258600Y0135234D02*
X0259750Y0135234D01*
X0259750Y0136832D02*
X0258600Y0136832D01*
X0258600Y0138431D02*
X0259750Y0138431D01*
X0259750Y0140029D02*
X0258600Y0140029D01*
X0258600Y0141628D02*
X0259750Y0141628D01*
X0259750Y0143226D02*
X0258600Y0143226D01*
X0258600Y0144825D02*
X0259750Y0144825D01*
X0259750Y0146423D02*
X0258600Y0146423D01*
X0258600Y0148022D02*
X0259818Y0148022D01*
X0260911Y0149620D02*
X0258600Y0149620D01*
X0259929Y0151219D02*
X0262509Y0151219D01*
X0261527Y0152818D02*
X0264108Y0152818D01*
X0263126Y0154416D02*
X0265706Y0154416D01*
X0266161Y0156015D02*
X0263600Y0156015D01*
X0263600Y0157613D02*
X0266918Y0157613D01*
X0268500Y0159212D02*
X0263600Y0159212D01*
X0263600Y0160810D02*
X0266644Y0160810D01*
X0264696Y0162409D02*
X0263600Y0162409D01*
X0263600Y0164007D02*
X0263952Y0164007D01*
X0263750Y0165606D02*
X0263600Y0165606D01*
X0263600Y0167204D02*
X0263998Y0167204D01*
X0263600Y0168803D02*
X0264807Y0168803D01*
X0263600Y0170401D02*
X0266912Y0170401D01*
X0263600Y0172000D02*
X0306201Y0172000D01*
X0306201Y0173598D02*
X0263600Y0173598D01*
X0263600Y0175197D02*
X0306201Y0175197D01*
X0306201Y0176795D02*
X0298979Y0176795D01*
X0299852Y0177157D02*
X0297904Y0176350D01*
X0295796Y0176350D01*
X0293848Y0177157D01*
X0292357Y0178648D01*
X0291550Y0180596D01*
X0291550Y0182704D01*
X0292357Y0184652D01*
X0293848Y0186143D01*
X0295796Y0186950D01*
X0297904Y0186950D01*
X0299852Y0186143D01*
X0301343Y0184652D01*
X0302150Y0182704D01*
X0302150Y0180596D01*
X0301343Y0178648D01*
X0299852Y0177157D01*
X0301089Y0178394D02*
X0306201Y0178394D01*
X0306201Y0179992D02*
X0301900Y0179992D01*
X0302150Y0181591D02*
X0306201Y0181591D01*
X0306201Y0183189D02*
X0301949Y0183189D01*
X0301208Y0184788D02*
X0306201Y0184788D01*
X0306201Y0186386D02*
X0299265Y0186386D01*
X0294435Y0186386D02*
X0274069Y0186386D01*
X0274133Y0186354D02*
X0273361Y0186747D01*
X0272538Y0187015D01*
X0271683Y0187150D01*
X0271450Y0187150D01*
X0271450Y0181850D01*
X0276750Y0181850D01*
X0276750Y0182083D01*
X0276615Y0182938D01*
X0276347Y0183761D01*
X0275954Y0184533D01*
X0275445Y0185233D01*
X0274833Y0185845D01*
X0274133Y0186354D01*
X0275769Y0184788D02*
X0292492Y0184788D01*
X0291751Y0183189D02*
X0276533Y0183189D01*
X0276750Y0181450D02*
X0271450Y0181450D01*
X0271450Y0181850D01*
X0271050Y0181850D01*
X0271050Y0187150D01*
X0270817Y0187150D01*
X0269962Y0187015D01*
X0269139Y0186747D01*
X0268367Y0186354D01*
X0267667Y0185845D01*
X0267055Y0185233D01*
X0266546Y0184533D01*
X0266153Y0183761D01*
X0265885Y0182938D01*
X0265750Y0182083D01*
X0265750Y0181850D01*
X0271050Y0181850D01*
X0271050Y0181450D01*
X0271450Y0181450D01*
X0271450Y0176150D01*
X0271683Y0176150D01*
X0272538Y0176285D01*
X0273361Y0176553D01*
X0274133Y0176946D01*
X0274833Y0177455D01*
X0275445Y0178067D01*
X0275954Y0178767D01*
X0276347Y0179539D01*
X0276615Y0180362D01*
X0276750Y0181217D01*
X0276750Y0181450D01*
X0276494Y0179992D02*
X0291800Y0179992D01*
X0291550Y0181591D02*
X0271450Y0181591D01*
X0271050Y0181591D02*
X0263600Y0181591D01*
X0263600Y0183189D02*
X0265967Y0183189D01*
X0265750Y0181450D02*
X0265750Y0181217D01*
X0265885Y0180362D01*
X0266153Y0179539D01*
X0266546Y0178767D01*
X0267055Y0178067D01*
X0267667Y0177455D01*
X0268367Y0176946D01*
X0269139Y0176553D01*
X0269962Y0176285D01*
X0270817Y0176150D01*
X0271050Y0176150D01*
X0271050Y0181450D01*
X0265750Y0181450D01*
X0266006Y0179992D02*
X0263600Y0179992D01*
X0263600Y0178394D02*
X0266817Y0178394D01*
X0268663Y0176795D02*
X0263600Y0176795D01*
X0258000Y0176795D02*
X0257350Y0176795D01*
X0257350Y0175197D02*
X0258000Y0175197D01*
X0258000Y0173598D02*
X0257350Y0173598D01*
X0257350Y0172000D02*
X0258000Y0172000D01*
X0258000Y0170401D02*
X0257350Y0170401D01*
X0257350Y0168803D02*
X0258000Y0168803D01*
X0258000Y0167204D02*
X0257350Y0167204D01*
X0257350Y0165606D02*
X0258000Y0165606D01*
X0258000Y0164007D02*
X0257350Y0164007D01*
X0257350Y0162409D02*
X0258000Y0162409D01*
X0258000Y0160810D02*
X0257350Y0160810D01*
X0257350Y0159212D02*
X0258000Y0159212D01*
X0257350Y0158243D02*
X0256924Y0157214D01*
X0252600Y0152890D01*
X0252600Y0135993D01*
X0252174Y0134964D01*
X0251386Y0134176D01*
X0241600Y0124391D01*
X0241424Y0123964D01*
X0240636Y0123176D01*
X0239607Y0122750D01*
X0237711Y0122750D01*
X0235942Y0120981D01*
X0232158Y0120981D01*
X0229481Y0123658D01*
X0229481Y0127442D01*
X0232158Y0130118D01*
X0235942Y0130118D01*
X0237676Y0128385D01*
X0247000Y0137710D01*
X0247000Y0154607D01*
X0247426Y0155636D01*
X0251750Y0159960D01*
X0251750Y0225357D01*
X0252176Y0226386D01*
X0252964Y0227174D01*
X0266450Y0240660D01*
X0266450Y0241465D01*
X0267150Y0243156D01*
X0268444Y0244450D01*
X0270135Y0245150D01*
X0277965Y0245150D01*
X0279656Y0244450D01*
X0280950Y0243156D01*
X0281650Y0241465D01*
X0281650Y0239635D01*
X0280950Y0237944D01*
X0279656Y0236650D01*
X0277965Y0235950D01*
X0270135Y0235950D01*
X0269799Y0236089D01*
X0257350Y0223640D01*
X0257350Y0158243D01*
X0257089Y0157613D02*
X0258000Y0157613D01*
X0256805Y0156015D02*
X0255724Y0156015D01*
X0255206Y0154416D02*
X0254126Y0154416D01*
X0253608Y0152818D02*
X0252600Y0152818D01*
X0252600Y0151219D02*
X0253000Y0151219D01*
X0253000Y0149620D02*
X0252600Y0149620D01*
X0252600Y0148022D02*
X0253000Y0148022D01*
X0253000Y0146423D02*
X0252600Y0146423D01*
X0252600Y0144825D02*
X0253000Y0144825D01*
X0253000Y0143226D02*
X0252600Y0143226D01*
X0252600Y0141628D02*
X0253000Y0141628D01*
X0253000Y0140029D02*
X0252600Y0140029D01*
X0252600Y0138431D02*
X0253000Y0138431D01*
X0253000Y0136832D02*
X0252600Y0136832D01*
X0252286Y0135234D02*
X0253000Y0135234D01*
X0253000Y0133635D02*
X0250845Y0133635D01*
X0249247Y0132037D02*
X0253000Y0132037D01*
X0251594Y0130438D02*
X0247648Y0130438D01*
X0246050Y0128840D02*
X0251250Y0128840D01*
X0251250Y0127241D02*
X0244451Y0127241D01*
X0242853Y0125643D02*
X0251250Y0125643D01*
X0251250Y0124044D02*
X0241457Y0124044D01*
X0238130Y0128840D02*
X0237221Y0128840D01*
X0235942Y0130981D02*
X0232158Y0130981D01*
X0229481Y0133658D01*
X0229481Y0137442D01*
X0232158Y0140118D01*
X0235942Y0140118D01*
X0236176Y0139885D01*
X0241000Y0144710D01*
X0241000Y0157857D01*
X0241426Y0158886D01*
X0243750Y0161210D01*
X0243750Y0236107D01*
X0244176Y0237136D01*
X0259176Y0252136D01*
X0259964Y0252924D01*
X0260993Y0253350D01*
X0267345Y0253350D01*
X0268444Y0254450D01*
X0270135Y0255150D01*
X0277965Y0255150D01*
X0279656Y0254450D01*
X0280950Y0253156D01*
X0281650Y0251465D01*
X0281650Y0249635D01*
X0280950Y0247944D01*
X0279656Y0246650D01*
X0277965Y0245950D01*
X0270135Y0245950D01*
X0268444Y0246650D01*
X0267345Y0247750D01*
X0262710Y0247750D01*
X0249350Y0234390D01*
X0249350Y0159493D01*
X0248924Y0158464D01*
X0246600Y0156140D01*
X0246600Y0142993D01*
X0246174Y0141964D01*
X0245386Y0141176D01*
X0238618Y0134409D01*
X0238618Y0133658D01*
X0235942Y0130981D01*
X0236998Y0132037D02*
X0241327Y0132037D01*
X0242926Y0133635D02*
X0238596Y0133635D01*
X0239444Y0135234D02*
X0244524Y0135234D01*
X0246123Y0136832D02*
X0241042Y0136832D01*
X0242641Y0138431D02*
X0247000Y0138431D01*
X0247000Y0140029D02*
X0244239Y0140029D01*
X0245838Y0141628D02*
X0247000Y0141628D01*
X0247000Y0143226D02*
X0246600Y0143226D01*
X0246600Y0144825D02*
X0247000Y0144825D01*
X0247000Y0146423D02*
X0246600Y0146423D01*
X0246600Y0148022D02*
X0247000Y0148022D01*
X0247000Y0149620D02*
X0246600Y0149620D01*
X0246600Y0151219D02*
X0247000Y0151219D01*
X0247000Y0152818D02*
X0246600Y0152818D01*
X0246600Y0154416D02*
X0247000Y0154416D01*
X0246600Y0156015D02*
X0247805Y0156015D01*
X0248073Y0157613D02*
X0249403Y0157613D01*
X0249233Y0159212D02*
X0251002Y0159212D01*
X0251750Y0160810D02*
X0249350Y0160810D01*
X0249350Y0162409D02*
X0251750Y0162409D01*
X0251750Y0164007D02*
X0249350Y0164007D01*
X0249350Y0165606D02*
X0251750Y0165606D01*
X0251750Y0167204D02*
X0249350Y0167204D01*
X0249350Y0168803D02*
X0251750Y0168803D01*
X0251750Y0170401D02*
X0249350Y0170401D01*
X0249350Y0172000D02*
X0251750Y0172000D01*
X0251750Y0173598D02*
X0249350Y0173598D01*
X0249350Y0175197D02*
X0251750Y0175197D01*
X0251750Y0176795D02*
X0249350Y0176795D01*
X0249350Y0178394D02*
X0251750Y0178394D01*
X0251750Y0179992D02*
X0249350Y0179992D01*
X0249350Y0181591D02*
X0251750Y0181591D01*
X0251750Y0183189D02*
X0249350Y0183189D01*
X0249350Y0184788D02*
X0251750Y0184788D01*
X0251750Y0186386D02*
X0249350Y0186386D01*
X0249350Y0187985D02*
X0251750Y0187985D01*
X0251750Y0189583D02*
X0249350Y0189583D01*
X0249350Y0191182D02*
X0251750Y0191182D01*
X0251750Y0192780D02*
X0249350Y0192780D01*
X0249350Y0194379D02*
X0251750Y0194379D01*
X0251750Y0195977D02*
X0249350Y0195977D01*
X0249350Y0197576D02*
X0251750Y0197576D01*
X0251750Y0199174D02*
X0249350Y0199174D01*
X0249350Y0200773D02*
X0251750Y0200773D01*
X0251750Y0202371D02*
X0249350Y0202371D01*
X0249350Y0203970D02*
X0251750Y0203970D01*
X0251750Y0205568D02*
X0249350Y0205568D01*
X0249350Y0207167D02*
X0251750Y0207167D01*
X0251750Y0208765D02*
X0249350Y0208765D01*
X0249350Y0210364D02*
X0251750Y0210364D01*
X0251750Y0211962D02*
X0249350Y0211962D01*
X0249350Y0213561D02*
X0251750Y0213561D01*
X0251750Y0215159D02*
X0249350Y0215159D01*
X0249350Y0216758D02*
X0251750Y0216758D01*
X0251750Y0218356D02*
X0249350Y0218356D01*
X0249350Y0219955D02*
X0251750Y0219955D01*
X0251750Y0221553D02*
X0249350Y0221553D01*
X0249350Y0223152D02*
X0251750Y0223152D01*
X0251750Y0224751D02*
X0249350Y0224751D01*
X0249350Y0226349D02*
X0252161Y0226349D01*
X0253738Y0227948D02*
X0249350Y0227948D01*
X0249350Y0229546D02*
X0255336Y0229546D01*
X0256935Y0231145D02*
X0249350Y0231145D01*
X0249350Y0232743D02*
X0258533Y0232743D01*
X0260132Y0234342D02*
X0249350Y0234342D01*
X0250900Y0235940D02*
X0261730Y0235940D01*
X0263329Y0237539D02*
X0252498Y0237539D01*
X0254097Y0239137D02*
X0264927Y0239137D01*
X0266450Y0240736D02*
X0255695Y0240736D01*
X0257294Y0242334D02*
X0266810Y0242334D01*
X0267927Y0243933D02*
X0258892Y0243933D01*
X0260491Y0245531D02*
X0306201Y0245531D01*
X0306201Y0243933D02*
X0280173Y0243933D01*
X0281290Y0242334D02*
X0306201Y0242334D01*
X0306201Y0240736D02*
X0281650Y0240736D01*
X0281444Y0239137D02*
X0306201Y0239137D01*
X0306201Y0237539D02*
X0280544Y0237539D01*
X0278893Y0234998D02*
X0278174Y0235232D01*
X0277428Y0235350D01*
X0274250Y0235350D01*
X0274250Y0230750D01*
X0273850Y0230750D01*
X0273850Y0235350D01*
X0270672Y0235350D01*
X0269926Y0235232D01*
X0269207Y0234998D01*
X0268534Y0234655D01*
X0267923Y0234211D01*
X0267389Y0233677D01*
X0266945Y0233066D01*
X0266602Y0232393D01*
X0266368Y0231674D01*
X0266250Y0230928D01*
X0266250Y0230750D01*
X0273850Y0230750D01*
X0273850Y0230350D01*
X0274250Y0230350D01*
X0274250Y0230750D01*
X0281850Y0230750D01*
X0281850Y0230928D01*
X0281732Y0231674D01*
X0281498Y0232393D01*
X0281155Y0233066D01*
X0280711Y0233677D01*
X0280177Y0234211D01*
X0279566Y0234655D01*
X0278893Y0234998D01*
X0279998Y0234342D02*
X0306201Y0234342D01*
X0306201Y0235940D02*
X0269650Y0235940D01*
X0268102Y0234342D02*
X0268051Y0234342D01*
X0266780Y0232743D02*
X0266453Y0232743D01*
X0266284Y0231145D02*
X0264854Y0231145D01*
X0266250Y0230350D02*
X0266250Y0230172D01*
X0266368Y0229426D01*
X0266602Y0228707D01*
X0266945Y0228034D01*
X0267389Y0227423D01*
X0267923Y0226889D01*
X0268534Y0226445D01*
X0269207Y0226102D01*
X0269926Y0225868D01*
X0270672Y0225750D01*
X0273850Y0225750D01*
X0273850Y0230350D01*
X0266250Y0230350D01*
X0266349Y0229546D02*
X0263256Y0229546D01*
X0261657Y0227948D02*
X0267008Y0227948D01*
X0268722Y0226349D02*
X0260059Y0226349D01*
X0258460Y0224751D02*
X0306201Y0224751D01*
X0306201Y0226349D02*
X0279378Y0226349D01*
X0279566Y0226445D02*
X0280177Y0226889D01*
X0280711Y0227423D01*
X0281155Y0228034D01*
X0281498Y0228707D01*
X0281732Y0229426D01*
X0281850Y0230172D01*
X0281850Y0230350D01*
X0274250Y0230350D01*
X0274250Y0225750D01*
X0277428Y0225750D01*
X0278174Y0225868D01*
X0278893Y0226102D01*
X0279566Y0226445D01*
X0281092Y0227948D02*
X0306201Y0227948D01*
X0306201Y0229546D02*
X0281751Y0229546D01*
X0281816Y0231145D02*
X0306201Y0231145D01*
X0306201Y0232743D02*
X0281320Y0232743D01*
X0274250Y0232743D02*
X0273850Y0232743D01*
X0273850Y0231145D02*
X0274250Y0231145D01*
X0274250Y0229546D02*
X0273850Y0229546D01*
X0273850Y0227948D02*
X0274250Y0227948D01*
X0274250Y0226349D02*
X0273850Y0226349D01*
X0273850Y0234342D02*
X0274250Y0234342D01*
X0280135Y0247130D02*
X0306201Y0247130D01*
X0306201Y0248728D02*
X0281274Y0248728D01*
X0281650Y0250327D02*
X0306201Y0250327D01*
X0306201Y0251925D02*
X0281459Y0251925D01*
X0280582Y0253524D02*
X0289094Y0253524D01*
X0290158Y0252909D02*
X0287807Y0254267D01*
X0285887Y0256187D01*
X0284530Y0258538D01*
X0283827Y0261161D01*
X0283827Y0263876D01*
X0284530Y0266499D01*
X0285887Y0268850D01*
X0287807Y0270770D01*
X0290158Y0272128D01*
X0292781Y0272830D01*
X0295496Y0272830D01*
X0298119Y0272128D01*
X0300470Y0270770D01*
X0302390Y0268850D01*
X0303748Y0266499D01*
X0304450Y0263876D01*
X0304450Y0261161D01*
X0303748Y0258538D01*
X0302390Y0256187D01*
X0300470Y0254267D01*
X0298119Y0252909D01*
X0295496Y0252207D01*
X0292781Y0252207D01*
X0290158Y0252909D01*
X0286952Y0255122D02*
X0278032Y0255122D01*
X0277965Y0255950D02*
X0279656Y0256650D01*
X0280950Y0257944D01*
X0281650Y0259635D01*
X0281650Y0261465D01*
X0280950Y0263156D01*
X0279656Y0264450D01*
X0277965Y0265150D01*
X0270135Y0265150D01*
X0268444Y0264450D01*
X0267150Y0263156D01*
X0266450Y0261465D01*
X0266450Y0259635D01*
X0267150Y0257944D01*
X0268444Y0256650D01*
X0270135Y0255950D01*
X0277965Y0255950D01*
X0279726Y0256721D02*
X0285579Y0256721D01*
X0284656Y0258319D02*
X0281105Y0258319D01*
X0281650Y0259918D02*
X0284160Y0259918D01*
X0283827Y0261516D02*
X0281629Y0261516D01*
X0280967Y0263115D02*
X0283827Y0263115D01*
X0284051Y0264713D02*
X0279019Y0264713D01*
X0284479Y0266312D02*
X0108842Y0266312D01*
X0109400Y0264713D02*
X0269081Y0264713D01*
X0267133Y0263115D02*
X0110445Y0263115D01*
X0112044Y0261516D02*
X0266471Y0261516D01*
X0266450Y0259918D02*
X0236143Y0259918D01*
X0235942Y0260118D02*
X0232158Y0260118D01*
X0229481Y0257442D01*
X0229481Y0253658D01*
X0232158Y0250981D01*
X0235942Y0250981D01*
X0238618Y0253658D01*
X0238618Y0257442D01*
X0235942Y0260118D01*
X0237742Y0258319D02*
X0266995Y0258319D01*
X0268374Y0256721D02*
X0238618Y0256721D01*
X0238618Y0255122D02*
X0270068Y0255122D01*
X0267518Y0253524D02*
X0238485Y0253524D01*
X0236886Y0251925D02*
X0258965Y0251925D01*
X0257367Y0250327D02*
X0123233Y0250327D01*
X0121635Y0251925D02*
X0140931Y0251925D01*
X0142075Y0250781D02*
X0143866Y0250781D01*
X0143866Y0255366D01*
X0144234Y0255366D01*
X0144234Y0250781D01*
X0146025Y0250781D01*
X0148818Y0253575D01*
X0148818Y0255366D01*
X0144234Y0255366D01*
X0144234Y0255734D01*
X0148818Y0255734D01*
X0148818Y0257525D01*
X0146025Y0260318D01*
X0144234Y0260318D01*
X0144234Y0255734D01*
X0143866Y0255734D01*
X0143866Y0255366D01*
X0139281Y0255366D01*
X0139281Y0253575D01*
X0142075Y0250781D01*
X0143866Y0251925D02*
X0144234Y0251925D01*
X0144234Y0253524D02*
X0143866Y0253524D01*
X0143866Y0255122D02*
X0144234Y0255122D01*
X0143866Y0255734D02*
X0139281Y0255734D01*
X0139281Y0257525D01*
X0142075Y0260318D01*
X0143866Y0260318D01*
X0143866Y0255734D01*
X0143866Y0256721D02*
X0144234Y0256721D01*
X0144234Y0258319D02*
X0143866Y0258319D01*
X0143866Y0259918D02*
X0144234Y0259918D01*
X0146426Y0259918D02*
X0231957Y0259918D01*
X0230358Y0258319D02*
X0148024Y0258319D01*
X0148818Y0256721D02*
X0229481Y0256721D01*
X0229481Y0255122D02*
X0148818Y0255122D01*
X0148767Y0253524D02*
X0229615Y0253524D01*
X0231214Y0251925D02*
X0147169Y0251925D01*
X0147333Y0248728D02*
X0230767Y0248728D01*
X0229481Y0247442D02*
X0229481Y0243658D01*
X0232158Y0240981D01*
X0235942Y0240981D01*
X0238618Y0243658D01*
X0238618Y0247442D01*
X0235942Y0250118D01*
X0232158Y0250118D01*
X0229481Y0247442D01*
X0229481Y0247130D02*
X0148618Y0247130D01*
X0148618Y0245531D02*
X0229481Y0245531D01*
X0229481Y0243933D02*
X0149627Y0243933D01*
X0151226Y0242334D02*
X0230805Y0242334D01*
X0232158Y0240118D02*
X0229481Y0237442D01*
X0229481Y0233658D01*
X0232158Y0230981D01*
X0235942Y0230981D01*
X0238618Y0233658D01*
X0238618Y0237442D01*
X0235942Y0240118D01*
X0232158Y0240118D01*
X0231176Y0239137D02*
X0154423Y0239137D01*
X0156021Y0237539D02*
X0229578Y0237539D01*
X0229481Y0235940D02*
X0157620Y0235940D01*
X0158136Y0235424D02*
X0158136Y0235424D01*
X0159046Y0234342D02*
X0229481Y0234342D01*
X0230396Y0232743D02*
X0159350Y0232743D01*
X0159350Y0231145D02*
X0231995Y0231145D01*
X0232158Y0230118D02*
X0229481Y0227442D01*
X0229481Y0223658D01*
X0232158Y0220981D01*
X0235942Y0220981D01*
X0238618Y0223658D01*
X0238618Y0227442D01*
X0235942Y0230118D01*
X0232158Y0230118D01*
X0231585Y0229546D02*
X0159350Y0229546D01*
X0159350Y0227948D02*
X0229987Y0227948D01*
X0229481Y0226349D02*
X0159350Y0226349D01*
X0159350Y0224751D02*
X0229481Y0224751D01*
X0229987Y0223152D02*
X0159350Y0223152D01*
X0159350Y0221553D02*
X0231586Y0221553D01*
X0232158Y0220118D02*
X0229481Y0217442D01*
X0229481Y0213658D01*
X0232158Y0210981D01*
X0235942Y0210981D01*
X0238618Y0213658D01*
X0238618Y0217442D01*
X0235942Y0220118D01*
X0232158Y0220118D01*
X0231994Y0219955D02*
X0159350Y0219955D01*
X0159350Y0218356D02*
X0230396Y0218356D01*
X0229481Y0216758D02*
X0159350Y0216758D01*
X0159350Y0215159D02*
X0229481Y0215159D01*
X0229578Y0213561D02*
X0159350Y0213561D01*
X0159350Y0211962D02*
X0231177Y0211962D01*
X0232158Y0210118D02*
X0229481Y0207442D01*
X0229481Y0203658D01*
X0232158Y0200981D01*
X0235942Y0200981D01*
X0238618Y0203658D01*
X0238618Y0207442D01*
X0235942Y0210118D01*
X0232158Y0210118D01*
X0230805Y0208765D02*
X0159350Y0208765D01*
X0159350Y0207167D02*
X0229481Y0207167D01*
X0229481Y0205568D02*
X0159350Y0205568D01*
X0159350Y0203970D02*
X0229481Y0203970D01*
X0230768Y0202371D02*
X0159350Y0202371D01*
X0159350Y0200773D02*
X0243750Y0200773D01*
X0243750Y0202371D02*
X0237332Y0202371D01*
X0238618Y0203970D02*
X0243750Y0203970D01*
X0243750Y0205568D02*
X0238618Y0205568D01*
X0238618Y0207167D02*
X0243750Y0207167D01*
X0243750Y0208765D02*
X0237295Y0208765D01*
X0236923Y0211962D02*
X0243750Y0211962D01*
X0243750Y0210364D02*
X0159350Y0210364D01*
X0153750Y0210364D02*
X0128196Y0210364D01*
X0126850Y0211710D02*
X0130210Y0208350D01*
X0140389Y0208350D01*
X0142158Y0210118D01*
X0145942Y0210118D01*
X0148618Y0207442D01*
X0148618Y0203658D01*
X0145942Y0200981D01*
X0142158Y0200981D01*
X0140389Y0202750D01*
X0128493Y0202750D01*
X0127464Y0203176D01*
X0122464Y0208176D01*
X0121676Y0208964D01*
X0121250Y0209993D01*
X0121250Y0219390D01*
X0117890Y0222750D01*
X0105755Y0222750D01*
X0104656Y0221650D01*
X0102965Y0220950D01*
X0095135Y0220950D01*
X0093444Y0221650D01*
X0092150Y0222944D01*
X0091450Y0224635D01*
X0091450Y0226465D01*
X0092150Y0228156D01*
X0093444Y0229450D01*
X0095135Y0230150D01*
X0102965Y0230150D01*
X0104656Y0229450D01*
X0105755Y0228350D01*
X0119607Y0228350D01*
X0120636Y0227924D01*
X0121424Y0227136D01*
X0126424Y0222136D01*
X0126850Y0221107D01*
X0126850Y0211710D01*
X0126850Y0211962D02*
X0141177Y0211962D01*
X0140389Y0212750D02*
X0142158Y0210981D01*
X0145942Y0210981D01*
X0148618Y0213658D01*
X0148618Y0217442D01*
X0145942Y0220118D01*
X0142158Y0220118D01*
X0140389Y0218350D01*
X0140210Y0218350D01*
X0136850Y0221710D01*
X0136850Y0228607D01*
X0136424Y0229636D01*
X0135636Y0230424D01*
X0128136Y0237924D01*
X0127107Y0238350D01*
X0116460Y0238350D01*
X0108136Y0246674D01*
X0107107Y0247100D01*
X0091743Y0247100D01*
X0090714Y0246674D01*
X0084176Y0240136D01*
X0083750Y0239107D01*
X0083750Y0191243D01*
X0084176Y0190214D01*
X0091214Y0183176D01*
X0092243Y0182750D01*
X0092345Y0182750D01*
X0093444Y0181650D01*
X0095135Y0180950D01*
X0102965Y0180950D01*
X0104656Y0181650D01*
X0105950Y0182944D01*
X0106650Y0184635D01*
X0106650Y0186465D01*
X0105950Y0188156D01*
X0104656Y0189450D01*
X0102965Y0190150D01*
X0095135Y0190150D01*
X0093444Y0189450D01*
X0093152Y0189158D01*
X0089350Y0192960D01*
X0089350Y0237390D01*
X0093460Y0241500D01*
X0105390Y0241500D01*
X0113714Y0233176D01*
X0114743Y0232750D01*
X0125390Y0232750D01*
X0131250Y0226890D01*
X0131250Y0219993D01*
X0131676Y0218964D01*
X0136676Y0213964D01*
X0137464Y0213176D01*
X0138493Y0212750D01*
X0140389Y0212750D01*
X0137079Y0213561D02*
X0126850Y0213561D01*
X0126850Y0215159D02*
X0135481Y0215159D01*
X0133882Y0216758D02*
X0126850Y0216758D01*
X0126850Y0218356D02*
X0132284Y0218356D01*
X0131266Y0219955D02*
X0126850Y0219955D01*
X0126665Y0221553D02*
X0131250Y0221553D01*
X0131250Y0223152D02*
X0125408Y0223152D01*
X0123809Y0224751D02*
X0131250Y0224751D01*
X0131250Y0226349D02*
X0122211Y0226349D01*
X0120579Y0227948D02*
X0130193Y0227948D01*
X0128594Y0229546D02*
X0104423Y0229546D01*
X0103435Y0231145D02*
X0126996Y0231145D01*
X0125397Y0232743D02*
X0105748Y0232743D01*
X0105950Y0232944D02*
X0106650Y0234635D01*
X0106650Y0236465D01*
X0105950Y0238156D01*
X0104656Y0239450D01*
X0102965Y0240150D01*
X0095135Y0240150D01*
X0093444Y0239450D01*
X0092150Y0238156D01*
X0091450Y0236465D01*
X0091450Y0234635D01*
X0092150Y0232944D01*
X0093444Y0231650D01*
X0095135Y0230950D01*
X0102965Y0230950D01*
X0104656Y0231650D01*
X0105950Y0232944D01*
X0106528Y0234342D02*
X0112549Y0234342D01*
X0110950Y0235940D02*
X0106650Y0235940D01*
X0106205Y0237539D02*
X0109352Y0237539D01*
X0107753Y0239137D02*
X0104968Y0239137D01*
X0106155Y0240736D02*
X0092695Y0240736D01*
X0093132Y0239137D02*
X0091097Y0239137D01*
X0091895Y0237539D02*
X0089498Y0237539D01*
X0089350Y0235940D02*
X0091450Y0235940D01*
X0091572Y0234342D02*
X0089350Y0234342D01*
X0089350Y0232743D02*
X0092352Y0232743D01*
X0094665Y0231145D02*
X0089350Y0231145D01*
X0089350Y0229546D02*
X0093677Y0229546D01*
X0092064Y0227948D02*
X0089350Y0227948D01*
X0089350Y0226349D02*
X0091450Y0226349D01*
X0091450Y0224751D02*
X0089350Y0224751D01*
X0089350Y0223152D02*
X0092064Y0223152D01*
X0093678Y0221553D02*
X0089350Y0221553D01*
X0089350Y0219955D02*
X0094122Y0219955D01*
X0094207Y0219998D02*
X0093534Y0219655D01*
X0092923Y0219211D01*
X0092389Y0218677D01*
X0091945Y0218066D01*
X0091602Y0217393D01*
X0091368Y0216674D01*
X0091250Y0215928D01*
X0091250Y0215750D01*
X0098850Y0215750D01*
X0098850Y0220350D01*
X0095672Y0220350D01*
X0094926Y0220232D01*
X0094207Y0219998D01*
X0092156Y0218356D02*
X0089350Y0218356D01*
X0089350Y0216758D02*
X0091395Y0216758D01*
X0091250Y0215350D02*
X0091250Y0215172D01*
X0091368Y0214426D01*
X0091602Y0213707D01*
X0091945Y0213034D01*
X0092389Y0212423D01*
X0092923Y0211889D01*
X0093534Y0211445D01*
X0094207Y0211102D01*
X0094926Y0210868D01*
X0095672Y0210750D01*
X0098850Y0210750D01*
X0098850Y0215350D01*
X0099250Y0215350D01*
X0099250Y0215750D01*
X0098850Y0215750D01*
X0098850Y0215350D01*
X0091250Y0215350D01*
X0091252Y0215159D02*
X0089350Y0215159D01*
X0089350Y0213561D02*
X0091676Y0213561D01*
X0092849Y0211962D02*
X0089350Y0211962D01*
X0089350Y0210364D02*
X0121250Y0210364D01*
X0121250Y0211962D02*
X0105251Y0211962D01*
X0105177Y0211889D02*
X0105711Y0212423D01*
X0106155Y0213034D01*
X0106498Y0213707D01*
X0106732Y0214426D01*
X0106850Y0215172D01*
X0106850Y0215350D01*
X0099250Y0215350D01*
X0099250Y0210750D01*
X0102428Y0210750D01*
X0103174Y0210868D01*
X0103893Y0211102D01*
X0104566Y0211445D01*
X0105177Y0211889D01*
X0106424Y0213561D02*
X0121250Y0213561D01*
X0121250Y0215159D02*
X0106848Y0215159D01*
X0106850Y0215750D02*
X0106850Y0215928D01*
X0106732Y0216674D01*
X0106498Y0217393D01*
X0106155Y0218066D01*
X0105711Y0218677D01*
X0105177Y0219211D01*
X0104566Y0219655D01*
X0103893Y0219998D01*
X0103174Y0220232D01*
X0102428Y0220350D01*
X0099250Y0220350D01*
X0099250Y0215750D01*
X0106850Y0215750D01*
X0106705Y0216758D02*
X0121250Y0216758D01*
X0121250Y0218356D02*
X0105944Y0218356D01*
X0103978Y0219955D02*
X0120685Y0219955D01*
X0119087Y0221553D02*
X0104422Y0221553D01*
X0099250Y0219955D02*
X0098850Y0219955D01*
X0098850Y0218356D02*
X0099250Y0218356D01*
X0099250Y0216758D02*
X0098850Y0216758D01*
X0098850Y0215159D02*
X0099250Y0215159D01*
X0099250Y0213561D02*
X0098850Y0213561D01*
X0098850Y0211962D02*
X0099250Y0211962D01*
X0102965Y0210150D02*
X0095135Y0210150D01*
X0093444Y0209450D01*
X0092150Y0208156D01*
X0091450Y0206465D01*
X0091450Y0204635D01*
X0092150Y0202944D01*
X0093444Y0201650D01*
X0095135Y0200950D01*
X0102965Y0200950D01*
X0104656Y0201650D01*
X0105755Y0202750D01*
X0112890Y0202750D01*
X0121676Y0193964D01*
X0122464Y0193176D01*
X0123493Y0192750D01*
X0140389Y0192750D01*
X0142158Y0190981D01*
X0145942Y0190981D01*
X0148618Y0193658D01*
X0148618Y0197442D01*
X0145942Y0200118D01*
X0142158Y0200118D01*
X0140389Y0198350D01*
X0125210Y0198350D01*
X0115636Y0207924D01*
X0114607Y0208350D01*
X0105755Y0208350D01*
X0104656Y0209450D01*
X0102965Y0210150D01*
X0105340Y0208765D02*
X0121875Y0208765D01*
X0123473Y0207167D02*
X0116393Y0207167D01*
X0117991Y0205568D02*
X0125072Y0205568D01*
X0126670Y0203970D02*
X0119590Y0203970D01*
X0121188Y0202371D02*
X0140768Y0202371D01*
X0141214Y0199174D02*
X0124385Y0199174D01*
X0122787Y0200773D02*
X0153750Y0200773D01*
X0153750Y0202371D02*
X0147332Y0202371D01*
X0148618Y0203970D02*
X0153750Y0203970D01*
X0153750Y0205568D02*
X0148618Y0205568D01*
X0148618Y0207167D02*
X0153750Y0207167D01*
X0153750Y0208765D02*
X0147295Y0208765D01*
X0146923Y0211962D02*
X0153750Y0211962D01*
X0153750Y0213561D02*
X0148522Y0213561D01*
X0148618Y0215159D02*
X0153750Y0215159D01*
X0153750Y0216758D02*
X0148618Y0216758D01*
X0147704Y0218356D02*
X0153750Y0218356D01*
X0153750Y0219955D02*
X0146106Y0219955D01*
X0145942Y0220981D02*
X0148618Y0223658D01*
X0148618Y0227442D01*
X0145942Y0230118D01*
X0142158Y0230118D01*
X0139481Y0227442D01*
X0139481Y0223658D01*
X0142158Y0220981D01*
X0145942Y0220981D01*
X0146514Y0221553D02*
X0153750Y0221553D01*
X0153750Y0223152D02*
X0148113Y0223152D01*
X0148618Y0224751D02*
X0153750Y0224751D01*
X0153750Y0226349D02*
X0148618Y0226349D01*
X0148113Y0227948D02*
X0153750Y0227948D01*
X0153750Y0229546D02*
X0146515Y0229546D01*
X0146105Y0231145D02*
X0153750Y0231145D01*
X0152897Y0232743D02*
X0147704Y0232743D01*
X0148618Y0234342D02*
X0151299Y0234342D01*
X0149700Y0235940D02*
X0148618Y0235940D01*
X0144905Y0240736D02*
X0114074Y0240736D01*
X0112476Y0242334D02*
X0140805Y0242334D01*
X0141176Y0239137D02*
X0115673Y0239137D01*
X0110877Y0243933D02*
X0121708Y0243933D01*
X0120109Y0245531D02*
X0109279Y0245531D01*
X0105536Y0250327D02*
X0115313Y0250327D01*
X0113715Y0251925D02*
X0107135Y0251925D01*
X0107600Y0253524D02*
X0112116Y0253524D01*
X0110518Y0255122D02*
X0108378Y0255122D01*
X0113642Y0259918D02*
X0141674Y0259918D01*
X0140076Y0258319D02*
X0115241Y0258319D01*
X0116839Y0256721D02*
X0139281Y0256721D01*
X0139281Y0255122D02*
X0118438Y0255122D01*
X0120036Y0253524D02*
X0139333Y0253524D01*
X0140767Y0248728D02*
X0124832Y0248728D01*
X0118511Y0247130D02*
X0089589Y0247130D01*
X0089571Y0245531D02*
X0087991Y0245531D01*
X0087973Y0243933D02*
X0086392Y0243933D01*
X0086374Y0242334D02*
X0084794Y0242334D01*
X0084776Y0240736D02*
X0083195Y0240736D01*
X0083100Y0239137D02*
X0083763Y0239137D01*
X0083750Y0237539D02*
X0083100Y0237539D01*
X0083100Y0235940D02*
X0083750Y0235940D01*
X0083750Y0234342D02*
X0083100Y0234342D01*
X0083100Y0232743D02*
X0083750Y0232743D01*
X0083750Y0231145D02*
X0083100Y0231145D01*
X0083100Y0229546D02*
X0083750Y0229546D01*
X0083750Y0227948D02*
X0083100Y0227948D01*
X0083100Y0226349D02*
X0083750Y0226349D01*
X0083750Y0224751D02*
X0083100Y0224751D01*
X0083100Y0223152D02*
X0083750Y0223152D01*
X0083750Y0221553D02*
X0083100Y0221553D01*
X0083100Y0219955D02*
X0083750Y0219955D01*
X0083750Y0218356D02*
X0083100Y0218356D01*
X0083100Y0216758D02*
X0083750Y0216758D01*
X0083750Y0215159D02*
X0083100Y0215159D01*
X0083100Y0213561D02*
X0083750Y0213561D01*
X0083750Y0211962D02*
X0083100Y0211962D01*
X0083100Y0210364D02*
X0083750Y0210364D01*
X0083750Y0208765D02*
X0083100Y0208765D01*
X0083100Y0207167D02*
X0083750Y0207167D01*
X0083750Y0205568D02*
X0083100Y0205568D01*
X0083100Y0203970D02*
X0083750Y0203970D01*
X0083750Y0202371D02*
X0083100Y0202371D01*
X0083100Y0200773D02*
X0083750Y0200773D01*
X0083750Y0199174D02*
X0083100Y0199174D01*
X0083100Y0197576D02*
X0083750Y0197576D01*
X0083750Y0195977D02*
X0083100Y0195977D01*
X0083100Y0194379D02*
X0083750Y0194379D01*
X0083750Y0192780D02*
X0083100Y0192780D01*
X0083100Y0191182D02*
X0083775Y0191182D01*
X0083100Y0189583D02*
X0084807Y0189583D01*
X0086405Y0187985D02*
X0083097Y0187985D01*
X0082096Y0186386D02*
X0088004Y0186386D01*
X0089602Y0184788D02*
X0080498Y0184788D01*
X0079100Y0183189D02*
X0091201Y0183189D01*
X0093588Y0181591D02*
X0079100Y0181591D01*
X0079100Y0179992D02*
X0094754Y0179992D01*
X0095135Y0180150D02*
X0093444Y0179450D01*
X0092150Y0178156D01*
X0091450Y0176465D01*
X0091450Y0174635D01*
X0092150Y0172944D01*
X0093444Y0171650D01*
X0095135Y0170950D01*
X0102965Y0170950D01*
X0104656Y0171650D01*
X0105755Y0172750D01*
X0114607Y0172750D01*
X0115636Y0173176D01*
X0125210Y0182750D01*
X0140389Y0182750D01*
X0142158Y0180981D01*
X0145942Y0180981D01*
X0148618Y0183658D01*
X0148618Y0187442D01*
X0145942Y0190118D01*
X0142158Y0190118D01*
X0140389Y0188350D01*
X0123493Y0188350D01*
X0122464Y0187924D01*
X0121676Y0187136D01*
X0112890Y0178350D01*
X0105755Y0178350D01*
X0104656Y0179450D01*
X0102965Y0180150D01*
X0095135Y0180150D01*
X0092388Y0178394D02*
X0079100Y0178394D01*
X0079100Y0176795D02*
X0091587Y0176795D01*
X0091450Y0175197D02*
X0079100Y0175197D01*
X0079100Y0173598D02*
X0091879Y0173598D01*
X0093095Y0172000D02*
X0079100Y0172000D01*
X0079100Y0170401D02*
X0118691Y0170401D01*
X0117140Y0168850D02*
X0092243Y0168850D01*
X0091214Y0168424D01*
X0084426Y0161636D01*
X0084000Y0160607D01*
X0084000Y0151576D01*
X0083694Y0151450D01*
X0082400Y0150156D01*
X0081700Y0148465D01*
X0081700Y0140635D01*
X0082400Y0138944D01*
X0083694Y0137650D01*
X0085385Y0136950D01*
X0087215Y0136950D01*
X0088906Y0137650D01*
X0090200Y0138944D01*
X0090900Y0140635D01*
X0090900Y0148465D01*
X0090200Y0150156D01*
X0089600Y0150755D01*
X0089600Y0158890D01*
X0093960Y0163250D01*
X0118857Y0163250D01*
X0119886Y0163676D01*
X0128960Y0172750D01*
X0140389Y0172750D01*
X0142158Y0170981D01*
X0145942Y0170981D01*
X0148618Y0173658D01*
X0148618Y0177442D01*
X0145942Y0180118D01*
X0142158Y0180118D01*
X0140389Y0178350D01*
X0127243Y0178350D01*
X0126214Y0177924D01*
X0117140Y0168850D01*
X0120290Y0172000D02*
X0105005Y0172000D01*
X0105712Y0178394D02*
X0112934Y0178394D01*
X0114532Y0179992D02*
X0103346Y0179992D01*
X0104512Y0181591D02*
X0116131Y0181591D01*
X0117729Y0183189D02*
X0106051Y0183189D01*
X0106650Y0184788D02*
X0119328Y0184788D01*
X0120926Y0186386D02*
X0106650Y0186386D01*
X0106020Y0187985D02*
X0122611Y0187985D01*
X0123420Y0192780D02*
X0105786Y0192780D01*
X0105950Y0192944D02*
X0106650Y0194635D01*
X0106650Y0196465D01*
X0105950Y0198156D01*
X0104656Y0199450D01*
X0102965Y0200150D01*
X0095135Y0200150D01*
X0093444Y0199450D01*
X0092150Y0198156D01*
X0091450Y0196465D01*
X0091450Y0194635D01*
X0092150Y0192944D01*
X0093444Y0191650D01*
X0095135Y0190950D01*
X0102965Y0190950D01*
X0104656Y0191650D01*
X0105950Y0192944D01*
X0106544Y0194379D02*
X0121261Y0194379D01*
X0119663Y0195977D02*
X0106650Y0195977D01*
X0106190Y0197576D02*
X0118064Y0197576D01*
X0116466Y0199174D02*
X0104931Y0199174D01*
X0105377Y0202371D02*
X0113269Y0202371D01*
X0114867Y0200773D02*
X0089350Y0200773D01*
X0089350Y0202371D02*
X0092723Y0202371D01*
X0091725Y0203970D02*
X0089350Y0203970D01*
X0089350Y0205568D02*
X0091450Y0205568D01*
X0091741Y0207167D02*
X0089350Y0207167D01*
X0089350Y0208765D02*
X0092760Y0208765D01*
X0093169Y0199174D02*
X0089350Y0199174D01*
X0089350Y0197576D02*
X0091910Y0197576D01*
X0091450Y0195977D02*
X0089350Y0195977D01*
X0089350Y0194379D02*
X0091556Y0194379D01*
X0092314Y0192780D02*
X0089529Y0192780D01*
X0091128Y0191182D02*
X0094575Y0191182D01*
X0093767Y0189583D02*
X0092727Y0189583D01*
X0103525Y0191182D02*
X0141957Y0191182D01*
X0141622Y0189583D02*
X0104333Y0189583D01*
X0119255Y0176795D02*
X0125085Y0176795D01*
X0123487Y0175197D02*
X0117656Y0175197D01*
X0116058Y0173598D02*
X0121888Y0173598D01*
X0120853Y0178394D02*
X0140433Y0178394D01*
X0142031Y0179992D02*
X0122452Y0179992D01*
X0124051Y0181591D02*
X0141548Y0181591D01*
X0146069Y0179992D02*
X0153750Y0179992D01*
X0153750Y0178394D02*
X0147667Y0178394D01*
X0148618Y0176795D02*
X0153750Y0176795D01*
X0153750Y0175197D02*
X0148618Y0175197D01*
X0148559Y0173598D02*
X0153750Y0173598D01*
X0153750Y0172000D02*
X0146960Y0172000D01*
X0145942Y0170118D02*
X0148618Y0167442D01*
X0148618Y0163658D01*
X0145942Y0160981D01*
X0142158Y0160981D01*
X0140389Y0162750D01*
X0130210Y0162750D01*
X0125424Y0157964D01*
X0124636Y0157176D01*
X0123607Y0156750D01*
X0101960Y0156750D01*
X0099100Y0153890D01*
X0099100Y0151255D01*
X0100200Y0150156D01*
X0100900Y0148465D01*
X0100900Y0140635D01*
X0100200Y0138944D01*
X0098906Y0137650D01*
X0097215Y0136950D01*
X0095385Y0136950D01*
X0093694Y0137650D01*
X0092400Y0138944D01*
X0091700Y0140635D01*
X0091700Y0148465D01*
X0092400Y0150156D01*
X0093500Y0151255D01*
X0093500Y0155607D01*
X0093926Y0156636D01*
X0094714Y0157424D01*
X0099214Y0161924D01*
X0100243Y0162350D01*
X0121890Y0162350D01*
X0127464Y0167924D01*
X0128493Y0168350D01*
X0140389Y0168350D01*
X0142158Y0170118D01*
X0145942Y0170118D01*
X0147258Y0168803D02*
X0153750Y0168803D01*
X0153750Y0170401D02*
X0126611Y0170401D01*
X0125012Y0168803D02*
X0140842Y0168803D01*
X0141140Y0172000D02*
X0128209Y0172000D01*
X0126744Y0167204D02*
X0123414Y0167204D01*
X0121815Y0165606D02*
X0125146Y0165606D01*
X0123547Y0164007D02*
X0120217Y0164007D01*
X0121949Y0162409D02*
X0093118Y0162409D01*
X0091520Y0160810D02*
X0098100Y0160810D01*
X0096502Y0159212D02*
X0089921Y0159212D01*
X0089600Y0157613D02*
X0094903Y0157613D01*
X0093669Y0156015D02*
X0089600Y0156015D01*
X0089600Y0154416D02*
X0093500Y0154416D01*
X0093500Y0152818D02*
X0089600Y0152818D01*
X0089600Y0151219D02*
X0093464Y0151219D01*
X0092179Y0149620D02*
X0090421Y0149620D01*
X0090900Y0148022D02*
X0091700Y0148022D01*
X0091700Y0146423D02*
X0090900Y0146423D01*
X0090900Y0144825D02*
X0091700Y0144825D01*
X0091700Y0143226D02*
X0090900Y0143226D01*
X0090900Y0141628D02*
X0091700Y0141628D01*
X0091951Y0140029D02*
X0090649Y0140029D01*
X0089686Y0138431D02*
X0092914Y0138431D01*
X0092987Y0132037D02*
X0007668Y0132037D01*
X0007669Y0133635D02*
X0114926Y0133635D01*
X0116524Y0135234D02*
X0007670Y0135234D01*
X0007671Y0136832D02*
X0105402Y0136832D01*
X0105176Y0136868D02*
X0105922Y0136750D01*
X0106100Y0136750D01*
X0106100Y0144350D01*
X0101500Y0144350D01*
X0101500Y0141172D01*
X0101618Y0140426D01*
X0101852Y0139707D01*
X0102195Y0139034D01*
X0102639Y0138423D01*
X0103173Y0137889D01*
X0103784Y0137445D01*
X0104457Y0137102D01*
X0105176Y0136868D01*
X0106100Y0136832D02*
X0106500Y0136832D01*
X0106500Y0136750D02*
X0106678Y0136750D01*
X0107424Y0136868D01*
X0108143Y0137102D01*
X0108816Y0137445D01*
X0109427Y0137889D01*
X0109961Y0138423D01*
X0110405Y0139034D01*
X0110748Y0139707D01*
X0110982Y0140426D01*
X0111100Y0141172D01*
X0111100Y0144350D01*
X0106500Y0144350D01*
X0106500Y0144750D01*
X0106100Y0144750D01*
X0106100Y0152350D01*
X0105922Y0152350D01*
X0105176Y0152232D01*
X0104457Y0151998D01*
X0103784Y0151655D01*
X0103173Y0151211D01*
X0102639Y0150677D01*
X0102195Y0150066D01*
X0101852Y0149393D01*
X0101618Y0148674D01*
X0101500Y0147928D01*
X0101500Y0144750D01*
X0106100Y0144750D01*
X0106100Y0144350D01*
X0106500Y0144350D01*
X0106500Y0136750D01*
X0107198Y0136832D02*
X0118123Y0136832D01*
X0110853Y0140029D02*
X0142069Y0140029D01*
X0142158Y0140981D02*
X0145942Y0140981D01*
X0148618Y0143658D01*
X0148618Y0147442D01*
X0145942Y0150118D01*
X0142158Y0150118D01*
X0139481Y0147442D01*
X0139481Y0143658D01*
X0142158Y0140981D01*
X0141511Y0141628D02*
X0111100Y0141628D01*
X0111100Y0143226D02*
X0139913Y0143226D01*
X0139481Y0144825D02*
X0111100Y0144825D01*
X0111100Y0144750D02*
X0111100Y0147928D01*
X0110982Y0148674D01*
X0110748Y0149393D01*
X0110405Y0150066D01*
X0109961Y0150677D01*
X0109427Y0151211D01*
X0108816Y0151655D01*
X0108143Y0151998D01*
X0107424Y0152232D01*
X0106678Y0152350D01*
X0106500Y0152350D01*
X0106500Y0144750D01*
X0111100Y0144750D01*
X0111100Y0146423D02*
X0139481Y0146423D01*
X0140061Y0148022D02*
X0111085Y0148022D01*
X0110632Y0149620D02*
X0141660Y0149620D01*
X0142158Y0150981D02*
X0145942Y0150981D01*
X0148618Y0153658D01*
X0148618Y0157442D01*
X0145942Y0160118D01*
X0142158Y0160118D01*
X0139481Y0157442D01*
X0139481Y0153658D01*
X0142158Y0150981D01*
X0141920Y0151219D02*
X0109416Y0151219D01*
X0106500Y0151219D02*
X0106100Y0151219D01*
X0106100Y0149620D02*
X0106500Y0149620D01*
X0106500Y0148022D02*
X0106100Y0148022D01*
X0106100Y0146423D02*
X0106500Y0146423D01*
X0106500Y0144825D02*
X0106100Y0144825D01*
X0106100Y0143226D02*
X0106500Y0143226D01*
X0106500Y0141628D02*
X0106100Y0141628D01*
X0106100Y0140029D02*
X0106500Y0140029D01*
X0106500Y0138431D02*
X0106100Y0138431D01*
X0102633Y0138431D02*
X0099686Y0138431D01*
X0100649Y0140029D02*
X0101747Y0140029D01*
X0101500Y0141628D02*
X0100900Y0141628D01*
X0100900Y0143226D02*
X0101500Y0143226D01*
X0101500Y0144825D02*
X0100900Y0144825D01*
X0100900Y0146423D02*
X0101500Y0146423D01*
X0101515Y0148022D02*
X0100900Y0148022D01*
X0100421Y0149620D02*
X0101968Y0149620D01*
X0103184Y0151219D02*
X0099136Y0151219D01*
X0099100Y0152818D02*
X0140322Y0152818D01*
X0139481Y0154416D02*
X0099626Y0154416D01*
X0101224Y0156015D02*
X0139481Y0156015D01*
X0139652Y0157613D02*
X0125073Y0157613D01*
X0126671Y0159212D02*
X0141251Y0159212D01*
X0140731Y0162409D02*
X0129868Y0162409D01*
X0128270Y0160810D02*
X0153750Y0160810D01*
X0153750Y0159212D02*
X0146849Y0159212D01*
X0148448Y0157613D02*
X0153750Y0157613D01*
X0153750Y0156015D02*
X0148618Y0156015D01*
X0148618Y0154416D02*
X0153750Y0154416D01*
X0153750Y0152818D02*
X0147778Y0152818D01*
X0146180Y0151219D02*
X0153750Y0151219D01*
X0153750Y0149620D02*
X0146440Y0149620D01*
X0148039Y0148022D02*
X0153750Y0148022D01*
X0153750Y0146423D02*
X0148618Y0146423D01*
X0148618Y0144825D02*
X0153750Y0144825D01*
X0153750Y0143226D02*
X0148187Y0143226D01*
X0146589Y0141628D02*
X0153750Y0141628D01*
X0153750Y0140029D02*
X0146031Y0140029D01*
X0147630Y0138431D02*
X0153750Y0138431D01*
X0153750Y0136832D02*
X0148618Y0136832D01*
X0148618Y0135234D02*
X0153750Y0135234D01*
X0153750Y0133635D02*
X0148596Y0133635D01*
X0146998Y0132037D02*
X0153750Y0132037D01*
X0159350Y0132037D02*
X0231102Y0132037D01*
X0229504Y0133635D02*
X0159350Y0133635D01*
X0159350Y0135234D02*
X0229481Y0135234D01*
X0229481Y0136832D02*
X0159350Y0136832D01*
X0159350Y0138431D02*
X0230470Y0138431D01*
X0232069Y0140029D02*
X0159350Y0140029D01*
X0159350Y0141628D02*
X0231511Y0141628D01*
X0232158Y0140981D02*
X0235942Y0140981D01*
X0238618Y0143658D01*
X0238618Y0147442D01*
X0235942Y0150118D01*
X0232158Y0150118D01*
X0229481Y0147442D01*
X0229481Y0143658D01*
X0232158Y0140981D01*
X0229913Y0143226D02*
X0159350Y0143226D01*
X0159350Y0144825D02*
X0229481Y0144825D01*
X0229481Y0146423D02*
X0159350Y0146423D01*
X0159350Y0148022D02*
X0230061Y0148022D01*
X0231660Y0149620D02*
X0159350Y0149620D01*
X0159350Y0151219D02*
X0231920Y0151219D01*
X0232158Y0150981D02*
X0235942Y0150981D01*
X0238618Y0153658D01*
X0238618Y0157442D01*
X0235942Y0160118D01*
X0232158Y0160118D01*
X0229481Y0157442D01*
X0229481Y0153658D01*
X0232158Y0150981D01*
X0230322Y0152818D02*
X0159350Y0152818D01*
X0159350Y0154416D02*
X0229481Y0154416D01*
X0229481Y0156015D02*
X0159350Y0156015D01*
X0159350Y0157613D02*
X0229652Y0157613D01*
X0231251Y0159212D02*
X0159350Y0159212D01*
X0159350Y0160810D02*
X0243350Y0160810D01*
X0243750Y0162409D02*
X0237369Y0162409D01*
X0238618Y0163658D02*
X0235942Y0160981D01*
X0232158Y0160981D01*
X0229481Y0163658D01*
X0229481Y0167442D01*
X0232158Y0170118D01*
X0235942Y0170118D01*
X0238618Y0167442D01*
X0238618Y0163658D01*
X0238618Y0164007D02*
X0243750Y0164007D01*
X0243750Y0165606D02*
X0238618Y0165606D01*
X0238618Y0167204D02*
X0243750Y0167204D01*
X0243750Y0168803D02*
X0237258Y0168803D01*
X0235942Y0170981D02*
X0232158Y0170981D01*
X0229481Y0173658D01*
X0229481Y0177442D01*
X0232158Y0180118D01*
X0235942Y0180118D01*
X0238618Y0177442D01*
X0238618Y0173658D01*
X0235942Y0170981D01*
X0236960Y0172000D02*
X0243750Y0172000D01*
X0243750Y0173598D02*
X0238559Y0173598D01*
X0238618Y0175197D02*
X0243750Y0175197D01*
X0243750Y0176795D02*
X0238618Y0176795D01*
X0237667Y0178394D02*
X0243750Y0178394D01*
X0243750Y0179992D02*
X0236069Y0179992D01*
X0235942Y0180981D02*
X0238618Y0183658D01*
X0238618Y0187442D01*
X0235942Y0190118D01*
X0232158Y0190118D01*
X0229481Y0187442D01*
X0229481Y0183658D01*
X0232158Y0180981D01*
X0235942Y0180981D01*
X0236552Y0181591D02*
X0243750Y0181591D01*
X0243750Y0183189D02*
X0238150Y0183189D01*
X0238618Y0184788D02*
X0243750Y0184788D01*
X0243750Y0186386D02*
X0238618Y0186386D01*
X0238076Y0187985D02*
X0243750Y0187985D01*
X0243750Y0189583D02*
X0236478Y0189583D01*
X0235942Y0190981D02*
X0232158Y0190981D01*
X0229481Y0193658D01*
X0229481Y0197442D01*
X0232158Y0200118D01*
X0235942Y0200118D01*
X0238618Y0197442D01*
X0238618Y0193658D01*
X0235942Y0190981D01*
X0236143Y0191182D02*
X0243750Y0191182D01*
X0243750Y0192780D02*
X0237741Y0192780D01*
X0238618Y0194379D02*
X0243750Y0194379D01*
X0243750Y0195977D02*
X0238618Y0195977D01*
X0238485Y0197576D02*
X0243750Y0197576D01*
X0243750Y0199174D02*
X0236886Y0199174D01*
X0231214Y0199174D02*
X0159350Y0199174D01*
X0159350Y0197576D02*
X0229615Y0197576D01*
X0229481Y0195977D02*
X0159350Y0195977D01*
X0159350Y0194379D02*
X0229481Y0194379D01*
X0230359Y0192780D02*
X0159350Y0192780D01*
X0159350Y0191182D02*
X0231957Y0191182D01*
X0231622Y0189583D02*
X0159350Y0189583D01*
X0159350Y0187985D02*
X0230024Y0187985D01*
X0229481Y0186386D02*
X0159350Y0186386D01*
X0159350Y0184788D02*
X0229481Y0184788D01*
X0229950Y0183189D02*
X0159350Y0183189D01*
X0159350Y0181591D02*
X0231548Y0181591D01*
X0232031Y0179992D02*
X0159350Y0179992D01*
X0159350Y0178394D02*
X0230433Y0178394D01*
X0229481Y0176795D02*
X0159350Y0176795D01*
X0159350Y0175197D02*
X0229481Y0175197D01*
X0229541Y0173598D02*
X0159350Y0173598D01*
X0159350Y0172000D02*
X0231140Y0172000D01*
X0230842Y0168803D02*
X0159350Y0168803D01*
X0159350Y0170401D02*
X0243750Y0170401D01*
X0241752Y0159212D02*
X0236849Y0159212D01*
X0238448Y0157613D02*
X0241000Y0157613D01*
X0241000Y0156015D02*
X0238618Y0156015D01*
X0238618Y0154416D02*
X0241000Y0154416D01*
X0241000Y0152818D02*
X0237778Y0152818D01*
X0236180Y0151219D02*
X0241000Y0151219D01*
X0241000Y0149620D02*
X0236440Y0149620D01*
X0238039Y0148022D02*
X0241000Y0148022D01*
X0241000Y0146423D02*
X0238618Y0146423D01*
X0238618Y0144825D02*
X0241000Y0144825D01*
X0239517Y0143226D02*
X0238187Y0143226D01*
X0237918Y0141628D02*
X0236589Y0141628D01*
X0236320Y0140029D02*
X0236031Y0140029D01*
X0239729Y0130438D02*
X0159350Y0130438D01*
X0159350Y0128840D02*
X0230879Y0128840D01*
X0229481Y0127241D02*
X0159350Y0127241D01*
X0159350Y0125643D02*
X0229481Y0125643D01*
X0229481Y0124044D02*
X0159350Y0124044D01*
X0159350Y0122446D02*
X0230693Y0122446D01*
X0232158Y0120118D02*
X0229481Y0117442D01*
X0229481Y0113658D01*
X0232158Y0110981D01*
X0235942Y0110981D01*
X0238618Y0113658D01*
X0238618Y0117442D01*
X0235942Y0120118D01*
X0232158Y0120118D01*
X0231288Y0119249D02*
X0159350Y0119249D01*
X0159350Y0120847D02*
X0251250Y0120847D01*
X0251250Y0119249D02*
X0236812Y0119249D01*
X0238411Y0117650D02*
X0251250Y0117650D01*
X0251092Y0116052D02*
X0238618Y0116052D01*
X0238618Y0114453D02*
X0249493Y0114453D01*
X0247895Y0112855D02*
X0237816Y0112855D01*
X0236217Y0111256D02*
X0246519Y0111256D01*
X0246250Y0109658D02*
X0236403Y0109658D01*
X0238002Y0108059D02*
X0246250Y0108059D01*
X0246250Y0106461D02*
X0238618Y0106461D01*
X0238618Y0104862D02*
X0246250Y0104862D01*
X0246250Y0103264D02*
X0238224Y0103264D01*
X0236626Y0101665D02*
X0246250Y0101665D01*
X0245857Y0100067D02*
X0235994Y0100067D01*
X0237593Y0098468D02*
X0244258Y0098468D01*
X0231697Y0109658D02*
X0159350Y0109658D01*
X0159350Y0111256D02*
X0231883Y0111256D01*
X0230284Y0112855D02*
X0159350Y0112855D01*
X0159350Y0114453D02*
X0229481Y0114453D01*
X0229481Y0116052D02*
X0159350Y0116052D01*
X0159350Y0117650D02*
X0229689Y0117650D01*
X0237407Y0122446D02*
X0251250Y0122446D01*
X0265350Y0128840D02*
X0306201Y0128840D01*
X0306201Y0130438D02*
X0265350Y0130438D01*
X0265350Y0132037D02*
X0268242Y0132037D01*
X0268367Y0131946D02*
X0269139Y0131553D01*
X0269962Y0131285D01*
X0270817Y0131150D01*
X0271050Y0131150D01*
X0271050Y0136450D01*
X0271450Y0136450D01*
X0271450Y0136850D01*
X0276750Y0136850D01*
X0276750Y0137083D01*
X0276615Y0137938D01*
X0276347Y0138761D01*
X0275954Y0139533D01*
X0275445Y0140233D01*
X0274833Y0140845D01*
X0274133Y0141354D01*
X0273361Y0141747D01*
X0272538Y0142015D01*
X0271683Y0142150D01*
X0271450Y0142150D01*
X0271450Y0136850D01*
X0271050Y0136850D01*
X0271050Y0142150D01*
X0270817Y0142150D01*
X0269962Y0142015D01*
X0269139Y0141747D01*
X0268367Y0141354D01*
X0267667Y0140845D01*
X0267055Y0140233D01*
X0266546Y0139533D01*
X0266153Y0138761D01*
X0265885Y0137938D01*
X0265750Y0137083D01*
X0265750Y0136850D01*
X0271050Y0136850D01*
X0271050Y0136450D01*
X0265750Y0136450D01*
X0265750Y0136217D01*
X0265885Y0135362D01*
X0266153Y0134539D01*
X0266546Y0133767D01*
X0267055Y0133067D01*
X0267667Y0132455D01*
X0268367Y0131946D01*
X0266642Y0133635D02*
X0265350Y0133635D01*
X0265350Y0135234D02*
X0265927Y0135234D01*
X0265350Y0136832D02*
X0271050Y0136832D01*
X0271450Y0136832D02*
X0291550Y0136832D01*
X0291550Y0137704D02*
X0291550Y0135596D01*
X0292357Y0133648D01*
X0293848Y0132157D01*
X0295796Y0131350D01*
X0297904Y0131350D01*
X0299852Y0132157D01*
X0301343Y0133648D01*
X0302150Y0135596D01*
X0302150Y0137704D01*
X0301343Y0139652D01*
X0299852Y0141143D01*
X0297904Y0141950D01*
X0295796Y0141950D01*
X0293848Y0141143D01*
X0292357Y0139652D01*
X0291550Y0137704D01*
X0291851Y0138431D02*
X0276454Y0138431D01*
X0275593Y0140029D02*
X0292734Y0140029D01*
X0295018Y0141628D02*
X0273595Y0141628D01*
X0271450Y0141628D02*
X0271050Y0141628D01*
X0271050Y0140029D02*
X0271450Y0140029D01*
X0271450Y0138431D02*
X0271050Y0138431D01*
X0271450Y0136450D02*
X0276750Y0136450D01*
X0276750Y0136217D01*
X0276615Y0135362D01*
X0276347Y0134539D01*
X0275954Y0133767D01*
X0275445Y0133067D01*
X0274833Y0132455D01*
X0274133Y0131946D01*
X0273361Y0131553D01*
X0272538Y0131285D01*
X0271683Y0131150D01*
X0271450Y0131150D01*
X0271450Y0136450D01*
X0271450Y0135234D02*
X0271050Y0135234D01*
X0271050Y0133635D02*
X0271450Y0133635D01*
X0271450Y0132037D02*
X0271050Y0132037D01*
X0274258Y0132037D02*
X0294138Y0132037D01*
X0292369Y0133635D02*
X0275858Y0133635D01*
X0276573Y0135234D02*
X0291700Y0135234D01*
X0299562Y0132037D02*
X0306201Y0132037D01*
X0306201Y0133635D02*
X0301331Y0133635D01*
X0302000Y0135234D02*
X0306201Y0135234D01*
X0306201Y0136832D02*
X0302150Y0136832D01*
X0301849Y0138431D02*
X0306201Y0138431D01*
X0306201Y0140029D02*
X0300966Y0140029D01*
X0298682Y0141628D02*
X0306201Y0141628D01*
X0306201Y0143226D02*
X0265350Y0143226D01*
X0265350Y0141628D02*
X0268905Y0141628D01*
X0266907Y0140029D02*
X0265350Y0140029D01*
X0265350Y0138431D02*
X0266046Y0138431D01*
X0265350Y0144825D02*
X0306201Y0144825D01*
X0306201Y0146423D02*
X0265633Y0146423D01*
X0267232Y0148022D02*
X0306201Y0148022D01*
X0306201Y0149620D02*
X0299040Y0149620D01*
X0299852Y0149957D02*
X0297904Y0149150D01*
X0295796Y0149150D01*
X0293848Y0149957D01*
X0292357Y0151448D01*
X0291550Y0153396D01*
X0291550Y0155504D01*
X0292357Y0157452D01*
X0293848Y0158943D01*
X0295796Y0159750D01*
X0297904Y0159750D01*
X0299852Y0158943D01*
X0301343Y0157452D01*
X0302150Y0155504D01*
X0302150Y0153396D01*
X0301343Y0151448D01*
X0299852Y0149957D01*
X0301114Y0151219D02*
X0306201Y0151219D01*
X0306201Y0152818D02*
X0301910Y0152818D01*
X0302150Y0154416D02*
X0306201Y0154416D01*
X0306201Y0156015D02*
X0301939Y0156015D01*
X0301182Y0157613D02*
X0306201Y0157613D01*
X0306201Y0159212D02*
X0299204Y0159212D01*
X0300104Y0160250D02*
X0297996Y0160250D01*
X0296048Y0161057D01*
X0294557Y0162548D01*
X0293750Y0164496D01*
X0293750Y0166604D01*
X0294557Y0168552D01*
X0296048Y0170043D01*
X0297996Y0170850D01*
X0300104Y0170850D01*
X0302052Y0170043D01*
X0303543Y0168552D01*
X0304350Y0166604D01*
X0304350Y0164496D01*
X0303543Y0162548D01*
X0302052Y0161057D01*
X0300104Y0160250D01*
X0301456Y0160810D02*
X0306201Y0160810D01*
X0306201Y0162409D02*
X0303404Y0162409D01*
X0304148Y0164007D02*
X0306201Y0164007D01*
X0306201Y0165606D02*
X0304350Y0165606D01*
X0304102Y0167204D02*
X0306201Y0167204D01*
X0306201Y0168803D02*
X0303293Y0168803D01*
X0301188Y0170401D02*
X0306201Y0170401D01*
X0296912Y0170401D02*
X0271188Y0170401D01*
X0273293Y0168803D02*
X0294807Y0168803D01*
X0293998Y0167204D02*
X0274102Y0167204D01*
X0274350Y0165606D02*
X0293750Y0165606D01*
X0293952Y0164007D02*
X0274148Y0164007D01*
X0274100Y0162409D02*
X0294696Y0162409D01*
X0296644Y0160810D02*
X0274100Y0160810D01*
X0274100Y0159212D02*
X0294496Y0159212D01*
X0292518Y0157613D02*
X0275582Y0157613D01*
X0276339Y0156015D02*
X0291761Y0156015D01*
X0291550Y0154416D02*
X0276550Y0154416D01*
X0276310Y0152818D02*
X0291790Y0152818D01*
X0292586Y0151219D02*
X0275514Y0151219D01*
X0273440Y0149620D02*
X0294660Y0149620D01*
X0269060Y0149620D02*
X0268830Y0149620D01*
X0271050Y0176795D02*
X0271450Y0176795D01*
X0271450Y0178394D02*
X0271050Y0178394D01*
X0271050Y0179992D02*
X0271450Y0179992D01*
X0271450Y0183189D02*
X0271050Y0183189D01*
X0271050Y0184788D02*
X0271450Y0184788D01*
X0271450Y0186386D02*
X0271050Y0186386D01*
X0268431Y0186386D02*
X0263600Y0186386D01*
X0263600Y0184788D02*
X0266731Y0184788D01*
X0263745Y0187985D02*
X0306201Y0187985D01*
X0306201Y0189583D02*
X0265343Y0189583D01*
X0266942Y0191182D02*
X0306201Y0191182D01*
X0306201Y0192780D02*
X0268540Y0192780D01*
X0272857Y0194379D02*
X0295243Y0194379D01*
X0295796Y0194150D02*
X0297904Y0194150D01*
X0299852Y0194957D01*
X0301343Y0196448D01*
X0302150Y0198396D01*
X0302150Y0200504D01*
X0301343Y0202452D01*
X0299852Y0203943D01*
X0297904Y0204750D01*
X0295796Y0204750D01*
X0293848Y0203943D01*
X0292357Y0202452D01*
X0291550Y0200504D01*
X0291550Y0198396D01*
X0292357Y0196448D01*
X0293848Y0194957D01*
X0295796Y0194150D01*
X0298457Y0194379D02*
X0306201Y0194379D01*
X0306201Y0195977D02*
X0300873Y0195977D01*
X0301810Y0197576D02*
X0306201Y0197576D01*
X0306201Y0199174D02*
X0302150Y0199174D01*
X0302039Y0200773D02*
X0306201Y0200773D01*
X0306201Y0202371D02*
X0301377Y0202371D01*
X0299788Y0203970D02*
X0306201Y0203970D01*
X0306201Y0205568D02*
X0300873Y0205568D01*
X0300104Y0205250D02*
X0302052Y0206057D01*
X0303543Y0207548D01*
X0304350Y0209496D01*
X0304350Y0211604D01*
X0303543Y0213552D01*
X0302052Y0215043D01*
X0300104Y0215850D01*
X0297996Y0215850D01*
X0296048Y0215043D01*
X0294557Y0213552D01*
X0293750Y0211604D01*
X0293750Y0209496D01*
X0294557Y0207548D01*
X0296048Y0206057D01*
X0297996Y0205250D01*
X0300104Y0205250D01*
X0297227Y0205568D02*
X0274050Y0205568D01*
X0274050Y0207167D02*
X0294938Y0207167D01*
X0294053Y0208765D02*
X0274050Y0208765D01*
X0274350Y0210364D02*
X0293750Y0210364D01*
X0293898Y0211962D02*
X0274202Y0211962D01*
X0273534Y0213561D02*
X0294566Y0213561D01*
X0296329Y0215159D02*
X0271771Y0215159D01*
X0266329Y0215159D02*
X0257350Y0215159D01*
X0257350Y0213561D02*
X0264566Y0213561D01*
X0263898Y0211962D02*
X0257350Y0211962D01*
X0257350Y0210364D02*
X0263750Y0210364D01*
X0264053Y0208765D02*
X0257350Y0208765D01*
X0257350Y0207167D02*
X0264938Y0207167D01*
X0267227Y0205568D02*
X0257350Y0205568D01*
X0257350Y0203970D02*
X0268312Y0203970D01*
X0266723Y0202371D02*
X0257350Y0202371D01*
X0257350Y0200773D02*
X0266061Y0200773D01*
X0265950Y0199174D02*
X0257350Y0199174D01*
X0257350Y0197576D02*
X0265416Y0197576D01*
X0263818Y0195977D02*
X0257350Y0195977D01*
X0257350Y0194379D02*
X0262219Y0194379D01*
X0260620Y0192780D02*
X0257350Y0192780D01*
X0257350Y0191182D02*
X0259022Y0191182D01*
X0258011Y0189583D02*
X0257350Y0189583D01*
X0257350Y0187985D02*
X0258000Y0187985D01*
X0258000Y0186386D02*
X0257350Y0186386D01*
X0257350Y0184788D02*
X0258000Y0184788D01*
X0258000Y0183189D02*
X0257350Y0183189D01*
X0257350Y0181591D02*
X0258000Y0181591D01*
X0258000Y0179992D02*
X0257350Y0179992D01*
X0257350Y0178394D02*
X0258000Y0178394D01*
X0273837Y0176795D02*
X0294721Y0176795D01*
X0292611Y0178394D02*
X0275683Y0178394D01*
X0275273Y0195977D02*
X0292827Y0195977D01*
X0291890Y0197576D02*
X0276210Y0197576D01*
X0276550Y0199174D02*
X0291550Y0199174D01*
X0291661Y0200773D02*
X0276439Y0200773D01*
X0275777Y0202371D02*
X0292323Y0202371D01*
X0293912Y0203970D02*
X0274188Y0203970D01*
X0257350Y0216758D02*
X0306201Y0216758D01*
X0306201Y0218356D02*
X0257350Y0218356D01*
X0257350Y0219955D02*
X0306201Y0219955D01*
X0306201Y0221553D02*
X0257350Y0221553D01*
X0257350Y0223152D02*
X0306201Y0223152D01*
X0306201Y0215159D02*
X0301771Y0215159D01*
X0303534Y0213561D02*
X0306201Y0213561D01*
X0306201Y0211962D02*
X0304202Y0211962D01*
X0304350Y0210364D02*
X0306201Y0210364D01*
X0306201Y0208765D02*
X0304047Y0208765D01*
X0303162Y0207167D02*
X0306201Y0207167D01*
X0267965Y0247130D02*
X0262089Y0247130D01*
X0255768Y0248728D02*
X0237333Y0248728D01*
X0238618Y0247130D02*
X0254170Y0247130D01*
X0252571Y0245531D02*
X0238618Y0245531D01*
X0238618Y0243933D02*
X0250973Y0243933D01*
X0249374Y0242334D02*
X0237295Y0242334D01*
X0236924Y0239137D02*
X0246177Y0239137D01*
X0244579Y0237539D02*
X0238522Y0237539D01*
X0238618Y0235940D02*
X0243750Y0235940D01*
X0243750Y0234342D02*
X0238618Y0234342D01*
X0237704Y0232743D02*
X0243750Y0232743D01*
X0243750Y0231145D02*
X0236105Y0231145D01*
X0236515Y0229546D02*
X0243750Y0229546D01*
X0243750Y0227948D02*
X0238113Y0227948D01*
X0238618Y0226349D02*
X0243750Y0226349D01*
X0243750Y0224751D02*
X0238618Y0224751D01*
X0238113Y0223152D02*
X0243750Y0223152D01*
X0243750Y0221553D02*
X0236514Y0221553D01*
X0236106Y0219955D02*
X0243750Y0219955D01*
X0243750Y0218356D02*
X0237704Y0218356D01*
X0238618Y0216758D02*
X0243750Y0216758D01*
X0243750Y0215159D02*
X0238618Y0215159D01*
X0238522Y0213561D02*
X0243750Y0213561D01*
X0247776Y0240736D02*
X0152824Y0240736D01*
X0140396Y0232743D02*
X0133317Y0232743D01*
X0134915Y0231145D02*
X0141995Y0231145D01*
X0141585Y0229546D02*
X0136461Y0229546D01*
X0136850Y0227948D02*
X0139987Y0227948D01*
X0139481Y0226349D02*
X0136850Y0226349D01*
X0136850Y0224751D02*
X0139481Y0224751D01*
X0139987Y0223152D02*
X0136850Y0223152D01*
X0137006Y0221553D02*
X0141586Y0221553D01*
X0141994Y0219955D02*
X0138605Y0219955D01*
X0140203Y0218356D02*
X0140396Y0218356D01*
X0140805Y0208765D02*
X0129794Y0208765D01*
X0146886Y0199174D02*
X0153750Y0199174D01*
X0153750Y0197576D02*
X0148485Y0197576D01*
X0148618Y0195977D02*
X0153750Y0195977D01*
X0153750Y0194379D02*
X0148618Y0194379D01*
X0147741Y0192780D02*
X0153750Y0192780D01*
X0153750Y0191182D02*
X0146143Y0191182D01*
X0146478Y0189583D02*
X0153750Y0189583D01*
X0153750Y0187985D02*
X0148076Y0187985D01*
X0148618Y0186386D02*
X0153750Y0186386D01*
X0153750Y0184788D02*
X0148618Y0184788D01*
X0148150Y0183189D02*
X0153750Y0183189D01*
X0153750Y0181591D02*
X0146552Y0181591D01*
X0148618Y0167204D02*
X0153750Y0167204D01*
X0153750Y0165606D02*
X0148618Y0165606D01*
X0148618Y0164007D02*
X0153750Y0164007D01*
X0153750Y0162409D02*
X0147369Y0162409D01*
X0159350Y0162409D02*
X0230731Y0162409D01*
X0229481Y0164007D02*
X0159350Y0164007D01*
X0159350Y0165606D02*
X0229481Y0165606D01*
X0229481Y0167204D02*
X0159350Y0167204D01*
X0140470Y0138431D02*
X0109967Y0138431D01*
X0091229Y0130438D02*
X0007667Y0130438D01*
X0007666Y0128840D02*
X0089630Y0128840D01*
X0088032Y0127241D02*
X0007665Y0127241D01*
X0007664Y0125643D02*
X0086433Y0125643D01*
X0084835Y0124044D02*
X0007664Y0124044D01*
X0007663Y0122446D02*
X0083347Y0122446D01*
X0083000Y0120847D02*
X0007662Y0120847D01*
X0007661Y0119249D02*
X0011305Y0119249D01*
X0009539Y0117650D02*
X0007660Y0117650D01*
X0007659Y0116052D02*
X0008893Y0116052D01*
X0008893Y0114453D02*
X0007658Y0114453D01*
X0007657Y0112855D02*
X0009475Y0112855D01*
X0010936Y0111256D02*
X0007656Y0111256D01*
X0007656Y0109658D02*
X0009490Y0109658D01*
X0008893Y0108059D02*
X0007655Y0108059D01*
X0007654Y0106461D02*
X0008893Y0106461D01*
X0009524Y0104862D02*
X0007653Y0104862D01*
X0007652Y0103264D02*
X0010823Y0103264D01*
X0009441Y0101665D02*
X0007651Y0101665D01*
X0007650Y0100067D02*
X0008893Y0100067D01*
X0008911Y0098468D02*
X0007649Y0098468D01*
X0007648Y0096870D02*
X0009574Y0096870D01*
X0010705Y0095271D02*
X0007647Y0095271D01*
X0007647Y0093673D02*
X0009391Y0093673D01*
X0008893Y0092074D02*
X0007646Y0092074D01*
X0007645Y0090476D02*
X0008961Y0090476D01*
X0009664Y0088877D02*
X0007644Y0088877D01*
X0007643Y0087279D02*
X0010586Y0087279D01*
X0009342Y0085680D02*
X0007642Y0085680D01*
X0007641Y0084082D02*
X0008893Y0084082D01*
X0009010Y0082483D02*
X0007640Y0082483D01*
X0007639Y0080884D02*
X0009783Y0080884D01*
X0010468Y0079286D02*
X0007638Y0079286D01*
X0007638Y0077687D02*
X0009293Y0077687D01*
X0008893Y0076089D02*
X0007637Y0076089D01*
X0007636Y0074490D02*
X0009059Y0074490D01*
X0009901Y0072892D02*
X0007635Y0072892D01*
X0007634Y0071293D02*
X0010349Y0071293D01*
X0009244Y0069695D02*
X0007633Y0069695D01*
X0007632Y0068096D02*
X0008893Y0068096D01*
X0009108Y0066498D02*
X0007631Y0066498D01*
X0007630Y0064899D02*
X0010020Y0064899D01*
X0010231Y0063301D02*
X0007630Y0063301D01*
X0007629Y0061702D02*
X0009195Y0061702D01*
X0008893Y0060104D02*
X0007628Y0060104D01*
X0007627Y0058505D02*
X0009157Y0058505D01*
X0010139Y0056907D02*
X0007626Y0056907D01*
X0007625Y0055308D02*
X0010112Y0055308D01*
X0009146Y0053710D02*
X0007624Y0053710D01*
X0007623Y0052111D02*
X0008893Y0052111D01*
X0009206Y0050513D02*
X0007622Y0050513D01*
X0007621Y0048914D02*
X0010257Y0048914D01*
X0009993Y0047316D02*
X0007621Y0047316D01*
X0007620Y0045717D02*
X0009097Y0045717D01*
X0008893Y0044119D02*
X0007619Y0044119D01*
X0007618Y0042520D02*
X0009255Y0042520D01*
X0010376Y0040922D02*
X0007617Y0040922D01*
X0007616Y0039323D02*
X0136067Y0039323D01*
X0137666Y0037725D02*
X0007615Y0037725D01*
X0021711Y0036126D02*
X0139264Y0036126D01*
X0140863Y0034528D02*
X0024901Y0034528D01*
X0026500Y0032929D02*
X0142250Y0032929D01*
X0142250Y0031331D02*
X0027549Y0031331D01*
X0028303Y0029732D02*
X0131204Y0029732D01*
X0130066Y0028134D02*
X0028732Y0028134D01*
X0028860Y0026535D02*
X0129598Y0026535D01*
X0129550Y0025800D02*
X0129550Y0025367D01*
X0129685Y0024512D01*
X0129953Y0023689D01*
X0130346Y0022917D01*
X0130855Y0022217D01*
X0131467Y0021605D01*
X0132167Y0021096D01*
X0132939Y0020703D01*
X0133762Y0020435D01*
X0134617Y0020300D01*
X0135050Y0020300D01*
X0135050Y0025800D01*
X0135050Y0025800D01*
X0135050Y0025800D01*
X0129550Y0025800D01*
X0129618Y0024937D02*
X0028859Y0024937D01*
X0028430Y0023338D02*
X0130132Y0023338D01*
X0131332Y0021740D02*
X0027823Y0021740D01*
X0026900Y0020141D02*
X0285786Y0020141D01*
X0284863Y0021740D02*
X0158485Y0021740D01*
X0159767Y0023338D02*
X0284256Y0023338D01*
X0287311Y0018543D02*
X0025376Y0018543D01*
X0022970Y0016944D02*
X0289717Y0016944D01*
X0298561Y0016944D02*
X0306201Y0016944D01*
X0306201Y0018543D02*
X0300966Y0018543D01*
X0302491Y0020141D02*
X0306201Y0020141D01*
X0306201Y0021740D02*
X0303414Y0021740D01*
X0304021Y0023338D02*
X0306201Y0023338D01*
X0306201Y0024937D02*
X0304449Y0024937D01*
X0304450Y0026535D02*
X0306201Y0026535D01*
X0306201Y0028134D02*
X0304322Y0028134D01*
X0303894Y0029732D02*
X0306201Y0029732D01*
X0306201Y0031331D02*
X0303140Y0031331D01*
X0302091Y0032929D02*
X0306201Y0032929D01*
X0306201Y0034528D02*
X0300492Y0034528D01*
X0297301Y0036126D02*
X0306201Y0036126D01*
X0293484Y0042520D02*
X0274898Y0042520D01*
X0274833Y0042455D02*
X0275445Y0043067D01*
X0275954Y0043767D01*
X0276347Y0044539D01*
X0276615Y0045362D01*
X0276750Y0046217D01*
X0276750Y0046450D01*
X0271450Y0046450D01*
X0271450Y0041150D01*
X0271683Y0041150D01*
X0272538Y0041285D01*
X0273361Y0041553D01*
X0274133Y0041946D01*
X0274833Y0042455D01*
X0276133Y0044119D02*
X0292162Y0044119D01*
X0291550Y0045717D02*
X0276671Y0045717D01*
X0276713Y0047316D02*
X0291550Y0047316D01*
X0292051Y0048914D02*
X0276269Y0048914D01*
X0275165Y0050513D02*
X0293217Y0050513D01*
X0295796Y0059150D02*
X0297904Y0059150D01*
X0299852Y0059957D01*
X0301343Y0061448D01*
X0302150Y0063396D01*
X0302150Y0065504D01*
X0301343Y0067452D01*
X0299852Y0068943D01*
X0297904Y0069750D01*
X0295796Y0069750D01*
X0293848Y0068943D01*
X0292357Y0067452D01*
X0291550Y0065504D01*
X0291550Y0063396D01*
X0292357Y0061448D01*
X0293848Y0059957D01*
X0295796Y0059150D01*
X0293701Y0060104D02*
X0274399Y0060104D01*
X0275849Y0061702D02*
X0292251Y0061702D01*
X0291589Y0063301D02*
X0276511Y0063301D01*
X0276550Y0064899D02*
X0291550Y0064899D01*
X0291962Y0066498D02*
X0276138Y0066498D01*
X0275099Y0068096D02*
X0293001Y0068096D01*
X0295663Y0069695D02*
X0272950Y0069695D01*
X0272950Y0071293D02*
X0295811Y0071293D01*
X0296048Y0071057D02*
X0297996Y0070250D01*
X0300104Y0070250D01*
X0302052Y0071057D01*
X0303543Y0072548D01*
X0304350Y0074496D01*
X0304350Y0076604D01*
X0303543Y0078552D01*
X0302052Y0080043D01*
X0300104Y0080850D01*
X0297996Y0080850D01*
X0296048Y0080043D01*
X0294557Y0078552D01*
X0293750Y0076604D01*
X0293750Y0074496D01*
X0294557Y0072548D01*
X0296048Y0071057D01*
X0298037Y0069695D02*
X0306201Y0069695D01*
X0306201Y0071293D02*
X0302289Y0071293D01*
X0303686Y0072892D02*
X0306201Y0072892D01*
X0306201Y0074490D02*
X0304348Y0074490D01*
X0304350Y0076089D02*
X0306201Y0076089D01*
X0306201Y0077687D02*
X0303901Y0077687D01*
X0302809Y0079286D02*
X0306201Y0079286D01*
X0306201Y0087279D02*
X0299974Y0087279D01*
X0301438Y0088877D02*
X0306201Y0088877D01*
X0306201Y0090476D02*
X0302100Y0090476D01*
X0302150Y0092074D02*
X0306201Y0092074D01*
X0306201Y0093673D02*
X0301749Y0093673D01*
X0300724Y0095271D02*
X0306201Y0095271D01*
X0293726Y0087279D02*
X0274590Y0087279D01*
X0274833Y0087455D02*
X0275445Y0088067D01*
X0275954Y0088767D01*
X0276347Y0089539D01*
X0276615Y0090362D01*
X0276750Y0091217D01*
X0276750Y0091450D01*
X0271450Y0091450D01*
X0271450Y0086150D01*
X0271683Y0086150D01*
X0272538Y0086285D01*
X0273361Y0086553D01*
X0274133Y0086946D01*
X0274833Y0087455D01*
X0276010Y0088877D02*
X0292262Y0088877D01*
X0291600Y0090476D02*
X0276633Y0090476D01*
X0276750Y0092074D02*
X0291550Y0092074D01*
X0291951Y0093673D02*
X0276376Y0093673D01*
X0275407Y0095271D02*
X0292976Y0095271D01*
X0294076Y0104862D02*
X0274024Y0104862D01*
X0275748Y0106461D02*
X0292352Y0106461D01*
X0291689Y0108059D02*
X0276411Y0108059D01*
X0276550Y0109658D02*
X0291550Y0109658D01*
X0291861Y0111256D02*
X0276239Y0111256D01*
X0275341Y0112855D02*
X0292759Y0112855D01*
X0302040Y0116052D02*
X0306201Y0116052D01*
X0306201Y0117650D02*
X0303586Y0117650D01*
X0304248Y0119249D02*
X0306201Y0119249D01*
X0306201Y0120847D02*
X0304350Y0120847D01*
X0304001Y0122446D02*
X0306201Y0122446D01*
X0306201Y0124044D02*
X0303051Y0124044D01*
X0271450Y0095271D02*
X0271050Y0095271D01*
X0271050Y0093673D02*
X0271450Y0093673D01*
X0271450Y0092074D02*
X0271050Y0092074D01*
X0271050Y0090476D02*
X0271450Y0090476D01*
X0271450Y0088877D02*
X0271050Y0088877D01*
X0271050Y0087279D02*
X0271450Y0087279D01*
X0272809Y0079286D02*
X0295291Y0079286D01*
X0294199Y0077687D02*
X0273901Y0077687D01*
X0274350Y0076089D02*
X0293750Y0076089D01*
X0293752Y0074490D02*
X0274348Y0074490D01*
X0273686Y0072892D02*
X0294414Y0072892D01*
X0300699Y0068096D02*
X0306201Y0068096D01*
X0306201Y0066498D02*
X0301738Y0066498D01*
X0302150Y0064899D02*
X0306201Y0064899D01*
X0306201Y0063301D02*
X0302111Y0063301D01*
X0301449Y0061702D02*
X0306201Y0061702D01*
X0306201Y0060104D02*
X0299999Y0060104D01*
X0271450Y0050513D02*
X0271050Y0050513D01*
X0271050Y0048914D02*
X0271450Y0048914D01*
X0271450Y0047316D02*
X0271050Y0047316D01*
X0271050Y0045717D02*
X0271450Y0045717D01*
X0271450Y0044119D02*
X0271050Y0044119D01*
X0271050Y0042520D02*
X0271450Y0042520D01*
X0181000Y0042520D02*
X0140790Y0042520D01*
X0142388Y0040922D02*
X0181000Y0040922D01*
X0181000Y0039323D02*
X0174782Y0039323D01*
X0176381Y0037725D02*
X0179719Y0037725D01*
X0178950Y0036126D02*
X0177150Y0036126D01*
X0177150Y0034528D02*
X0178950Y0034528D01*
X0179165Y0032929D02*
X0176935Y0032929D01*
X0175336Y0031331D02*
X0180764Y0031331D01*
X0169764Y0031331D02*
X0160540Y0031331D01*
X0155818Y0034528D02*
X0147850Y0034528D01*
X0147850Y0032929D02*
X0154219Y0032929D01*
X0153464Y0032174D02*
X0153464Y0032174D01*
X0152653Y0031331D02*
X0147850Y0031331D01*
X0148613Y0029732D02*
X0151487Y0029732D01*
X0150280Y0028134D02*
X0149820Y0028134D01*
X0149767Y0023338D02*
X0150333Y0023338D01*
X0151615Y0021740D02*
X0148485Y0021740D01*
X0141615Y0021740D02*
X0138768Y0021740D01*
X0139968Y0023338D02*
X0140333Y0023338D01*
X0140280Y0028134D02*
X0140034Y0028134D01*
X0138896Y0029732D02*
X0141487Y0029732D01*
X0135050Y0029732D02*
X0135050Y0029732D01*
X0135050Y0028134D02*
X0135050Y0028134D01*
X0135050Y0026535D02*
X0135050Y0026535D01*
X0135050Y0024937D02*
X0135050Y0024937D01*
X0135050Y0023338D02*
X0135050Y0023338D01*
X0135050Y0021740D02*
X0135050Y0021740D01*
X0147184Y0036126D02*
X0157416Y0036126D01*
X0158426Y0037136D02*
X0158426Y0037136D01*
X0159015Y0037725D02*
X0145585Y0037725D01*
X0143987Y0039323D02*
X0170318Y0039323D01*
X0181000Y0044119D02*
X0139191Y0044119D01*
X0137593Y0045717D02*
X0181000Y0045717D01*
X0181000Y0047316D02*
X0135994Y0047316D01*
X0134396Y0048914D02*
X0181000Y0048914D01*
X0181000Y0050513D02*
X0132797Y0050513D01*
X0131198Y0052111D02*
X0181000Y0052111D01*
X0181000Y0053710D02*
X0129600Y0053710D01*
X0128001Y0055308D02*
X0181000Y0055308D01*
X0181000Y0056907D02*
X0126403Y0056907D01*
X0126440Y0058505D02*
X0181000Y0058505D01*
X0181000Y0060104D02*
X0126850Y0060104D01*
X0126809Y0061702D02*
X0141437Y0061702D01*
X0139838Y0063301D02*
X0126147Y0063301D01*
X0124696Y0064899D02*
X0139481Y0064899D01*
X0146663Y0061702D02*
X0180688Y0061702D01*
X0179089Y0063301D02*
X0148262Y0063301D01*
X0148618Y0064899D02*
X0177491Y0064899D01*
X0175892Y0066498D02*
X0148618Y0066498D01*
X0147444Y0082483D02*
X0153750Y0082483D01*
X0153750Y0084082D02*
X0148618Y0084082D01*
X0148618Y0085680D02*
X0153750Y0085680D01*
X0153750Y0087279D02*
X0148618Y0087279D01*
X0147184Y0088877D02*
X0153750Y0088877D01*
X0140916Y0088877D02*
X0134683Y0088877D01*
X0129960Y0085680D02*
X0123642Y0085680D01*
X0125774Y0087279D02*
X0128362Y0087279D01*
X0131559Y0084082D02*
X0113850Y0084082D01*
X0113850Y0085680D02*
X0119458Y0085680D01*
X0117326Y0087279D02*
X0113850Y0087279D01*
X0113850Y0088877D02*
X0116506Y0088877D01*
X0116250Y0090476D02*
X0113850Y0090476D01*
X0113850Y0092074D02*
X0116445Y0092074D01*
X0117177Y0093673D02*
X0113850Y0093673D01*
X0113850Y0095271D02*
X0119098Y0095271D01*
X0083000Y0095271D02*
X0016281Y0095271D01*
X0017412Y0096870D02*
X0083000Y0096870D01*
X0083000Y0098468D02*
X0018074Y0098468D01*
X0018093Y0100067D02*
X0083000Y0100067D01*
X0083000Y0101665D02*
X0017545Y0101665D01*
X0016163Y0103264D02*
X0083000Y0103264D01*
X0083000Y0104862D02*
X0017461Y0104862D01*
X0018093Y0106461D02*
X0083000Y0106461D01*
X0083000Y0108059D02*
X0018093Y0108059D01*
X0017496Y0109658D02*
X0083000Y0109658D01*
X0083000Y0111256D02*
X0016050Y0111256D01*
X0017510Y0112855D02*
X0083000Y0112855D01*
X0083000Y0114453D02*
X0018093Y0114453D01*
X0018093Y0116052D02*
X0083000Y0116052D01*
X0083000Y0117650D02*
X0017447Y0117650D01*
X0015681Y0119249D02*
X0083000Y0119249D01*
X0082914Y0138431D02*
X0079686Y0138431D01*
X0080649Y0140029D02*
X0081951Y0140029D01*
X0081700Y0141628D02*
X0080900Y0141628D01*
X0080900Y0143226D02*
X0081700Y0143226D01*
X0081700Y0144825D02*
X0080900Y0144825D01*
X0080900Y0146423D02*
X0081700Y0146423D01*
X0081700Y0148022D02*
X0080900Y0148022D01*
X0080421Y0149620D02*
X0082179Y0149620D01*
X0083464Y0151219D02*
X0079136Y0151219D01*
X0079100Y0152818D02*
X0084000Y0152818D01*
X0084000Y0154416D02*
X0079100Y0154416D01*
X0079100Y0156015D02*
X0084000Y0156015D01*
X0084000Y0157613D02*
X0079100Y0157613D01*
X0079100Y0159212D02*
X0084000Y0159212D01*
X0084084Y0160810D02*
X0079100Y0160810D01*
X0079100Y0162409D02*
X0085199Y0162409D01*
X0086797Y0164007D02*
X0079100Y0164007D01*
X0079100Y0165606D02*
X0088396Y0165606D01*
X0089994Y0167204D02*
X0079100Y0167204D01*
X0079100Y0168803D02*
X0092129Y0168803D01*
X0073500Y0168803D02*
X0007689Y0168803D01*
X0007690Y0170401D02*
X0073500Y0170401D01*
X0073500Y0172000D02*
X0007690Y0172000D01*
X0007691Y0173598D02*
X0073500Y0173598D01*
X0073500Y0175197D02*
X0007692Y0175197D01*
X0007693Y0176795D02*
X0073500Y0176795D01*
X0073500Y0178394D02*
X0007694Y0178394D01*
X0007695Y0179992D02*
X0073500Y0179992D01*
X0073500Y0181591D02*
X0007696Y0181591D01*
X0007697Y0183189D02*
X0073500Y0183189D01*
X0073500Y0184788D02*
X0007698Y0184788D01*
X0007698Y0186386D02*
X0074176Y0186386D01*
X0075775Y0187985D02*
X0007699Y0187985D01*
X0007700Y0189583D02*
X0077373Y0189583D01*
X0077500Y0191182D02*
X0007701Y0191182D01*
X0007702Y0192780D02*
X0077500Y0192780D01*
X0077500Y0194379D02*
X0007703Y0194379D01*
X0007704Y0195977D02*
X0077500Y0195977D01*
X0077500Y0197576D02*
X0007705Y0197576D01*
X0007706Y0199174D02*
X0077500Y0199174D01*
X0077500Y0200773D02*
X0007707Y0200773D01*
X0007707Y0202371D02*
X0077500Y0202371D01*
X0077500Y0203970D02*
X0007708Y0203970D01*
X0007709Y0205568D02*
X0077500Y0205568D01*
X0077500Y0207167D02*
X0007710Y0207167D01*
X0007711Y0208765D02*
X0077500Y0208765D01*
X0077500Y0210364D02*
X0007712Y0210364D01*
X0007713Y0211962D02*
X0077500Y0211962D01*
X0077500Y0213561D02*
X0007714Y0213561D01*
X0007715Y0215159D02*
X0077500Y0215159D01*
X0077500Y0216758D02*
X0007716Y0216758D01*
X0007716Y0218356D02*
X0077500Y0218356D01*
X0077500Y0219955D02*
X0007717Y0219955D01*
X0007718Y0221553D02*
X0077500Y0221553D01*
X0077500Y0223152D02*
X0007719Y0223152D01*
X0007720Y0224751D02*
X0077500Y0224751D01*
X0077500Y0226349D02*
X0007721Y0226349D01*
X0007722Y0227948D02*
X0077500Y0227948D01*
X0077500Y0229546D02*
X0007723Y0229546D01*
X0007724Y0231145D02*
X0077500Y0231145D01*
X0077500Y0232743D02*
X0007724Y0232743D01*
X0007725Y0234342D02*
X0077500Y0234342D01*
X0077500Y0235940D02*
X0007726Y0235940D01*
X0007727Y0237539D02*
X0077500Y0237539D01*
X0077500Y0239137D02*
X0007728Y0239137D01*
X0007729Y0240736D02*
X0077500Y0240736D01*
X0077500Y0242334D02*
X0007730Y0242334D01*
X0007731Y0243933D02*
X0078473Y0243933D01*
X0080071Y0245531D02*
X0007732Y0245531D01*
X0007733Y0247130D02*
X0081670Y0247130D01*
X0083268Y0248728D02*
X0007733Y0248728D01*
X0007734Y0250327D02*
X0084867Y0250327D01*
X0086465Y0251925D02*
X0007735Y0251925D01*
X0007736Y0253524D02*
X0013504Y0253524D01*
X0014568Y0252909D02*
X0017190Y0252207D01*
X0019906Y0252207D01*
X0022528Y0252909D01*
X0024880Y0254267D01*
X0026800Y0256187D01*
X0028157Y0258538D01*
X0028860Y0261161D01*
X0028860Y0263876D01*
X0028157Y0266499D01*
X0026800Y0268850D01*
X0024880Y0270770D01*
X0022528Y0272128D01*
X0019906Y0272830D01*
X0017190Y0272830D01*
X0014568Y0272128D01*
X0012216Y0270770D01*
X0010297Y0268850D01*
X0008939Y0266499D01*
X0008236Y0263876D01*
X0008236Y0261161D01*
X0008939Y0258538D01*
X0010297Y0256187D01*
X0012216Y0254267D01*
X0014568Y0252909D01*
X0011361Y0255122D02*
X0007737Y0255122D01*
X0007738Y0256721D02*
X0009988Y0256721D01*
X0009065Y0258319D02*
X0007739Y0258319D01*
X0007740Y0259918D02*
X0008569Y0259918D01*
X0008236Y0261516D02*
X0007741Y0261516D01*
X0007741Y0263115D02*
X0008236Y0263115D01*
X0008461Y0264713D02*
X0007742Y0264713D01*
X0007743Y0266312D02*
X0008889Y0266312D01*
X0009754Y0267910D02*
X0007744Y0267910D01*
X0007745Y0269509D02*
X0010955Y0269509D01*
X0012801Y0271107D02*
X0007746Y0271107D01*
X0007747Y0272706D02*
X0016726Y0272706D01*
X0020370Y0272706D02*
X0292317Y0272706D01*
X0295961Y0272706D02*
X0306201Y0272706D01*
X0306201Y0271107D02*
X0299886Y0271107D01*
X0301731Y0269509D02*
X0306201Y0269509D01*
X0306201Y0267910D02*
X0302933Y0267910D01*
X0303798Y0266312D02*
X0306201Y0266312D01*
X0306201Y0264713D02*
X0304226Y0264713D01*
X0304450Y0263115D02*
X0306201Y0263115D01*
X0306201Y0261516D02*
X0304450Y0261516D01*
X0304117Y0259918D02*
X0306201Y0259918D01*
X0306201Y0258319D02*
X0303621Y0258319D01*
X0302698Y0256721D02*
X0306201Y0256721D01*
X0306201Y0255122D02*
X0301325Y0255122D01*
X0299183Y0253524D02*
X0306201Y0253524D01*
X0288391Y0271107D02*
X0024295Y0271107D01*
X0026141Y0269509D02*
X0286546Y0269509D01*
X0285345Y0267910D02*
X0107445Y0267910D01*
X0102155Y0267910D02*
X0097653Y0267910D01*
X0097927Y0267711D02*
X0097316Y0268155D01*
X0096643Y0268498D01*
X0095924Y0268732D01*
X0095178Y0268850D01*
X0095000Y0268850D01*
X0095000Y0261250D01*
X0099600Y0261250D01*
X0099600Y0264428D01*
X0099482Y0265174D01*
X0099248Y0265893D01*
X0098905Y0266566D01*
X0098461Y0267177D01*
X0097927Y0267711D01*
X0099035Y0266312D02*
X0100758Y0266312D01*
X0100200Y0264713D02*
X0099555Y0264713D01*
X0099600Y0263115D02*
X0100200Y0263115D01*
X0100200Y0261516D02*
X0099600Y0261516D01*
X0099600Y0260850D02*
X0095000Y0260850D01*
X0095000Y0261250D01*
X0094600Y0261250D01*
X0094600Y0268850D01*
X0094422Y0268850D01*
X0093676Y0268732D01*
X0092957Y0268498D01*
X0092284Y0268155D01*
X0091673Y0267711D01*
X0091139Y0267177D01*
X0090695Y0266566D01*
X0090352Y0265893D01*
X0090118Y0265174D01*
X0090000Y0264428D01*
X0090000Y0261250D01*
X0094600Y0261250D01*
X0094600Y0260850D01*
X0095000Y0260850D01*
X0095000Y0253250D01*
X0095178Y0253250D01*
X0095924Y0253368D01*
X0096643Y0253602D01*
X0097316Y0253945D01*
X0097927Y0254389D01*
X0098461Y0254923D01*
X0098905Y0255534D01*
X0099248Y0256207D01*
X0099482Y0256926D01*
X0099600Y0257672D01*
X0099600Y0260850D01*
X0099600Y0259918D02*
X0100200Y0259918D01*
X0100200Y0258319D02*
X0099600Y0258319D01*
X0099415Y0256721D02*
X0100372Y0256721D01*
X0101222Y0255122D02*
X0098606Y0255122D01*
X0096403Y0253524D02*
X0100814Y0253524D01*
X0095000Y0253524D02*
X0094600Y0253524D01*
X0094600Y0253250D02*
X0094600Y0260850D01*
X0090000Y0260850D01*
X0090000Y0257672D01*
X0090118Y0256926D01*
X0090352Y0256207D01*
X0090695Y0255534D01*
X0091139Y0254923D01*
X0091673Y0254389D01*
X0092284Y0253945D01*
X0092957Y0253602D01*
X0093676Y0253368D01*
X0094422Y0253250D01*
X0094600Y0253250D01*
X0093197Y0253524D02*
X0023592Y0253524D01*
X0025735Y0255122D02*
X0090994Y0255122D01*
X0090185Y0256721D02*
X0027108Y0256721D01*
X0028031Y0258319D02*
X0090000Y0258319D01*
X0090000Y0259918D02*
X0028527Y0259918D01*
X0028860Y0261516D02*
X0090000Y0261516D01*
X0090000Y0263115D02*
X0028860Y0263115D01*
X0028636Y0264713D02*
X0090045Y0264713D01*
X0090565Y0266312D02*
X0028207Y0266312D01*
X0027342Y0267910D02*
X0091947Y0267910D01*
X0094600Y0267910D02*
X0095000Y0267910D01*
X0095000Y0266312D02*
X0094600Y0266312D01*
X0094600Y0264713D02*
X0095000Y0264713D01*
X0095000Y0263115D02*
X0094600Y0263115D01*
X0094600Y0261516D02*
X0095000Y0261516D01*
X0095000Y0259918D02*
X0094600Y0259918D01*
X0094600Y0258319D02*
X0095000Y0258319D01*
X0095000Y0256721D02*
X0094600Y0256721D01*
X0094600Y0255122D02*
X0095000Y0255122D01*
X0103938Y0248728D02*
X0116912Y0248728D01*
X0128521Y0237539D02*
X0139578Y0237539D01*
X0139481Y0235940D02*
X0130120Y0235940D01*
X0131718Y0234342D02*
X0139481Y0234342D01*
X0073500Y0167204D02*
X0007688Y0167204D01*
X0007687Y0165606D02*
X0073500Y0165606D01*
X0073500Y0164007D02*
X0007686Y0164007D01*
X0007685Y0162409D02*
X0073500Y0162409D01*
X0073500Y0160810D02*
X0007684Y0160810D01*
X0007683Y0159212D02*
X0073500Y0159212D01*
X0073500Y0157613D02*
X0007682Y0157613D01*
X0007681Y0156015D02*
X0073500Y0156015D01*
X0073500Y0154416D02*
X0007681Y0154416D01*
X0007680Y0152818D02*
X0073500Y0152818D01*
X0073464Y0151219D02*
X0007679Y0151219D01*
X0007678Y0149620D02*
X0072179Y0149620D01*
X0071700Y0148022D02*
X0007677Y0148022D01*
X0007676Y0146423D02*
X0071700Y0146423D01*
X0071700Y0144825D02*
X0007675Y0144825D01*
X0007674Y0143226D02*
X0071700Y0143226D01*
X0071700Y0141628D02*
X0007673Y0141628D01*
X0007673Y0140029D02*
X0071951Y0140029D01*
X0072914Y0138431D02*
X0007672Y0138431D01*
X0017594Y0093673D02*
X0083000Y0093673D01*
X0083000Y0092074D02*
X0018093Y0092074D01*
X0018025Y0090476D02*
X0083000Y0090476D01*
X0083000Y0088877D02*
X0017321Y0088877D01*
X0016400Y0087279D02*
X0083000Y0087279D01*
X0083000Y0085680D02*
X0017643Y0085680D01*
X0018093Y0084082D02*
X0083000Y0084082D01*
X0083000Y0082483D02*
X0017976Y0082483D01*
X0017203Y0080884D02*
X0083000Y0080884D01*
X0083000Y0079286D02*
X0016518Y0079286D01*
X0017693Y0077687D02*
X0083000Y0077687D01*
X0083000Y0076089D02*
X0018093Y0076089D01*
X0017927Y0074490D02*
X0083000Y0074490D01*
X0083000Y0072892D02*
X0017084Y0072892D01*
X0016637Y0071293D02*
X0083000Y0071293D01*
X0083000Y0069695D02*
X0017742Y0069695D01*
X0018093Y0068096D02*
X0083000Y0068096D01*
X0083000Y0066498D02*
X0017878Y0066498D01*
X0016966Y0064899D02*
X0083246Y0064899D01*
X0084589Y0063301D02*
X0016755Y0063301D01*
X0017791Y0061702D02*
X0086188Y0061702D01*
X0087786Y0060104D02*
X0018093Y0060104D01*
X0017829Y0058505D02*
X0089385Y0058505D01*
X0103343Y0048914D02*
X0126476Y0048914D01*
X0128074Y0047316D02*
X0103607Y0047316D01*
X0104503Y0045717D02*
X0129673Y0045717D01*
X0131271Y0044119D02*
X0104707Y0044119D01*
X0104345Y0042520D02*
X0132870Y0042520D01*
X0134468Y0040922D02*
X0103224Y0040922D01*
D16*
X0100241Y0052050D02*
X0100107Y0052184D01*
X0100241Y0052050D02*
X0106800Y0052050D01*
X0111050Y0056300D01*
X0111050Y0105050D01*
X0131550Y0125550D01*
X0144050Y0125550D01*
X0144050Y0135550D02*
X0120800Y0135550D01*
X0114800Y0129550D01*
X0094300Y0129550D01*
X0085800Y0121050D01*
X0085800Y0066050D01*
X0091800Y0060050D01*
X0100099Y0060050D01*
X0100107Y0060058D01*
X0121550Y0060550D02*
X0121550Y0057800D01*
X0145050Y0034300D01*
X0145050Y0025800D01*
X0155050Y0025800D02*
X0155050Y0029800D01*
X0160800Y0035550D01*
X0172050Y0035550D01*
X0172550Y0035050D01*
X0183550Y0035050D02*
X0183800Y0035300D01*
X0183800Y0062550D01*
X0176800Y0069550D01*
X0167800Y0069550D01*
X0156550Y0080800D01*
X0156550Y0233050D01*
X0144050Y0245550D01*
X0124050Y0245550D01*
X0108550Y0261050D01*
X0104800Y0261050D01*
X0104800Y0253550D01*
X0101550Y0250300D01*
X0088800Y0250300D01*
X0080300Y0241800D01*
X0080300Y0188550D01*
X0076300Y0184550D01*
X0076300Y0144550D01*
X0086300Y0144550D02*
X0086800Y0145050D01*
X0086800Y0160050D01*
X0092800Y0166050D01*
X0118300Y0166050D01*
X0127800Y0175550D01*
X0144050Y0175550D01*
X0144050Y0165550D02*
X0129050Y0165550D01*
X0123050Y0159550D01*
X0100800Y0159550D01*
X0096300Y0155050D01*
X0096300Y0144550D01*
X0099050Y0175550D02*
X0114050Y0175550D01*
X0124050Y0185550D01*
X0144050Y0185550D01*
X0144050Y0195550D02*
X0124050Y0195550D01*
X0114050Y0205550D01*
X0099050Y0205550D01*
X0086550Y0191800D02*
X0086550Y0238550D01*
X0092300Y0244300D01*
X0106550Y0244300D01*
X0115300Y0235550D01*
X0126550Y0235550D01*
X0134050Y0228050D01*
X0134050Y0220550D01*
X0139050Y0215550D01*
X0144050Y0215550D01*
X0144050Y0205550D02*
X0129050Y0205550D01*
X0124050Y0210550D01*
X0124050Y0220550D01*
X0119050Y0225550D01*
X0099050Y0225550D01*
X0086550Y0191800D02*
X0092800Y0185550D01*
X0099050Y0185550D01*
X0094050Y0185550D01*
X0121550Y0090550D02*
X0129050Y0090550D01*
X0134050Y0085550D01*
X0144050Y0085550D01*
X0219050Y0100550D02*
X0219050Y0034250D01*
X0234050Y0065550D02*
X0270150Y0065550D01*
X0270150Y0074450D01*
X0269050Y0075550D01*
X0270150Y0065550D02*
X0271250Y0064450D01*
X0248800Y0075800D02*
X0234300Y0075800D01*
X0234050Y0075550D01*
X0234050Y0085550D02*
X0246050Y0085550D01*
X0255550Y0095050D01*
X0255550Y0106050D01*
X0260550Y0111050D01*
X0260550Y0125800D01*
X0262550Y0127800D01*
X0262550Y0147300D01*
X0269050Y0153800D01*
X0270600Y0153800D01*
X0271250Y0154450D01*
X0271250Y0153600D01*
X0271300Y0153550D01*
X0271300Y0163300D01*
X0269050Y0165550D01*
X0260800Y0156050D02*
X0255800Y0151050D01*
X0255800Y0130800D01*
X0254050Y0129050D01*
X0254050Y0115050D01*
X0249050Y0110050D01*
X0249050Y0099300D01*
X0245300Y0095550D01*
X0234050Y0095550D01*
X0234050Y0105550D02*
X0224050Y0105550D01*
X0219050Y0100550D01*
X0234050Y0125550D02*
X0239050Y0125550D01*
X0239050Y0125800D01*
X0249800Y0136550D01*
X0249800Y0154050D01*
X0254550Y0158800D01*
X0254550Y0224800D01*
X0270300Y0240550D01*
X0274050Y0240550D01*
X0274050Y0250550D02*
X0261550Y0250550D01*
X0246550Y0235550D01*
X0246550Y0160050D01*
X0243800Y0157300D01*
X0243800Y0143550D01*
X0235800Y0135550D01*
X0234050Y0135550D01*
X0260800Y0156050D02*
X0260800Y0189000D01*
X0271250Y0199450D01*
X0271250Y0208350D01*
X0269050Y0210550D01*
X0269050Y0120550D02*
X0271250Y0118350D01*
X0271250Y0109450D01*
X0262550Y0100750D01*
X0262550Y0089550D01*
X0248800Y0075800D01*
M02*
