G75*
%MOIN*%
%OFA0B0*%
%FSLAX25Y25*%
%IPPOS*%
%LPD*%
%AMOC8*
5,1,8,0,0,1.08239X$1,22.5*
%
%ADD10C,0.11824*%
%ADD11C,0.06800*%
%ADD12OC8,0.06737*%
%ADD13OC8,0.06800*%
%ADD14C,0.08200*%
%ADD15C,0.06800*%
D10*
X0018548Y0026298D03*
X0018548Y0262519D03*
X0294139Y0262519D03*
X0294139Y0026298D03*
D11*
X0219050Y0031250D02*
X0219050Y0037250D01*
X0209050Y0037250D02*
X0209050Y0031250D01*
X0106300Y0141550D02*
X0106300Y0147550D01*
X0096300Y0147550D02*
X0096300Y0141550D01*
X0086300Y0141550D02*
X0086300Y0147550D01*
X0076300Y0147550D02*
X0076300Y0141550D01*
X0096050Y0175550D02*
X0102050Y0175550D01*
X0102050Y0185550D02*
X0096050Y0185550D01*
X0096050Y0195550D02*
X0102050Y0195550D01*
X0102050Y0205550D02*
X0096050Y0205550D01*
X0096050Y0215550D02*
X0102050Y0215550D01*
X0102050Y0225550D02*
X0096050Y0225550D01*
X0096050Y0235550D02*
X0102050Y0235550D01*
X0104800Y0258050D02*
X0104800Y0264050D01*
X0094800Y0264050D02*
X0094800Y0258050D01*
X0271050Y0260550D02*
X0277050Y0260550D01*
X0277050Y0250550D02*
X0271050Y0250550D01*
X0271050Y0240550D02*
X0277050Y0240550D01*
X0277050Y0230550D02*
X0271050Y0230550D01*
D12*
X0234050Y0225550D03*
X0234050Y0235550D03*
X0234050Y0245550D03*
X0234050Y0255550D03*
X0234050Y0215550D03*
X0234050Y0205550D03*
X0234050Y0195550D03*
X0234050Y0185550D03*
X0234050Y0175550D03*
X0234050Y0165550D03*
X0234050Y0155550D03*
X0234050Y0145550D03*
X0234050Y0135550D03*
X0234050Y0125550D03*
X0234050Y0115550D03*
X0234050Y0105550D03*
X0234050Y0095550D03*
X0234050Y0085550D03*
X0234050Y0075550D03*
X0234050Y0065550D03*
X0144050Y0065550D03*
X0144050Y0075550D03*
X0144050Y0085550D03*
X0144050Y0095550D03*
X0144050Y0105550D03*
X0144050Y0115550D03*
X0144050Y0125550D03*
X0144050Y0135550D03*
X0144050Y0145550D03*
X0144050Y0155550D03*
X0144050Y0165550D03*
X0144050Y0175550D03*
X0144050Y0185550D03*
X0144050Y0195550D03*
X0144050Y0205550D03*
X0144050Y0215550D03*
X0144050Y0225550D03*
X0144050Y0235550D03*
X0144050Y0245550D03*
X0144050Y0255550D03*
D13*
X0172550Y0035050D03*
X0183550Y0035050D03*
D14*
X0155050Y0025800D03*
X0145050Y0025800D03*
X0135050Y0025800D03*
X0121550Y0060550D03*
X0121550Y0090550D03*
X0269050Y0075550D03*
X0271250Y0064450D03*
X0271250Y0046650D03*
X0296850Y0046650D03*
X0296850Y0064450D03*
X0299050Y0075550D03*
X0296850Y0091650D03*
X0296850Y0109450D03*
X0299050Y0120550D03*
X0296850Y0136650D03*
X0296850Y0154450D03*
X0299050Y0165550D03*
X0296850Y0181650D03*
X0296850Y0199450D03*
X0299050Y0210550D03*
X0271250Y0199450D03*
X0269050Y0210550D03*
X0271250Y0181650D03*
X0269050Y0165550D03*
X0271250Y0154450D03*
X0271250Y0136650D03*
X0269050Y0120550D03*
X0271250Y0109450D03*
X0271250Y0091650D03*
D15*
X0100107Y0091554D03*
X0100107Y0099428D03*
X0100107Y0107302D03*
X0100107Y0115176D03*
X0100107Y0083680D03*
X0100107Y0075806D03*
X0100107Y0067932D03*
X0100107Y0060058D03*
X0100107Y0052184D03*
X0100107Y0044310D03*
X0013493Y0044310D03*
X0013493Y0052184D03*
X0013493Y0060058D03*
X0013493Y0067932D03*
X0013493Y0075806D03*
X0013493Y0083680D03*
X0013493Y0091554D03*
X0013493Y0099428D03*
X0013493Y0107302D03*
X0013493Y0115176D03*
M02*
