%
M48
M72
T01C0.03150
T02C0.03200
T03C0.03543
T04C0.03937
T05C0.04000
T06C0.11024
%
T01
X13493Y44310
X13493Y52184
X13493Y60058
X13493Y67932
X13493Y75806
X13493Y83680
X13493Y91554
X13493Y99428
X13493Y107302
X13493Y115176
X100107Y115176
X100107Y107302
X100107Y99428
X100107Y91554
X100107Y83680
X100107Y75806
X100107Y67932
X100107Y60058
X100107Y52184
X100107Y44310
T02
X135050Y25800
X145050Y25800
X155050Y25800
T03
X121550Y60550
X121550Y90550
X269050Y75550
X299050Y75550
X299050Y120550
X269050Y120550
X269050Y165550
X299050Y165550
X299050Y210550
X269050Y210550
T04
X234050Y205550
X234050Y215550
X234050Y225550
X234050Y235550
X234050Y245550
X234050Y255550
X234050Y195550
X234050Y185550
X234050Y175550
X234050Y165550
X234050Y155550
X234050Y145550
X234050Y135550
X234050Y125550
X234050Y115550
X234050Y105550
X234050Y95550
X234050Y85550
X234050Y75550
X234050Y65550
X144050Y65550
X144050Y75550
X144050Y85550
X144050Y95550
X144050Y105550
X144050Y115550
X144050Y125550
X144050Y135550
X144050Y145550
X144050Y155550
X144050Y165550
X144050Y175550
X144050Y185550
X144050Y195550
X144050Y205550
X144050Y215550
X144050Y225550
X144050Y235550
X144050Y245550
X144050Y255550
T05
X104800Y261050
X94800Y261050
X99050Y235550
X99050Y225550
X99050Y215550
X99050Y205550
X99050Y195550
X99050Y185550
X99050Y175550
X96300Y144550
X86300Y144550
X76300Y144550
X106300Y144550
X172550Y35050
X183550Y35050
X209050Y34250
X219050Y34250
X271250Y46650
X271250Y64450
X296850Y64450
X296850Y46650
X296850Y91650
X296850Y109450
X271250Y109450
X271250Y91650
X271250Y136650
X271250Y154450
X296850Y154450
X296850Y136650
X296850Y181650
X296850Y199450
X271250Y199450
X271250Y181650
X274050Y230550
X274050Y240550
X274050Y250550
X274050Y260550
T06
X18548Y26298
X18548Y262519
X294139Y262519
X294139Y26298
M30
